<?xml version="1.0" encoding="UTF-8" standalone="no"?>
<!-- Created with Inkscape (http://www.inkscape.org/) -->

<svg
 xmlns:dc="http://purl.org/dc/elements/1.1/"
 xmlns:cc="http://creativecommons.org/ns#"
 xmlns:rdf="http://www.w3.org/1999/02/22-rdf-syntax-ns#"
 xmlns:svg="http://www.w3.org/2000/svg"
 xmlns="http://www.w3.org/2000/svg"
 xmlns:xlink="http://www.w3.org/1999/xlink"
 xmlns:sodipodi="http://sodipodi.sourceforge.net/DTD/sodipodi-0.dtd"
 xmlns:inkscape="http://www.inkscape.org/namespaces/inkscape"
 width="512"
 height="512"
 id="svg3067"
 version="1.1"
 inkscape:version="0.48.1 r9760"
 sodipodi:docname="background.svg"
 inkscape:export-filename="/tmp/backround-example.png"
 inkscape:export-xdpi="90"
 inkscape:export-ydpi="90"
 style="display:inline">
<defs
 id="defs3069">
<linearGradient
 id="linearGradient4053"
 inkscape:collect="always">
<stop
 id="stop4055"
 offset="0"
 style="stop-color:#51adf5;stop-opacity:1" />
<stop
 id="stop4057"
 offset="1"
 style="stop-color:#b6daf6;stop-opacity:1" />
</linearGradient>
<linearGradient
 inkscape:collect="always"
 id="linearGradient3927">
<stop
 style="stop-color:#b6daf6;stop-opacity:1;"
 offset="0"
 id="stop3929" />
<stop
 style="stop-color:#ffffff;stop-opacity:0.488263"
 offset="1"
 id="stop3931" />
</linearGradient>
<linearGradient
 inkscape:collect="always"
 xlink:href="#linearGradient3927"
 id="linearGradient3933"
 x1="462.448"
 y1="174.711"
 x2="466.685"
 y2="515.536"
 gradientUnits="userSpaceOnUse"
 gradientTransform="matrix(1,0,0,0.862745,-18.3848,565.721)" />
<linearGradient
 inkscape:collect="always"
 xlink:href="#linearGradient4053"
 id="linearGradient4051"
 gradientUnits="userSpaceOnUse"
 gradientTransform="matrix(0.972039,0,0,1.41977,15.1214,-249.05)"
 x1="464.506"
 y1="275.432"
 x2="464.619"
 y2="340.378" />
</defs>
<sodipodi:namedview
 id="base"
 pagecolor="#ffffff"
 bordercolor="#666666"
 borderopacity="1.0"
 inkscape:pageopacity="0.0"
 inkscape:pageshadow="2"
 inkscape:zoom="0.707107"
 inkscape:cx="607.146"
 inkscape:cy="391.167"
 inkscape:current-layer="layer6"
 inkscape:document-units="px"
 showgrid="false"
 showguides="true"
 inkscape:guide-bbox="true"
 inkscape:window-width="1440"
 inkscape:window-height="849"
 inkscape:window-x="0"
 inkscape:window-y="24"
 inkscape:window-maximized="1"
 inkscape:snap-global="false">
<sodipodi:guide
 orientation="0,1"
 position="463.5,326.5"
 id="guide4402" />
<sodipodi:guide
 orientation="0,1"
 position="396,315"
 id="guide4404" />
<sodipodi:guide
 orientation="0,1"
 position="-70,0"
 id="guide3910" />
<sodipodi:guide
 orientation="1,0"
 position="0,260"
 id="guide3912" />
<sodipodi:guide
 orientation="1,0"
 position="1024,236"
 id="guide3914" />
</sodipodi:namedview>
<metadata
 id="metadata3072">
<rdf:RDF>
<cc:Work
 rdf:about="">
<dc:format>image/svg+xml</dc:format>
<dc:type
 rdf:resource="http://purl.org/dc/dcmitype/StillImage" />
<dc:title></dc:title>
</cc:Work>
</rdf:RDF>
</metadata>
<g
 inkscape:groupmode="layer"
 id="layer6"
 inkscape:label="Background_2"
 style="display:inline">
<rect
 y="-1.19209e-06"
 x="0"
 height="512"
 width="1028.25"
 id="rect4049"
 style="fill:url(#linearGradient4051);fill-opacity:1;fill-rule:nonzero;stroke:none" />
<path
 style="fill:#a3c3dc;fill-opacity:1;fill-rule:nonzero;stroke:none"
 d="M 1035.88,147.094 C 1022.43,147.094 1010.79,154.79 1004.97,166.063 1000.15,163.524 994.68,162.094 988.875,162.094 979.847,162.094 971.631,165.554 965.438,171.25 962.135,168.641 957.983,167.094 953.469,167.094 949.582,167.094 945.977,168.234 942.938,170.219 937.088,165.732 929.781,163.094 921.875,163.094 912.815,163.094 904.576,166.581 898.375,172.313 892.429,161.452 881.014,154.094 867.875,154.094 856.652,154.094 846.692,159.448 840.312,167.781 834.569,163.571 827.509,161.094 819.875,161.094 806.295,161.094 794.541,168.942 788.781,180.406 783.135,176.424 776.279,174.094 768.875,174.094 768.165,174.094 767.449,174.114 766.75,174.156 760.386,165.602 750.271,160.094 738.875,160.094 724.289,160.094 711.8,169.137 706.594,182 706.192,181.7 705.789,181.377 705.375,181.094 699.809,177.289 693.098,175.094 685.875,175.094 679.597,175.094 673.714,176.781 668.625,179.719 666.006,172.354 659.055,167.094 650.875,167.094 646.878,167.094 643.177,168.355 640.125,170.5 637.201,163.782 630.595,159.094 622.875,159.094 616.034,159.094 610.06,162.768 606.75,168.281 603.3,164.485 598.373,162.094 592.875,162.094 583.93,162.094 576.446,168.392 574.5,176.844 572.034,176.333 569.49,176.094 566.875,176.094 557.572,176.094 549.062,179.494 542.469,185.125 539.268,182.596 535.251,181.094 530.875,181.094 525.875,181.094 521.346,183.07 517.969,186.281 511.749,181.752 504.123,179.094 495.875,179.094 491.803,179.094 487.864,179.734 484.188,180.938 479.179,176.071 472.367,173.094 464.875,173.094 458.392,173.094 452.422,175.338 447.688,179.094 443.642,170.236 434.808,164.094 424.531,164.094 416.674,164.094 409.619,167.661 404.938,173.313 402.102,172.51 399.119,172.094 396.031,172.094 387.844,172.094 380.333,175.101 374.562,180.094 371.529,172.461 364.159,167.094 355.531,167.094 348.793,167.094 342.835,170.394 339.094,175.469 334.163,172.847 328.55,171.344 322.594,171.344 310.93,171.344 300.601,177.028 294.125,185.813 288.504,182.038 281.783,179.844 274.531,179.844 270.181,179.844 266.009,180.645 262.156,182.094 257.44,174.768 249.254,169.938 239.969,169.938 229.425,169.938 220.338,176.184 216.094,185.219 211.287,178.54 203.509,174.188 194.719,174.188 183.183,174.188 173.392,181.668 169.781,192.094 164.983,187.142 158.27,184.094 150.875,184.094 149.734,184.094 148.634,184.171 147.531,184.313 146.293,170.702 134.961,160.031 121.188,160.031 108.969,160.031 98.6868,168.417 95.6562,179.813 90.6102,177.127 84.8472,175.594 78.75,175.594 62.1989,175.594 48.2623,186.808 43.875,202.125 38.381,198.747 31.9298,196.813 25.0312,196.813 4.96288,196.813 -11.3125,213.255 -11.3125,233.562 -11.3125,253.87 4.96288,270.344 25.0312,270.344 41.5823,270.344 55.519,259.129 59.9062,243.812 65.4003,247.191 71.8515,249.125 78.75,249.125 98.6721,249.125 114.859,232.915 115.094,212.812 117.055,213.282 119.084,213.531 121.188,213.531 122.328,213.531 123.46,213.454 124.562,213.312 125.8,226.923 137.101,237.594 150.875,237.594 162.419,237.594 172.24,230.094 175.844,219.656 180.642,224.608 187.324,227.688 194.719,227.688 205.262,227.688 214.38,221.441 218.625,212.406 223.403,219.045 231.087,223.386 239.812,223.438 243.28,239.61 257.51,251.719 274.531,251.719 286.18,251.719 296.522,246.046 303,237.281 308.618,241.05 315.348,243.25 322.594,243.25 329.885,243.25 336.673,241.001 342.312,237.188 348.334,248.372 360.059,255.969 373.531,255.969 386.749,255.969 398.258,248.651 404.375,237.812 408.143,236.819 411.632,235.179 414.75,233 420.274,243.64 431.33,250.906 444.031,250.906 452.801,250.906 460.743,247.425 466.656,241.781 473.603,250.299 484.109,255.719 495.875,255.719 512.743,255.719 527.005,244.577 531.906,229.156 537.619,242.995 551.127,252.719 566.875,252.719 580.482,252.719 592.385,245.464 599.062,234.562 605.61,246.022 617.853,253.719 631.875,253.719 644.837,253.719 656.266,247.143 663.094,237.094 669.205,242.434 677.167,245.656 685.875,245.656 700.449,245.656 712.912,236.596 718.125,223.75 723.922,228.096 731.106,230.656 738.875,230.656 739.604,230.656 740.314,230.638 741.031,230.594 747.397,239.128 757.494,244.656 768.875,244.656 782.45,244.656 794.206,236.8 799.969,225.344 805.328,229.12 811.777,231.403 818.75,231.625 822.061,247.628 836.076,259.656 852.875,259.656 860.082,259.656 866.785,257.446 872.344,253.656 878.656,262.722 889.083,268.656 900.875,268.656 911.765,268.656 921.48,263.6 927.875,255.688 934.27,263.6 943.985,268.656 954.875,268.656 967.5,268.656 978.535,261.853 984.656,251.688 990.824,257.267 998.951,260.656 1007.88,260.656 1027.14,260.656 1042.75,244.865 1042.75,225.375 1042.75,222.543 1042.4,219.795 1041.78,217.156 1058.23,214.318 1070.75,199.828 1070.75,182.375 1070.75,162.885 1055.14,147.094 1035.88,147.094 z"
 id="path4059"
 inkscape:connector-curvature="0" />
<path
 style="fill:#b6daf6;fill-opacity:1;fill-rule:nonzero;stroke:none"
 d="M 213.781,194.469 C 204.103,194.469 195.62,199.608 190.844,207.344 186.253,203.705 180.471,201.531 174.188,201.531 164.737,201.531 156.427,206.442 151.594,213.875 145.138,207.139 136.099,202.937 126.094,202.938 112.711,202.938 101.088,210.438 95.0312,221.5 89.9749,218.7 84.2019,217.094 78.0312,217.094 64.3594,217.094 52.5008,224.918 46.5625,236.375 40.4676,231.399 32.7226,228.406 24.2812,228.406 4.66314,228.406 -11.25,244.492 -11.25,264.344 -11.25,284.195 4.66314,300.281 24.2812,300.281 37.9468,300.281 49.809,292.48 55.75,281.031 61.8443,286.006 69.5915,288.969 78.0312,288.969 91.3963,288.969 103.031,281.507 109.094,270.469 114.141,273.257 119.938,274.844 126.094,274.844 128.993,274.844 131.803,274.475 134.5,273.812 138.918,276.994 144.32,278.875 150.156,278.875 159.634,278.875 167.954,273.938 172.781,266.469 176.537,277.012 186.506,284.531 198.219,284.531 208.646,284.531 217.708,278.563 222.219,269.812 227.168,276.192 234.832,280.281 243.469,280.281 245.658,280.281 247.806,280.028 249.844,279.531 254.035,289.147 263.541,295.844 274.594,295.844 285.326,295.844 294.602,289.513 298.969,280.344 304.893,290.469 315.779,297.25 328.25,297.25 344.909,297.25 358.756,285.155 361.688,269.156 366.61,275.918 374.564,280.281 383.5,280.281 391.955,280.281 399.48,276.369 404.438,270.219 408.285,273.354 413.175,275.25 418.5,275.25 422.373,275.25 426.008,274.248 429.188,272.5 433.214,276.38 438.657,278.781 444.656,278.781 453.291,278.781 460.779,273.828 464.531,266.594 468.641,271.854 474.984,275.219 482.125,275.219 487.022,275.219 491.561,273.632 495.25,270.938 499.238,275.711 505.183,278.781 511.844,278.781 520.174,278.781 527.412,274.023 531.062,267.062 533.422,276.63 541.97,283.719 552.156,283.719 562.574,283.719 571.252,276.305 573.375,266.406 573.73,266.001 574.05,265.556 574.375,265.125 578.023,267.926 582.567,269.562 587.5,269.562 596.14,269.562 603.587,264.481 607.094,257.094 611.001,260.89 616.312,263.219 622.156,263.219 627.896,263.219 633.114,260.959 637,257.281 640.948,261.375 646.463,263.906 652.562,263.906 659.635,263.906 665.904,260.51 669.875,255.219 671.815,256.144 673.963,256.688 676.25,256.688 679.601,256.688 682.689,255.564 685.188,253.688 687.06,259.925 692.786,264.469 699.562,264.469 707.86,264.469 714.594,257.646 714.594,249.25 714.594,248.854 714.561,248.483 714.531,248.094 716.052,248.618 717.679,248.906 719.375,248.906 719.894,248.906 720.401,248.896 720.906,248.844 723.51,248.576 725.931,247.626 727.969,246.188 730.383,249.96 734.415,252.585 739.062,253.062 739.902,263.804 748.795,272.25 759.625,272.25 766.66,272.25 772.874,268.693 776.594,263.25 781.459,270.882 789.92,275.938 799.562,275.938 800.216,275.938 800.858,275.921 801.5,275.875 805.777,285.5 815.333,292.219 826.438,292.219 832.513,292.219 838.118,290.206 842.656,286.812 847.003,296.262 856.458,302.812 867.438,302.812 879.064,302.812 888.987,295.449 892.938,285.094 897.86,289.934 904.594,292.906 912,292.906 920.153,292.906 927.461,289.291 932.469,283.562 937.45,288.879 944.501,292.219 952.312,292.219 960.788,292.219 968.33,288.284 973.344,282.156 977.352,284.49 981.982,285.844 986.938,285.844 998.103,285.844 1007.7,279.053 1011.94,269.344 1015.68,271.294 1019.94,272.406 1024.44,272.406 1039.53,272.406 1051.75,260.025 1051.75,244.75 1051.75,229.475 1039.53,217.094 1024.44,217.094 1013.26,217.094 1003.64,223.869 999.406,233.594 995.665,231.647 991.434,230.531 986.938,230.531 983.685,230.531 980.581,231.101 977.688,232.156 974.823,227.76 969.906,224.875 964.312,224.875 956.816,224.875 950.559,230.087 948.812,237.125 942.072,237.992 936.096,241.319 931.812,246.219 926.832,240.907 919.807,237.594 912,237.594 905.647,237.594 899.797,239.79 895.156,243.469 892.528,241.558 889.327,240.438 885.844,240.438 880.162,240.438 875.187,243.424 872.344,247.938 870.755,247.647 869.109,247.5 867.438,247.5 861.361,247.5 855.757,249.512 851.219,252.906 846.874,243.452 837.42,236.875 826.438,236.875 825.788,236.875 825.138,236.924 824.5,236.969 820.225,227.338 810.672,220.625 799.562,220.625 788.419,220.625 778.849,227.385 774.594,237.062 770.836,233.038 765.528,230.531 759.625,230.531 757.714,230.531 755.85,230.789 754.094,231.281 751.65,226.234 746.523,222.75 740.594,222.75 737.402,222.75 734.434,223.751 732,225.469 729.323,221.286 724.666,218.5 719.375,218.5 711.077,218.5 704.344,225.322 704.344,233.719 704.344,234.115 704.377,234.487 704.406,234.875 702.888,234.353 701.256,234.062 699.562,234.062 696.196,234.062 693.13,235.201 690.625,237.094 688.761,230.842 683.036,226.281 676.25,226.281 673.771,226.281 671.436,226.892 669.375,227.969 665.388,223.059 659.333,219.906 652.562,219.906 646.825,219.906 641.604,222.169 637.719,225.844 633.77,221.75 628.256,219.219 622.156,219.219 613.526,219.219 606.074,224.314 602.562,231.688 598.656,227.897 593.34,225.562 587.5,225.562 580.442,225.562 574.159,228.977 570.188,234.25 566.545,231.465 562.011,229.812 557.094,229.812 556.172,229.812 555.267,229.887 554.375,230 550.442,224.335 543.956,220.625 536.594,220.625 527.169,220.625 519.141,226.701 516.125,235.188 514.74,234.907 513.311,234.781 511.844,234.781 507.366,234.781 503.209,236.152 499.75,238.5 495.641,233.224 489.279,229.812 482.125,229.812 473.484,229.812 465.999,234.756 462.25,242 458.14,236.74 451.797,233.344 444.656,233.344 440.783,233.344 437.148,234.346 433.969,236.094 429.942,232.209 424.503,229.812 418.5,229.812 412.991,229.812 407.937,231.823 404.031,235.156 399.073,229.292 391.725,225.562 383.5,225.562 382.014,225.562 380.546,225.704 379.125,225.938 376.411,221.872 371.807,219.219 366.594,219.219 366.094,219.219 365.613,219.233 365.125,219.281 360.645,210.437 351.559,204.375 341.062,204.375 328.42,204.375 317.802,213.137 314.844,225 309.959,220.104 303.231,217.094 295.812,217.094 289.28,217.094 283.298,219.441 278.625,223.344 276.767,222.517 274.723,222.031 272.562,222.031 271.176,222.031 269.838,222.24 268.562,222.594 264.879,217.628 259.014,214.406 252.406,214.406 247.985,214.406 243.919,215.874 240.594,218.312 238.889,204.863 227.536,194.469 213.781,194.469 z"
 id="path4079"
 inkscape:connector-curvature="0" />
<path
 style="fill:#007847;fill-opacity:1;fill-rule:nonzero;stroke:#005d37;stroke-width:6;stroke-miterlimit:4;stroke-opacity:1;stroke-dasharray:none;display:inline"
 d="M 253.781,261.094 C 214.022,261.094 180.326,287.061 168.594,323 160.501,325.35 153.298,329.779 147.594,335.688 142.148,334.651 136.528,334.094 130.781,334.094 107.138,334.094 85.6414,343.282 69.625,358.281 65.8549,356.253 61.5466,355.094 56.9688,355.094 47.608,355.094 39.3585,359.897 34.5625,367.188 25.243,363.896 15.2236,362.094 4.78125,362.094 -44.723,362.094 -84.8438,402.325 -84.8438,451.969 -84.8438,501.613 -44.723,541.875 4.78125,541.875 27.1336,541.875 47.5822,533.664 63.2812,520.094 68.8986,550.253 95.2646,573.094 126.969,573.094 156.976,573.094 182.184,552.636 189.562,524.875 205.983,545.588 231.344,558.875 259.781,558.875 284.17,558.875 306.277,549.098 322.438,533.25 329.943,560.819 355.097,581.094 384.969,581.094 414.018,581.094 438.577,561.909 446.812,535.5 461.652,546.419 479.964,552.875 499.781,552.875 527.983,552.875 553.131,539.794 569.562,519.375 585.682,543.213 612.897,558.875 643.781,558.875 666.245,558.875 686.77,550.566 702.5,536.875 714.381,551.637 732.578,561.094 752.969,561.094 772.177,561.094 789.413,552.687 801.281,539.375 817.583,556.321 840.447,566.875 865.781,566.875 901.289,566.875 931.987,546.151 946.5,516.125 962.033,529.083 981.996,536.875 1003.78,536.875 1053.29,536.875 1093.41,496.613 1093.41,446.969 1093.41,397.325 1053.29,357.094 1003.78,357.094 968.26,357.094 937.569,377.799 923.062,407.844 907.531,394.892 887.56,387.094 865.781,387.094 855.642,387.094 845.901,388.795 836.812,391.906 832.371,387.005 826.134,383.757 819.156,383.188 804.154,354.593 774.239,335.094 739.781,335.094 714.24,335.094 691.202,345.81 674.875,363 670.821,360.53 666.059,359.094 660.969,359.094 648.376,359.094 637.816,367.793 634.938,379.531 618.173,381.179 602.765,387.445 590,397.062 585.141,392.142 578.42,389.094 570.969,389.094 565.636,389.094 560.676,390.684 556.5,393.375 541.051,380.703 521.297,373.094 499.781,373.094 495.946,373.094 492.178,373.344 488.469,373.812 482.526,358.32 468.811,346.709 452.094,343.812 436.304,318.177 408.034,301.094 375.781,301.094 360.793,301.094 346.666,304.791 334.25,311.312 319.637,281.561 289.088,261.094 253.781,261.094 z"
 id="path3935"
 inkscape:connector-curvature="0" />
<rect
 style="fill:url(#linearGradient3933);fill-opacity:1;fill-rule:nonzero;stroke:none"
 id="rect3917"
 width="1057.83"
 height="311.126"
 x="-33.9412"
 y="717.061" />
<path
 transform="matrix(1.08345,0,0,1.01697,-55.4016,438.102)"
 d="M 145.664,456.139 A 82.7315,88.3883 0 1 1 -19.799,456.139 82.7315,88.3883 0 1 1 145.664,456.139 z"
 sodipodi:ry="88.3883"
 sodipodi:rx="82.7315"
 sodipodi:cy="456.139"
 sodipodi:cx="62.9325"
 id="path4006"
 style="fill:#007745;fill-opacity:1;fill-rule:nonzero;stroke:none;display:inline"
 sodipodi:type="arc" />
<path
 sodipodi:type="arc"
 style="fill:#007745;fill-opacity:1;fill-rule:nonzero;stroke:none;display:inline"
 id="path4008"
 sodipodi:cx="62.9325"
 sodipodi:cy="456.139"
 sodipodi:rx="82.7315"
 sodipodi:ry="88.3883"
 d="M 145.664,456.139 A 82.7315,88.3883 0 1 1 -19.799,456.139 82.7315,88.3883 0 1 1 145.664,456.139 z"
 transform="matrix(1.08345,0,0,1.01697,70.5984,410.102)" />
<path
 transform="matrix(1.08345,0,0,1.01697,193.598,337.102)"
 d="M 145.664,456.139 A 82.7315,88.3883 0 1 1 -19.799,456.139 82.7315,88.3883 0 1 1 145.664,456.139 z"
 sodipodi:ry="88.3883"
 sodipodi:rx="82.7315"
 sodipodi:cy="456.139"
 sodipodi:cx="62.9325"
 id="path4010"
 style="fill:#007745;fill-opacity:1;fill-rule:nonzero;stroke:none;display:inline"
 sodipodi:type="arc" />
<path
 sodipodi:type="arc"
 style="fill:#007745;fill-opacity:1;fill-rule:nonzero;stroke:none;display:inline"
 id="path4012"
 sodipodi:cx="62.9325"
 sodipodi:cy="456.139"
 sodipodi:rx="82.7315"
 sodipodi:ry="88.3883"
 d="M 145.664,456.139 A 82.7315,88.3883 0 1 1 -19.799,456.139 82.7315,88.3883 0 1 1 145.664,456.139 z"
 transform="matrix(1.08345,0,0,1.01697,199.598,455.102)" />
<path
 transform="matrix(1.08345,0,0,1.01697,315.598,377.102)"
 d="M 145.664,456.139 A 82.7315,88.3883 0 1 1 -19.799,456.139 82.7315,88.3883 0 1 1 145.664,456.139 z"
 sodipodi:ry="88.3883"
 sodipodi:rx="82.7315"
 sodipodi:cy="456.139"
 sodipodi:cx="62.9325"
 id="path4014"
 style="fill:#007745;fill-opacity:1;fill-rule:nonzero;stroke:none;display:inline"
 sodipodi:type="arc" />
<path
 sodipodi:type="arc"
 style="fill:#007745;fill-opacity:1;fill-rule:nonzero;stroke:none;display:inline"
 id="path4016"
 sodipodi:cx="62.9325"
 sodipodi:cy="456.139"
 sodipodi:rx="82.7315"
 sodipodi:ry="88.3883"
 d="M 145.664,456.139 A 82.7315,88.3883 0 1 1 -19.799,456.139 82.7315,88.3883 0 1 1 145.664,456.139 z"
 transform="matrix(1.08345,0,0,1.01697,583.598,455.102)" />
<path
 transform="matrix(1.08345,0,0,1.01697,679.598,411.102)"
 d="M 145.664,456.139 A 82.7315,88.3883 0 1 1 -19.799,456.139 82.7315,88.3883 0 1 1 145.664,456.139 z"
 sodipodi:ry="88.3883"
 sodipodi:rx="82.7315"
 sodipodi:cy="456.139"
 sodipodi:cx="62.9325"
 id="path4018"
 style="fill:#007745;fill-opacity:1;fill-rule:nonzero;stroke:none;display:inline"
 sodipodi:type="arc" />
<path
 sodipodi:type="arc"
 style="fill:#007745;fill-opacity:1;fill-rule:nonzero;stroke:none;display:inline"
 id="path4020"
 sodipodi:cx="62.9325"
 sodipodi:cy="456.139"
 sodipodi:rx="82.7315"
 sodipodi:ry="88.3883"
 d="M 145.664,456.139 A 82.7315,88.3883 0 1 1 -19.799,456.139 82.7315,88.3883 0 1 1 145.664,456.139 z"
 transform="matrix(1.08345,0,0,1.01697,805.598,463.102)" />
<path
 transform="matrix(1.08345,0,0,1.01697,943.598,433.102)"
 d="M 145.664,456.139 A 82.7315,88.3883 0 1 1 -19.799,456.139 82.7315,88.3883 0 1 1 145.664,456.139 z"
 sodipodi:ry="88.3883"
 sodipodi:rx="82.7315"
 sodipodi:cy="456.139"
 sodipodi:cx="62.9325"
 id="path4022"
 style="fill:#007745;fill-opacity:1;fill-rule:nonzero;stroke:none;display:inline"
 sodipodi:type="arc" />
<path
 sodipodi:type="arc"
 style="fill:#007745;fill-opacity:1;fill-rule:nonzero;stroke:none;display:inline"
 id="path4024"
 sodipodi:cx="62.9325"
 sodipodi:cy="456.139"
 sodipodi:rx="82.7315"
 sodipodi:ry="88.3883"
 d="M 145.664,456.139 A 82.7315,88.3883 0 1 1 -19.799,456.139 82.7315,88.3883 0 1 1 145.664,456.139 z"
 transform="matrix(1.08345,0,0,1.01697,439.598,449.102)" />
<path
 transform="matrix(0.577211,0,0,0.541794,415.575,593.848)"
 d="M 145.664,456.139 A 82.7315,88.3883 0 1 1 -19.799,456.139 82.7315,88.3883 0 1 1 145.664,456.139 z"
 sodipodi:ry="88.3883"
 sodipodi:rx="82.7315"
 sodipodi:cy="456.139"
 sodipodi:cx="62.9325"
 id="path4026"
 style="fill:#007745;fill-opacity:1;fill-rule:nonzero;stroke:none;display:inline"
 sodipodi:type="arc" />
<path
 sodipodi:type="arc"
 style="fill:#007745;fill-opacity:1;fill-rule:nonzero;stroke:none;display:inline"
 id="path4028"
 sodipodi:cx="62.9325"
 sodipodi:cy="456.139"
 sodipodi:rx="82.7315"
 sodipodi:ry="88.3883"
 d="M 145.664,456.139 A 82.7315,88.3883 0 1 1 -19.799,456.139 82.7315,88.3883 0 1 1 145.664,456.139 z"
 transform="matrix(0.577211,0,0,0.541794,153.575,571.848)" />
<path
 transform="matrix(0.324092,0,0,0.304206,44.5635,693.221)"
 d="M 145.664,456.139 A 82.7315,88.3883 0 1 1 -19.799,456.139 82.7315,88.3883 0 1 1 145.664,456.139 z"
 sodipodi:ry="88.3883"
 sodipodi:rx="82.7315"
 sodipodi:cy="456.139"
 sodipodi:cx="62.9325"
 id="path4030"
 style="fill:#007745;fill-opacity:1;fill-rule:nonzero;stroke:none;display:inline"
 sodipodi:type="arc" />
<path
 sodipodi:type="arc"
 style="fill:#007745;fill-opacity:1;fill-rule:nonzero;stroke:none;display:inline"
 id="path4032"
 sodipodi:cx="62.9325"
 sodipodi:cy="456.139"
 sodipodi:rx="82.7315"
 sodipodi:ry="88.3883"
 d="M 145.664,456.139 A 82.7315,88.3883 0 1 1 -19.799,456.139 82.7315,88.3883 0 1 1 145.664,456.139 z"
 transform="matrix(0.324092,0,0,0.304206,558.563,727.221)" />
<path
 transform="matrix(0.324092,0,0,0.304206,648.563,697.221)"
 d="M 145.664,456.139 A 82.7315,88.3883 0 1 1 -19.799,456.139 82.7315,88.3883 0 1 1 145.664,456.139 z"
 sodipodi:ry="88.3883"
 sodipodi:rx="82.7315"
 sodipodi:cy="456.139"
 sodipodi:cx="62.9325"
 id="path4034"
 style="fill:#007745;fill-opacity:1;fill-rule:nonzero;stroke:none;display:inline"
 sodipodi:type="arc" />
<path
 sodipodi:type="arc"
 style="fill:#007745;fill-opacity:1;fill-rule:nonzero;stroke:none;display:inline"
 id="path4036"
 sodipodi:cx="62.9325"
 sodipodi:cy="456.139"
 sodipodi:rx="82.7315"
 sodipodi:ry="88.3883"
 d="M 145.664,456.139 A 82.7315,88.3883 0 1 1 -19.799,456.139 82.7315,88.3883 0 1 1 145.664,456.139 z"
 transform="matrix(0.324092,0,0,0.304206,804.563,721.221)" />
<path
 transform="matrix(0.324092,0,0,0.304206,348.563,803.221)"
 d="M 145.664,456.139 A 82.7315,88.3883 0 1 1 -19.799,456.139 82.7315,88.3883 0 1 1 145.664,456.139 z"
 sodipodi:ry="88.3883"
 sodipodi:rx="82.7315"
 sodipodi:cy="456.139"
 sodipodi:cx="62.9325"
 id="path4038"
 style="fill:#007745;fill-opacity:1;fill-rule:nonzero;stroke:none;display:inline"
 sodipodi:type="arc" />
<path
 sodipodi:type="arc"
 style="fill:#007745;fill-opacity:1;fill-rule:nonzero;stroke:none;display:inline"
 id="path4040"
 sodipodi:cx="62.9325"
 sodipodi:cy="456.139"
 sodipodi:rx="82.7315"
 sodipodi:ry="88.3883"
 d="M 145.664,456.139 A 82.7315,88.3883 0 1 1 -19.799,456.139 82.7315,88.3883 0 1 1 145.664,456.139 z"
 transform="matrix(0.783409,0,0,0.73534,343.657,630.671)" />
<path
 transform="matrix(0.783409,0,0,0.73534,85.657,622.671)"
 d="M 145.664,456.139 A 82.7315,88.3883 0 1 1 -19.799,456.139 82.7315,88.3883 0 1 1 145.664,456.139 z"
 sodipodi:ry="88.3883"
 sodipodi:rx="82.7315"
 sodipodi:cy="456.139"
 sodipodi:cx="62.9325"
 id="path4042"
 style="fill:#007745;fill-opacity:1;fill-rule:nonzero;stroke:none;display:inline"
 sodipodi:type="arc" />
<path
 sodipodi:type="arc"
 style="fill:#007745;fill-opacity:1;fill-rule:nonzero;stroke:none;display:inline"
 id="path4044"
 sodipodi:cx="62.9325"
 sodipodi:cy="456.139"
 sodipodi:rx="82.7315"
 sodipodi:ry="88.3883"
 d="M 145.664,456.139 A 82.7315,88.3883 0 1 1 -19.799,456.139 82.7315,88.3883 0 1 1 145.664,456.139 z"
 transform="matrix(0.783409,0,0,0.73534,711.657,610.671)" />
<path
 transform="matrix(0.611765,0,0,0.611765,-1170.08,823.93)"
 d="M 152.735,-43.0788 A 59.397,60.1041 0 1 1 33.9411,-43.0788 59.397,60.1041 0 1 1 152.735,-43.0788 z"
 sodipodi:ry="60.1041"
 sodipodi:rx="59.397"
 sodipodi:cy="-43.0788"
 sodipodi:cx="93.3381"
 id="path4163"
 style="fill:#a3c3dc;fill-opacity:1;fill-rule:nonzero;stroke:none"
 sodipodi:type="arc" />
<path
 sodipodi:type="arc"
 style="fill:#a3c3dc;fill-opacity:1;fill-rule:nonzero;stroke:none"
 id="path4165"
 sodipodi:cx="93.3381"
 sodipodi:cy="-43.0788"
 sodipodi:rx="59.397"
 sodipodi:ry="60.1041"
 d="M 152.735,-43.0788 A 59.397,60.1041 0 1 1 33.9411,-43.0788 59.397,60.1041 0 1 1 152.735,-43.0788 z"
 transform="matrix(0.611765,0,0,0.611765,-1116.34,802.717)" />
<path
 transform="matrix(0.445098,0,0,0.445098,-1058.35,769.964)"
 d="M 152.735,-43.0788 A 59.397,60.1041 0 1 1 33.9411,-43.0788 59.397,60.1041 0 1 1 152.735,-43.0788 z"
 sodipodi:ry="60.1041"
 sodipodi:rx="59.397"
 sodipodi:cy="-43.0788"
 sodipodi:cx="93.3381"
 id="path4167"
 style="fill:#a3c3dc;fill-opacity:1;fill-rule:nonzero;stroke:none"
 sodipodi:type="arc" />
<path
 sodipodi:type="arc"
 style="fill:#a3c3dc;fill-opacity:1;fill-rule:nonzero;stroke:none"
 id="path4169"
 sodipodi:cx="93.3381"
 sodipodi:cy="-43.0788"
 sodipodi:rx="59.397"
 sodipodi:ry="60.1041"
 d="M 152.735,-43.0788 A 59.397,60.1041 0 1 1 33.9411,-43.0788 59.397,60.1041 0 1 1 152.735,-43.0788 z"
 transform="matrix(0.445098,0,0,0.445098,-1028.66,794.006)" />
<path
 transform="matrix(0.445098,0,0,0.445098,-984.816,784.107)"
 d="M 152.735,-43.0788 A 59.397,60.1041 0 1 1 33.9411,-43.0788 59.397,60.1041 0 1 1 152.735,-43.0788 z"
 sodipodi:ry="60.1041"
 sodipodi:rx="59.397"
 sodipodi:cy="-43.0788"
 sodipodi:cx="93.3381"
 id="path4171"
 style="fill:#a3c3dc;fill-opacity:1;fill-rule:nonzero;stroke:none"
 sodipodi:type="arc" />
<path
 sodipodi:type="arc"
 style="fill:#a3c3dc;fill-opacity:1;fill-rule:nonzero;stroke:none"
 id="path4173"
 sodipodi:cx="93.3381"
 sodipodi:cy="-43.0788"
 sodipodi:rx="59.397"
 sodipodi:ry="60.1041"
 d="M 152.735,-43.0788 A 59.397,60.1041 0 1 1 33.9411,-43.0788 59.397,60.1041 0 1 1 152.735,-43.0788 z"
 transform="matrix(0.445098,0,0,0.445098,-939.561,779.864)" />
<path
 transform="matrix(0.598039,0,0,0.598039,-919.296,805.544)"
 d="M 152.735,-43.0788 A 59.397,60.1041 0 1 1 33.9411,-43.0788 59.397,60.1041 0 1 1 152.735,-43.0788 z"
 sodipodi:ry="60.1041"
 sodipodi:rx="59.397"
 sodipodi:cy="-43.0788"
 sodipodi:cx="93.3381"
 id="path4175"
 style="fill:#a3c3dc;fill-opacity:1;fill-rule:nonzero;stroke:none"
 sodipodi:type="arc" />
<path
 sodipodi:type="arc"
 style="fill:#a3c3dc;fill-opacity:1;fill-rule:nonzero;stroke:none"
 id="path4177"
 sodipodi:cx="93.3381"
 sodipodi:cy="-43.0788"
 sodipodi:rx="59.397"
 sodipodi:ry="60.1041"
 d="M 152.735,-43.0788 A 59.397,60.1041 0 1 1 33.9411,-43.0788 59.397,60.1041 0 1 1 152.735,-43.0788 z"
 transform="matrix(0.598039,0,0,0.598039,-871.213,797.059)" />
<path
 transform="matrix(0.598039,0,0,0.598039,-820.301,809.787)"
 d="M 152.735,-43.0788 A 59.397,60.1041 0 1 1 33.9411,-43.0788 59.397,60.1041 0 1 1 152.735,-43.0788 z"
 sodipodi:ry="60.1041"
 sodipodi:rx="59.397"
 sodipodi:cy="-43.0788"
 sodipodi:cx="93.3381"
 id="path4179"
 style="fill:#a3c3dc;fill-opacity:1;fill-rule:nonzero;stroke:none"
 sodipodi:type="arc" />
<path
 sodipodi:type="arc"
 style="fill:#a3c3dc;fill-opacity:1;fill-rule:nonzero;stroke:none"
 id="path4181"
 sodipodi:cx="93.3381"
 sodipodi:cy="-43.0788"
 sodipodi:rx="59.397"
 sodipodi:ry="60.1041"
 d="M 152.735,-43.0788 A 59.397,60.1041 0 1 1 33.9411,-43.0788 59.397,60.1041 0 1 1 152.735,-43.0788 z"
 transform="matrix(0.345501,0,0,0.345501,-814.73,766.729)" />
<path
 transform="matrix(0.555949,0,0,0.555949,-793.873,793.444)"
 d="M 152.735,-43.0788 A 59.397,60.1041 0 1 1 33.9411,-43.0788 59.397,60.1041 0 1 1 152.735,-43.0788 z"
 sodipodi:ry="60.1041"
 sodipodi:rx="59.397"
 sodipodi:cy="-43.0788"
 sodipodi:cx="93.3381"
 id="path4183"
 style="fill:#a3c3dc;fill-opacity:1;fill-rule:nonzero;stroke:none"
 sodipodi:type="arc" />
<path
 sodipodi:type="arc"
 style="fill:#a3c3dc;fill-opacity:1;fill-rule:nonzero;stroke:none"
 id="path4185"
 sodipodi:cx="93.3381"
 sodipodi:cy="-43.0788"
 sodipodi:rx="59.397"
 sodipodi:ry="60.1041"
 d="M 152.735,-43.0788 A 59.397,60.1041 0 1 1 33.9411,-43.0788 59.397,60.1041 0 1 1 152.735,-43.0788 z"
 transform="matrix(0.555949,0,0,0.555949,-745.873,805.444)" />
<path
 transform="matrix(0.42968,0,0,0.42968,-753.587,772.415)"
 d="M 152.735,-43.0788 A 59.397,60.1041 0 1 1 33.9411,-43.0788 59.397,60.1041 0 1 1 152.735,-43.0788 z"
 sodipodi:ry="60.1041"
 sodipodi:rx="59.397"
 sodipodi:cy="-43.0788"
 sodipodi:cx="93.3381"
 id="path4187"
 style="fill:#a3c3dc;fill-opacity:1;fill-rule:nonzero;stroke:none"
 sodipodi:type="arc" />
<path
 sodipodi:type="arc"
 style="fill:#a3c3dc;fill-opacity:1;fill-rule:nonzero;stroke:none"
 id="path4189"
 sodipodi:cx="93.3381"
 sodipodi:cy="-43.0788"
 sodipodi:rx="59.397"
 sodipodi:ry="60.1041"
 d="M 152.735,-43.0788 A 59.397,60.1041 0 1 1 33.9411,-43.0788 59.397,60.1041 0 1 1 152.735,-43.0788 z"
 transform="matrix(0.637653,0,0,0.637653,-701.646,808.874)" />
<path
 transform="matrix(0.637653,0,0,0.637653,-630.646,805.874)"
 d="M 152.735,-43.0788 A 59.397,60.1041 0 1 1 33.9411,-43.0788 59.397,60.1041 0 1 1 152.735,-43.0788 z"
 sodipodi:ry="60.1041"
 sodipodi:rx="59.397"
 sodipodi:cy="-43.0788"
 sodipodi:cx="93.3381"
 id="path4191"
 style="fill:#a3c3dc;fill-opacity:1;fill-rule:nonzero;stroke:none"
 sodipodi:type="arc" />
<path
 sodipodi:type="arc"
 style="fill:#a3c3dc;fill-opacity:1;fill-rule:nonzero;stroke:none"
 id="path4193"
 sodipodi:cx="93.3381"
 sodipodi:cy="-43.0788"
 sodipodi:rx="59.397"
 sodipodi:ry="60.1041"
 d="M 152.735,-43.0788 A 59.397,60.1041 0 1 1 33.9411,-43.0788 59.397,60.1041 0 1 1 152.735,-43.0788 z"
 transform="matrix(0.637653,0,0,0.637653,-565.646,806.874)" />
<path
 transform="matrix(0.469294,0,0,0.469294,-716.932,785.502)"
 d="M 152.735,-43.0788 A 59.397,60.1041 0 1 1 33.9411,-43.0788 59.397,60.1041 0 1 1 152.735,-43.0788 z"
 sodipodi:ry="60.1041"
 sodipodi:rx="59.397"
 sodipodi:cy="-43.0788"
 sodipodi:cx="93.3381"
 id="path4195"
 style="fill:#a3c3dc;fill-opacity:1;fill-rule:nonzero;stroke:none"
 sodipodi:type="arc" />
<path
 sodipodi:type="arc"
 style="fill:#a3c3dc;fill-opacity:1;fill-rule:nonzero;stroke:none"
 id="path4197"
 sodipodi:cx="93.3381"
 sodipodi:cy="-43.0788"
 sodipodi:rx="59.397"
 sodipodi:ry="60.1041"
 d="M 152.735,-43.0788 A 59.397,60.1041 0 1 1 33.9411,-43.0788 59.397,60.1041 0 1 1 152.735,-43.0788 z"
 transform="matrix(0.317771,0,0,0.317771,-636.789,777.867)" />
<path
 transform="matrix(0.317771,0,0,0.317771,-574.789,758.867)"
 d="M 152.735,-43.0788 A 59.397,60.1041 0 1 1 33.9411,-43.0788 59.397,60.1041 0 1 1 152.735,-43.0788 z"
 sodipodi:ry="60.1041"
 sodipodi:rx="59.397"
 sodipodi:cy="-43.0788"
 sodipodi:cx="93.3381"
 id="path4199"
 style="fill:#a3c3dc;fill-opacity:1;fill-rule:nonzero;stroke:none"
 sodipodi:type="arc" />
<path
 sodipodi:type="arc"
 style="fill:#a3c3dc;fill-opacity:1;fill-rule:nonzero;stroke:none"
 id="path4201"
 sodipodi:cx="93.3381"
 sodipodi:cy="-43.0788"
 sodipodi:rx="59.397"
 sodipodi:ry="60.1041"
 d="M 152.735,-43.0788 A 59.397,60.1041 0 1 1 33.9411,-43.0788 59.397,60.1041 0 1 1 152.735,-43.0788 z"
 transform="matrix(0.317771,0,0,0.317771,-544.789,755.867)" />
<path
 transform="matrix(0.317771,0,0,0.317771,-516.789,763.867)"
 d="M 152.735,-43.0788 A 59.397,60.1041 0 1 1 33.9411,-43.0788 59.397,60.1041 0 1 1 152.735,-43.0788 z"
 sodipodi:ry="60.1041"
 sodipodi:rx="59.397"
 sodipodi:cy="-43.0788"
 sodipodi:cx="93.3381"
 id="path4203"
 style="fill:#a3c3dc;fill-opacity:1;fill-rule:nonzero;stroke:none"
 sodipodi:type="arc" />
<path
 sodipodi:type="arc"
 style="fill:#a3c3dc;fill-opacity:1;fill-rule:nonzero;stroke:none"
 id="path4205"
 sodipodi:cx="93.3381"
 sodipodi:cy="-43.0788"
 sodipodi:rx="59.397"
 sodipodi:ry="60.1041"
 d="M 152.735,-43.0788 A 59.397,60.1041 0 1 1 33.9411,-43.0788 59.397,60.1041 0 1 1 152.735,-43.0788 z"
 transform="matrix(0.587145,0,0,0.587145,-506.932,799.662)" />
<path
 transform="matrix(0.587145,0,0,0.587145,-506.932,799.662)"
 d="M 152.735,-43.0788 A 59.397,60.1041 0 1 1 33.9411,-43.0788 59.397,60.1041 0 1 1 152.735,-43.0788 z"
 sodipodi:ry="60.1041"
 sodipodi:rx="59.397"
 sodipodi:cy="-43.0788"
 sodipodi:cx="93.3381"
 id="path4207"
 style="fill:#a3c3dc;fill-opacity:1;fill-rule:nonzero;stroke:none"
 sodipodi:type="arc" />
<path
 sodipodi:type="arc"
 style="fill:#a3c3dc;fill-opacity:1;fill-rule:nonzero;stroke:none"
 id="path4209"
 sodipodi:cx="93.3381"
 sodipodi:cy="-43.0788"
 sodipodi:rx="59.397"
 sodipodi:ry="60.1041"
 d="M 152.735,-43.0788 A 59.397,60.1041 0 1 1 33.9411,-43.0788 59.397,60.1041 0 1 1 152.735,-43.0788 z"
 transform="matrix(0.587145,0,0,0.587145,-453.932,784.662)" />
<path
 transform="matrix(0.587145,0,0,0.587145,-423.932,798.662)"
 d="M 152.735,-43.0788 A 59.397,60.1041 0 1 1 33.9411,-43.0788 59.397,60.1041 0 1 1 152.735,-43.0788 z"
 sodipodi:ry="60.1041"
 sodipodi:rx="59.397"
 sodipodi:cy="-43.0788"
 sodipodi:cx="93.3381"
 id="path4211"
 style="fill:#a3c3dc;fill-opacity:1;fill-rule:nonzero;stroke:none"
 sodipodi:type="arc" />
<path
 sodipodi:type="arc"
 style="fill:#a3c3dc;fill-opacity:1;fill-rule:nonzero;stroke:none"
 id="path4213"
 sodipodi:cx="93.3381"
 sodipodi:cy="-43.0788"
 sodipodi:rx="59.397"
 sodipodi:ry="60.1041"
 d="M 152.735,-43.0788 A 59.397,60.1041 0 1 1 33.9411,-43.0788 59.397,60.1041 0 1 1 152.735,-43.0788 z"
 transform="matrix(0.587145,0,0,0.587145,-372.932,785.662)" />
<path
 transform="matrix(0.587145,0,0,0.587145,-339.932,813.662)"
 d="M 152.735,-43.0788 A 59.397,60.1041 0 1 1 33.9411,-43.0788 59.397,60.1041 0 1 1 152.735,-43.0788 z"
 sodipodi:ry="60.1041"
 sodipodi:rx="59.397"
 sodipodi:cy="-43.0788"
 sodipodi:cx="93.3381"
 id="path4215"
 style="fill:#a3c3dc;fill-opacity:1;fill-rule:nonzero;stroke:none"
 sodipodi:type="arc" />
<path
 sodipodi:type="arc"
 style="fill:#a3c3dc;fill-opacity:1;fill-rule:nonzero;stroke:none"
 id="path4217"
 sodipodi:cx="93.3381"
 sodipodi:cy="-43.0788"
 sodipodi:rx="59.397"
 sodipodi:ry="60.1041"
 d="M 152.735,-43.0788 A 59.397,60.1041 0 1 1 33.9411,-43.0788 59.397,60.1041 0 1 1 152.735,-43.0788 z"
 transform="matrix(0.587145,0,0,0.587145,-324.932,778.662)" />
<path
 transform="matrix(0.587145,0,0,0.587145,-291.932,822.662)"
 d="M 152.735,-43.0788 A 59.397,60.1041 0 1 1 33.9411,-43.0788 59.397,60.1041 0 1 1 152.735,-43.0788 z"
 sodipodi:ry="60.1041"
 sodipodi:rx="59.397"
 sodipodi:cy="-43.0788"
 sodipodi:cx="93.3381"
 id="path4219"
 style="fill:#a3c3dc;fill-opacity:1;fill-rule:nonzero;stroke:none"
 sodipodi:type="arc" />
<path
 sodipodi:type="arc"
 style="fill:#a3c3dc;fill-opacity:1;fill-rule:nonzero;stroke:none"
 id="path4221"
 sodipodi:cx="93.3381"
 sodipodi:cy="-43.0788"
 sodipodi:rx="59.397"
 sodipodi:ry="60.1041"
 d="M 152.735,-43.0788 A 59.397,60.1041 0 1 1 33.9411,-43.0788 59.397,60.1041 0 1 1 152.735,-43.0788 z"
 transform="matrix(0.587145,0,0,0.587145,-270.932,787.662)" />
<path
 transform="matrix(0.587145,0,0,0.587145,-237.932,822.662)"
 d="M 152.735,-43.0788 A 59.397,60.1041 0 1 1 33.9411,-43.0788 59.397,60.1041 0 1 1 152.735,-43.0788 z"
 sodipodi:ry="60.1041"
 sodipodi:rx="59.397"
 sodipodi:cy="-43.0788"
 sodipodi:cx="93.3381"
 id="path4223"
 style="fill:#a3c3dc;fill-opacity:1;fill-rule:nonzero;stroke:none"
 sodipodi:type="arc" />
<path
 sodipodi:type="arc"
 style="fill:#a3c3dc;fill-opacity:1;fill-rule:nonzero;stroke:none"
 id="path4225"
 sodipodi:cx="93.3381"
 sodipodi:cy="-43.0788"
 sodipodi:rx="59.397"
 sodipodi:ry="60.1041"
 d="M 152.735,-43.0788 A 59.397,60.1041 0 1 1 33.9411,-43.0788 59.397,60.1041 0 1 1 152.735,-43.0788 z"
 transform="matrix(0.587145,0,0,0.587145,-203.932,786.662)" />
<path
 transform="matrix(0.587145,0,0,0.587145,-184.932,814.662)"
 d="M 152.735,-43.0788 A 59.397,60.1041 0 1 1 33.9411,-43.0788 59.397,60.1041 0 1 1 152.735,-43.0788 z"
 sodipodi:ry="60.1041"
 sodipodi:rx="59.397"
 sodipodi:cy="-43.0788"
 sodipodi:cx="93.3381"
 id="path4227"
 style="fill:#a3c3dc;fill-opacity:1;fill-rule:nonzero;stroke:none"
 sodipodi:type="arc" />
<path
 sodipodi:type="arc"
 style="fill:#a3c3dc;fill-opacity:1;fill-rule:nonzero;stroke:none"
 id="path4229"
 sodipodi:cx="93.3381"
 sodipodi:cy="-43.0788"
 sodipodi:rx="59.397"
 sodipodi:ry="60.1041"
 d="M 152.735,-43.0788 A 59.397,60.1041 0 1 1 33.9411,-43.0788 59.397,60.1041 0 1 1 152.735,-43.0788 z"
 transform="matrix(0.587145,0,0,0.587145,-156.932,771.662)" />
<path
 transform="matrix(0.327873,0,0,0.327873,-215.132,764.91)"
 d="M 152.735,-43.0788 A 59.397,60.1041 0 1 1 33.9411,-43.0788 59.397,60.1041 0 1 1 152.735,-43.0788 z"
 sodipodi:ry="60.1041"
 sodipodi:rx="59.397"
 sodipodi:cy="-43.0788"
 sodipodi:cx="93.3381"
 id="path4231"
 style="fill:#a3c3dc;fill-opacity:1;fill-rule:nonzero;stroke:none"
 sodipodi:type="arc" />
<path
 sodipodi:type="arc"
 style="fill:#b6daf6;fill-opacity:1;fill-rule:nonzero;stroke:none"
 id="path4288"
 sodipodi:cx="93.3381"
 sodipodi:cy="-43.0788"
 sodipodi:rx="59.397"
 sodipodi:ry="60.1041"
 d="M 152.735,-43.0788 A 59.397,60.1041 0 1 1 33.9411,-43.0788 59.397,60.1041 0 1 1 152.735,-43.0788 z"
 transform="matrix(0.598039,0,0,0.598039,-1165.74,948.96)" />
<path
 transform="matrix(0.598039,0,0,0.598039,-1112,937.646)"
 d="M 152.735,-43.0788 A 59.397,60.1041 0 1 1 33.9411,-43.0788 59.397,60.1041 0 1 1 152.735,-43.0788 z"
 sodipodi:ry="60.1041"
 sodipodi:rx="59.397"
 sodipodi:cy="-43.0788"
 sodipodi:cx="93.3381"
 id="path4290"
 style="fill:#b6daf6;fill-opacity:1;fill-rule:nonzero;stroke:none"
 sodipodi:type="arc" />
<path
 sodipodi:type="arc"
 style="fill:#b6daf6;fill-opacity:1;fill-rule:nonzero;stroke:none"
 id="path4292"
 sodipodi:cx="93.3381"
 sodipodi:cy="-43.0788"
 sodipodi:rx="59.397"
 sodipodi:ry="60.1041"
 d="M 152.735,-43.0788 A 59.397,60.1041 0 1 1 33.9411,-43.0788 59.397,60.1041 0 1 1 152.735,-43.0788 z"
 transform="matrix(0.598039,0,0,0.598039,-1063.92,923.504)" />
<path
 transform="matrix(0.455182,0,0,0.455182,-1026.54,929.977)"
 d="M 152.735,-43.0788 A 59.397,60.1041 0 1 1 33.9411,-43.0788 59.397,60.1041 0 1 1 152.735,-43.0788 z"
 sodipodi:ry="60.1041"
 sodipodi:rx="59.397"
 sodipodi:cy="-43.0788"
 sodipodi:cx="93.3381"
 id="path4294"
 style="fill:#b6daf6;fill-opacity:1;fill-rule:nonzero;stroke:none"
 sodipodi:type="arc" />
<path
 sodipodi:type="arc"
 style="fill:#b6daf6;fill-opacity:1;fill-rule:nonzero;stroke:none"
 id="path4296"
 sodipodi:cx="93.3381"
 sodipodi:cy="-43.0788"
 sodipodi:rx="59.397"
 sodipodi:ry="60.1041"
 d="M 152.735,-43.0788 A 59.397,60.1041 0 1 1 33.9411,-43.0788 59.397,60.1041 0 1 1 152.735,-43.0788 z"
 transform="matrix(0.455182,0,0,0.455182,-1002.5,907.35)" />
<path
 transform="matrix(0.455182,0,0,0.455182,-978.456,935.634)"
 d="M 152.735,-43.0788 A 59.397,60.1041 0 1 1 33.9411,-43.0788 59.397,60.1041 0 1 1 152.735,-43.0788 z"
 sodipodi:ry="60.1041"
 sodipodi:rx="59.397"
 sodipodi:cy="-43.0788"
 sodipodi:cx="93.3381"
 id="path4298"
 style="fill:#b6daf6;fill-opacity:1;fill-rule:nonzero;stroke:none"
 sodipodi:type="arc" />
<path
 sodipodi:type="arc"
 style="fill:#b6daf6;fill-opacity:1;fill-rule:nonzero;stroke:none"
 id="path4300"
 sodipodi:cx="93.3381"
 sodipodi:cy="-43.0788"
 sodipodi:rx="59.397"
 sodipodi:ry="60.1041"
 d="M 152.735,-43.0788 A 59.397,60.1041 0 1 1 33.9411,-43.0788 59.397,60.1041 0 1 1 152.735,-43.0788 z"
 transform="matrix(0.455182,0,0,0.455182,-962.9,900.279)" />
<path
 transform="matrix(0.455182,0,0,0.455182,-933.202,931.392)"
 d="M 152.735,-43.0788 A 59.397,60.1041 0 1 1 33.9411,-43.0788 59.397,60.1041 0 1 1 152.735,-43.0788 z"
 sodipodi:ry="60.1041"
 sodipodi:rx="59.397"
 sodipodi:cy="-43.0788"
 sodipodi:cx="93.3381"
 id="path4302"
 style="fill:#b6daf6;fill-opacity:1;fill-rule:nonzero;stroke:none"
 sodipodi:type="arc" />
<path
 sodipodi:type="arc"
 style="fill:#b6daf6;fill-opacity:1;fill-rule:nonzero;stroke:none"
 id="path4304"
 sodipodi:cx="93.3381"
 sodipodi:cy="-43.0788"
 sodipodi:rx="59.397"
 sodipodi:ry="60.1041"
 d="M 152.735,-43.0788 A 59.397,60.1041 0 1 1 33.9411,-43.0788 59.397,60.1041 0 1 1 152.735,-43.0788 z"
 transform="matrix(0.455182,0,0,0.455182,-880.876,922.907)" />
<path
 transform="matrix(0.455182,0,0,0.455182,-835.621,910.179)"
 d="M 152.735,-43.0788 A 59.397,60.1041 0 1 1 33.9411,-43.0788 59.397,60.1041 0 1 1 152.735,-43.0788 z"
 sodipodi:ry="60.1041"
 sodipodi:rx="59.397"
 sodipodi:cy="-43.0788"
 sodipodi:cx="93.3381"
 id="path4306"
 style="fill:#b6daf6;fill-opacity:1;fill-rule:nonzero;stroke:none"
 sodipodi:type="arc" />
<path
 sodipodi:type="arc"
 style="fill:#b6daf6;fill-opacity:1;fill-rule:nonzero;stroke:none"
 id="path4308"
 sodipodi:cx="93.3381"
 sodipodi:cy="-43.0788"
 sodipodi:rx="59.397"
 sodipodi:ry="60.1041"
 d="M 152.735,-43.0788 A 59.397,60.1041 0 1 1 33.9411,-43.0788 59.397,60.1041 0 1 1 152.735,-43.0788 z"
 transform="matrix(0.455182,0,0,0.455182,-793.195,931.392)" />
<path
 transform="matrix(0.455182,0,0,0.455182,-902.089,946.948)"
 d="M 152.735,-43.0788 A 59.397,60.1041 0 1 1 33.9411,-43.0788 59.397,60.1041 0 1 1 152.735,-43.0788 z"
 sodipodi:ry="60.1041"
 sodipodi:rx="59.397"
 sodipodi:cy="-43.0788"
 sodipodi:cx="93.3381"
 id="path4310"
 style="fill:#b6daf6;fill-opacity:1;fill-rule:nonzero;stroke:none"
 sodipodi:type="arc" />
<path
 sodipodi:type="arc"
 style="fill:#b6daf6;fill-opacity:1;fill-rule:nonzero;stroke:none"
 id="path4312"
 sodipodi:cx="93.3381"
 sodipodi:cy="-43.0788"
 sodipodi:rx="59.397"
 sodipodi:ry="60.1041"
 d="M 152.735,-43.0788 A 59.397,60.1041 0 1 1 33.9411,-43.0788 59.397,60.1041 0 1 1 152.735,-43.0788 z"
 transform="matrix(0.572829,0,0,0.572829,-859.413,946.359)" />
<path
 transform="matrix(0.3399,0,0,0.3399,-913.507,908.325)"
 d="M 152.735,-43.0788 A 59.397,60.1041 0 1 1 33.9411,-43.0788 59.397,60.1041 0 1 1 152.735,-43.0788 z"
 sodipodi:ry="60.1041"
 sodipodi:rx="59.397"
 sodipodi:cy="-43.0788"
 sodipodi:cx="93.3381"
 id="path4314"
 style="fill:#b6daf6;fill-opacity:1;fill-rule:nonzero;stroke:none"
 sodipodi:type="arc" />
<path
 transform="matrix(0.377801,0,0,0.377801,-750.971,927.65)"
 d="M 152.735,-43.0788 A 59.397,60.1041 0 1 1 33.9411,-43.0788 59.397,60.1041 0 1 1 152.735,-43.0788 z"
 sodipodi:ry="60.1041"
 sodipodi:rx="59.397"
 sodipodi:cy="-43.0788"
 sodipodi:cx="93.3381"
 id="path4316"
 style="fill:#b6daf6;fill-opacity:1;fill-rule:nonzero;stroke:none"
 sodipodi:type="arc" />
<path
 sodipodi:type="arc"
 style="fill:#b6daf6;fill-opacity:1;fill-rule:nonzero;stroke:none"
 id="path4318"
 sodipodi:cx="93.3381"
 sodipodi:cy="-43.0788"
 sodipodi:rx="59.397"
 sodipodi:ry="60.1041"
 d="M 152.735,-43.0788 A 59.397,60.1041 0 1 1 33.9411,-43.0788 59.397,60.1041 0 1 1 152.735,-43.0788 z"
 transform="matrix(0.377801,0,0,0.377801,-724.808,931.185)" />
<path
 transform="matrix(0.377801,0,0,0.377801,-687.331,927.649)"
 d="M 152.735,-43.0788 A 59.397,60.1041 0 1 1 33.9411,-43.0788 59.397,60.1041 0 1 1 152.735,-43.0788 z"
 sodipodi:ry="60.1041"
 sodipodi:rx="59.397"
 sodipodi:cy="-43.0788"
 sodipodi:cx="93.3381"
 id="path4320"
 style="fill:#b6daf6;fill-opacity:1;fill-rule:nonzero;stroke:none"
 sodipodi:type="arc" />
<path
 sodipodi:type="arc"
 style="fill:#b6daf6;fill-opacity:1;fill-rule:nonzero;stroke:none"
 id="path4322"
 sodipodi:cx="93.3381"
 sodipodi:cy="-43.0788"
 sodipodi:rx="59.397"
 sodipodi:ry="60.1041"
 d="M 152.735,-43.0788 A 59.397,60.1041 0 1 1 33.9411,-43.0788 59.397,60.1041 0 1 1 152.735,-43.0788 z"
 transform="matrix(0.254272,0,0,0.254272,-791.325,904.296)" />
<path
 transform="matrix(0.254272,0,0,0.254272,-885.37,907.124)"
 d="M 152.735,-43.0788 A 59.397,60.1041 0 1 1 33.9411,-43.0788 59.397,60.1041 0 1 1 152.735,-43.0788 z"
 sodipodi:ry="60.1041"
 sodipodi:rx="59.397"
 sodipodi:cy="-43.0788"
 sodipodi:cx="93.3381"
 id="path4324"
 style="fill:#b6daf6;fill-opacity:1;fill-rule:nonzero;stroke:none"
 sodipodi:type="arc" />
<path
 sodipodi:type="arc"
 style="fill:#b6daf6;fill-opacity:1;fill-rule:nonzero;stroke:none"
 id="path4326"
 sodipodi:cx="93.3381"
 sodipodi:cy="-43.0788"
 sodipodi:rx="59.397"
 sodipodi:ry="60.1041"
 d="M 152.735,-43.0788 A 59.397,60.1041 0 1 1 33.9411,-43.0788 59.397,60.1041 0 1 1 152.735,-43.0788 z"
 transform="matrix(0.366037,0,0,0.366037,-656.525,931.384)" />
<path
 transform="matrix(0.366037,0,0,0.366037,-631.776,917.242)"
 d="M 152.735,-43.0788 A 59.397,60.1041 0 1 1 33.9411,-43.0788 59.397,60.1041 0 1 1 152.735,-43.0788 z"
 sodipodi:ry="60.1041"
 sodipodi:rx="59.397"
 sodipodi:cy="-43.0788"
 sodipodi:cx="93.3381"
 id="path4328"
 style="fill:#b6daf6;fill-opacity:1;fill-rule:nonzero;stroke:none"
 sodipodi:type="arc" />
<path
 sodipodi:type="arc"
 style="fill:#b6daf6;fill-opacity:1;fill-rule:nonzero;stroke:none"
 id="path4330"
 sodipodi:cx="93.3381"
 sodipodi:cy="-43.0788"
 sodipodi:rx="59.397"
 sodipodi:ry="60.1041"
 d="M 152.735,-43.0788 A 59.397,60.1041 0 1 1 33.9411,-43.0788 59.397,60.1041 0 1 1 152.735,-43.0788 z"
 transform="matrix(0.366037,0,0,0.366037,-616.22,936.334)" />
<path
 transform="matrix(0.366037,0,0,0.366037,-580.865,922.192)"
 d="M 152.735,-43.0788 A 59.397,60.1041 0 1 1 33.9411,-43.0788 59.397,60.1041 0 1 1 152.735,-43.0788 z"
 sodipodi:ry="60.1041"
 sodipodi:rx="59.397"
 sodipodi:cy="-43.0788"
 sodipodi:cx="93.3381"
 id="path4332"
 style="fill:#b6daf6;fill-opacity:1;fill-rule:nonzero;stroke:none"
 sodipodi:type="arc" />
<path
 sodipodi:type="arc"
 style="fill:#b6daf6;fill-opacity:1;fill-rule:nonzero;stroke:none"
 id="path4334"
 sodipodi:cx="93.3381"
 sodipodi:cy="-43.0788"
 sodipodi:rx="59.397"
 sodipodi:ry="60.1041"
 d="M 152.735,-43.0788 A 59.397,60.1041 0 1 1 33.9411,-43.0788 59.397,60.1041 0 1 1 152.735,-43.0788 z"
 transform="matrix(0.366037,0,0,0.366037,-611.271,926.435)" />
<path
 transform="matrix(0.366037,0,0,0.366037,-546.217,915.828)"
 d="M 152.735,-43.0788 A 59.397,60.1041 0 1 1 33.9411,-43.0788 59.397,60.1041 0 1 1 152.735,-43.0788 z"
 sodipodi:ry="60.1041"
 sodipodi:rx="59.397"
 sodipodi:cy="-43.0788"
 sodipodi:cx="93.3381"
 id="path4336"
 style="fill:#b6daf6;fill-opacity:1;fill-rule:nonzero;stroke:none"
 sodipodi:type="arc" />
<path
 inkscape:transform-center-y="4.94975"
 inkscape:transform-center-x="-11.3137"
 sodipodi:type="arc"
 style="fill:#b6daf6;fill-opacity:1;fill-rule:nonzero;stroke:none"
 id="path4338"
 sodipodi:cx="93.3381"
 sodipodi:cy="-43.0788"
 sodipodi:rx="59.397"
 sodipodi:ry="60.1041"
 d="M 152.735,-43.0788 A 59.397,60.1041 0 1 1 33.9411,-43.0788 59.397,60.1041 0 1 1 152.735,-43.0788 z"
 transform="matrix(0.366037,0,0,0.366037,-515.812,916.535)" />
<path
 transform="matrix(0.252942,0,0,0.252942,-481.567,911.23)"
 d="M 152.735,-43.0788 A 59.397,60.1041 0 1 1 33.9411,-43.0788 59.397,60.1041 0 1 1 152.735,-43.0788 z"
 sodipodi:ry="60.1041"
 sodipodi:rx="59.397"
 sodipodi:cy="-43.0788"
 sodipodi:cx="93.3381"
 id="path4340"
 style="fill:#b6daf6;fill-opacity:1;fill-rule:nonzero;stroke:none"
 sodipodi:type="arc"
 inkscape:transform-center-x="-7.81853"
 inkscape:transform-center-y="3.4209" />
<path
 inkscape:transform-center-y="3.4209"
 inkscape:transform-center-x="-7.81853"
 sodipodi:type="arc"
 style="fill:#b6daf6;fill-opacity:1;fill-rule:nonzero;stroke:none"
 id="path4342"
 sodipodi:cx="93.3381"
 sodipodi:cy="-43.0788"
 sodipodi:rx="59.397"
 sodipodi:ry="60.1041"
 d="M 152.735,-43.0788 A 59.397,60.1041 0 1 1 33.9411,-43.0788 59.397,60.1041 0 1 1 152.735,-43.0788 z"
 transform="matrix(0.252942,0,0,0.252942,-458.232,919.008)" />
<path
 transform="matrix(0.252942,0,0,0.252942,-438.433,903.452)"
 d="M 152.735,-43.0788 A 59.397,60.1041 0 1 1 33.9411,-43.0788 59.397,60.1041 0 1 1 152.735,-43.0788 z"
 sodipodi:ry="60.1041"
 sodipodi:rx="59.397"
 sodipodi:cy="-43.0788"
 sodipodi:cx="93.3381"
 id="path4344"
 style="fill:#b6daf6;fill-opacity:1;fill-rule:nonzero;stroke:none"
 sodipodi:type="arc"
 inkscape:transform-center-x="-7.81853"
 inkscape:transform-center-y="3.4209" />
<path
 inkscape:transform-center-y="3.4209"
 inkscape:transform-center-x="-7.81853"
 sodipodi:type="arc"
 style="fill:#b6daf6;fill-opacity:1;fill-rule:nonzero;stroke:none"
 id="path4346"
 sodipodi:cx="93.3381"
 sodipodi:cy="-43.0788"
 sodipodi:rx="59.397"
 sodipodi:ry="60.1041"
 d="M 152.735,-43.0788 A 59.397,60.1041 0 1 1 33.9411,-43.0788 59.397,60.1041 0 1 1 152.735,-43.0788 z"
 transform="matrix(0.252942,0,0,0.252942,-438.433,903.452)" />
<path
 transform="matrix(0.252942,0,0,0.252942,-417.22,907.695)"
 d="M 152.735,-43.0788 A 59.397,60.1041 0 1 1 33.9411,-43.0788 59.397,60.1041 0 1 1 152.735,-43.0788 z"
 sodipodi:ry="60.1041"
 sodipodi:rx="59.397"
 sodipodi:cy="-43.0788"
 sodipodi:cx="93.3381"
 id="path4348"
 style="fill:#b6daf6;fill-opacity:1;fill-rule:nonzero;stroke:none"
 sodipodi:type="arc"
 inkscape:transform-center-x="-7.81853"
 inkscape:transform-center-y="3.4209" />
<path
 inkscape:transform-center-y="4.69344"
 inkscape:transform-center-x="-10.7282"
 sodipodi:type="arc"
 style="fill:#b6daf6;fill-opacity:1;fill-rule:nonzero;stroke:none"
 id="path4350"
 sodipodi:cx="93.3381"
 sodipodi:cy="-43.0788"
 sodipodi:rx="59.397"
 sodipodi:ry="60.1041"
 d="M 152.735,-43.0788 A 59.397,60.1041 0 1 1 33.9411,-43.0788 59.397,60.1041 0 1 1 152.735,-43.0788 z"
 transform="matrix(0.34706,0,0,0.34706,-406.979,925.184)" />
<path
 transform="matrix(0.460155,0,0,0.460155,-377.585,926.953)"
 d="M 152.735,-43.0788 A 59.397,60.1041 0 1 1 33.9411,-43.0788 59.397,60.1041 0 1 1 152.735,-43.0788 z"
 sodipodi:ry="60.1041"
 sodipodi:rx="59.397"
 sodipodi:cy="-43.0788"
 sodipodi:cx="93.3381"
 id="path4352"
 style="fill:#b6daf6;fill-opacity:1;fill-rule:nonzero;stroke:none"
 sodipodi:type="arc"
 inkscape:transform-center-x="-14.2237"
 inkscape:transform-center-y="6.22239" />
<path
 inkscape:transform-center-y="6.22239"
 inkscape:transform-center-x="-14.2237"
 sodipodi:type="arc"
 style="fill:#b6daf6;fill-opacity:1;fill-rule:nonzero;stroke:none"
 id="path4354"
 sodipodi:cx="93.3381"
 sodipodi:cy="-43.0788"
 sodipodi:rx="59.397"
 sodipodi:ry="60.1041"
 d="M 152.735,-43.0788 A 59.397,60.1041 0 1 1 33.9411,-43.0788 59.397,60.1041 0 1 1 152.735,-43.0788 z"
 transform="matrix(0.460155,0,0,0.460155,-350.715,943.216)" />
<path
 transform="matrix(0.460155,0,0,0.460155,-309.703,953.823)"
 d="M 152.735,-43.0788 A 59.397,60.1041 0 1 1 33.9411,-43.0788 59.397,60.1041 0 1 1 152.735,-43.0788 z"
 sodipodi:ry="60.1041"
 sodipodi:rx="59.397"
 sodipodi:cy="-43.0788"
 sodipodi:cx="93.3381"
 id="path4356"
 style="fill:#b6daf6;fill-opacity:1;fill-rule:nonzero;stroke:none"
 sodipodi:type="arc"
 inkscape:transform-center-x="-14.2237"
 inkscape:transform-center-y="6.22239" />
<path
 inkscape:transform-center-y="6.22239"
 inkscape:transform-center-x="-14.2237"
 sodipodi:type="arc"
 style="fill:#b6daf6;fill-opacity:1;fill-rule:nonzero;stroke:none"
 id="path4358"
 sodipodi:cx="93.3381"
 sodipodi:cy="-43.0788"
 sodipodi:rx="59.397"
 sodipodi:ry="60.1041"
 d="M 152.735,-43.0788 A 59.397,60.1041 0 1 1 33.9411,-43.0788 59.397,60.1041 0 1 1 152.735,-43.0788 z"
 transform="matrix(0.460155,0,0,0.460155,-265.155,943.924)" />
<path
 transform="matrix(0.460155,0,0,0.460155,-224.85,943.217)"
 d="M 152.735,-43.0788 A 59.397,60.1041 0 1 1 33.9411,-43.0788 59.397,60.1041 0 1 1 152.735,-43.0788 z"
 sodipodi:ry="60.1041"
 sodipodi:rx="59.397"
 sodipodi:cy="-43.0788"
 sodipodi:cx="93.3381"
 id="path4360"
 style="fill:#b6daf6;fill-opacity:1;fill-rule:nonzero;stroke:none"
 sodipodi:type="arc"
 inkscape:transform-center-x="-14.2237"
 inkscape:transform-center-y="6.22239" />
<path
 inkscape:transform-center-y="6.22239"
 inkscape:transform-center-x="-14.2237"
 sodipodi:type="arc"
 style="fill:#b6daf6;fill-opacity:1;fill-rule:nonzero;stroke:none"
 id="path4362"
 sodipodi:cx="93.3381"
 sodipodi:cy="-43.0788"
 sodipodi:rx="59.397"
 sodipodi:ry="60.1041"
 d="M 152.735,-43.0788 A 59.397,60.1041 0 1 1 33.9411,-43.0788 59.397,60.1041 0 1 1 152.735,-43.0788 z"
 transform="matrix(0.460155,0,0,0.460155,-190.202,936.853)" />
<path
 transform="matrix(0.460155,0,0,0.460155,-152.725,923.418)"
 d="M 152.735,-43.0788 A 59.397,60.1041 0 1 1 33.9411,-43.0788 59.397,60.1041 0 1 1 152.735,-43.0788 z"
 sodipodi:ry="60.1041"
 sodipodi:rx="59.397"
 sodipodi:cy="-43.0788"
 sodipodi:cx="93.3381"
 id="path4364"
 style="fill:#b6daf6;fill-opacity:1;fill-rule:nonzero;stroke:none"
 sodipodi:type="arc"
 inkscape:transform-center-x="-14.2237"
 inkscape:transform-center-y="6.22239" />
<path
 inkscape:transform-center-y="3.64657"
 inkscape:transform-center-x="-8.336"
 sodipodi:type="arc"
 style="fill:#b6daf6;fill-opacity:1;fill-rule:nonzero;stroke:none"
 id="path4366"
 sodipodi:cx="93.3381"
 sodipodi:cy="-43.0788"
 sodipodi:rx="59.397"
 sodipodi:ry="60.1041"
 d="M 152.735,-43.0788 A 59.397,60.1041 0 1 1 33.9411,-43.0788 59.397,60.1041 0 1 1 152.735,-43.0788 z"
 transform="matrix(0.269679,0,0,0.269679,-195.05,911.541)" />
<path
 transform="matrix(0.269679,0,0,0.269679,-273.539,927.097)"
 d="M 152.735,-43.0788 A 59.397,60.1041 0 1 1 33.9411,-43.0788 59.397,60.1041 0 1 1 152.735,-43.0788 z"
 sodipodi:ry="60.1041"
 sodipodi:rx="59.397"
 sodipodi:cy="-43.0788"
 sodipodi:cx="93.3381"
 id="path4368"
 style="fill:#b6daf6;fill-opacity:1;fill-rule:nonzero;stroke:none"
 sodipodi:type="arc"
 inkscape:transform-center-x="-8.336"
 inkscape:transform-center-y="3.64657" />
</g>
<g
 inkscape:groupmode="layer"
 id="layer4"
 inkscape:label="SecondBackround_2"
 style="display:none">
<path
 style="fill:#00c357;fill-opacity:1;fill-rule:nonzero;stroke:#00843b;stroke-width:6;stroke-linecap:butt;stroke-linejoin:round;stroke-miterlimit:4;stroke-opacity:1;stroke-dasharray:none"
 d="M 752.281,253.625 C 710.263,253.625 675.351,283.397 668.375,322.562 660.743,320.071 652.582,318.688 644.094,318.688 606.667,318.688 575.526,344.921 568.781,379.625 550.636,385.97 535.651,398.802 526.75,415.281 519.798,406.297 509.091,400.249 496.906,399.406 485.677,371.599 458.001,351.906 425.594,351.906 413.022,351.906 401.158,354.878 390.688,360.125 379.354,332.531 351.782,313.031 319.531,313.031 287.377,313.031 259.865,332.412 248.469,359.875 231.034,361.345 216.484,372.565 210.469,387.938 201.705,383.737 191.854,381.375 181.438,381.375 153.988,381.375 130.459,397.751 120.469,421.062 113.645,418.731 106.324,417.438 98.6875,417.438 65.1843,417.438 37.5126,441.841 33.1875,473.469 -1.12679,475.824 -28.2188,503.79 -28.2188,537.969 -28.2188,573.692 1.37068,602.656 37.875,602.656 71.385,602.656 99.0585,578.262 103.375,546.625 125.039,545.138 143.813,533.435 154.719,516.406 L 558.281,516.406 C 569.089,522.102 581.458,525.344 594.594,525.344 607.73,525.344 620.098,522.102 630.906,516.406 L 1028.88,516.406 1028.88,444.594 C 1048.37,435.527 1061.84,416.09 1061.84,393.562 1061.84,362.368 1036,337.062 1004.12,337.062 995.06,337.062 986.508,339.106 978.875,342.75 967.699,309.472 935.683,285.438 897.938,285.438 872.49,285.438 849.67,296.373 834.062,313.688 823.763,278.99 791.06,253.625 752.281,253.625 z"
 id="path3079"
 inkscape:connector-curvature="0" />
</g>
<g
 inkscape:groupmode="layer"
 id="layer5"
 inkscape:label="Clouds"
 style="display:none">
<path
 style="fill:#ffffff;fill-opacity:1;fill-rule:nonzero;stroke:#dbdbdb;stroke-width:5.504;stroke-miterlimit:4;stroke-opacity:1;stroke-dasharray:none"
 d="M 158.925,122.946 C 142.286,122.946 128.282,134.163 124.295,149.347 119.838,147.998 115.129,147.255 110.222,147.255 87.8543,147.255 69.0513,162.346 63.7246,182.773 61.8863,181.852 59.8214,181.338 57.6189,181.338 50.1263,181.338 44.0599,187.335 44.0599,194.725 44.0599,194.899 44.082,195.07 44.0886,195.241 43.3237,195.07 42.527,194.956 41.7092,194.956 35.8218,194.956 31.0455,199.667 31.0455,205.476 31.0455,211.036 35.4256,215.588 40.964,215.968 40.44,218.078 40.1614,220.262 40.1614,222.531 40.1614,237.769 52.6664,250.137 68.1103,250.137 77.7103,250.137 86.1793,245.368 91.2153,238.097 97.0443,240.579 103.47,241.967 110.222,241.967 114.552,241.967 118.729,241.393 122.72,240.334 130.506,250.492 142.841,257.046 156.747,257.046 168.554,257.046 179.238,252.31 186.961,244.662 191.461,247.534 196.824,249.192 202.583,249.192 214.503,249.192 224.717,242.058 229.098,231.877 232.34,233.494 235.998,234.429 239.877,234.429 252.699,234.429 263.159,224.478 263.786,211.983 263.816,211.983 263.842,211.983 263.872,211.983 271.364,211.983 277.46,206.015 277.46,198.624 277.46,191.233 271.364,185.237 263.872,185.237 262.35,185.237 260.91,185.497 259.544,185.955 257.847,177.841 250.848,171.649 242.286,171.019 235.251,157.504 220.993,148.258 204.533,148.258 200.757,148.258 197.096,148.75 193.61,149.662 189.733,134.322 175.676,122.946 158.925,122.946 z"
 id="path3885"
 inkscape:connector-curvature="0" />
<path
 inkscape:connector-curvature="0"
 id="path4371"
 d="M 481.79,185.517 C 494.72,185.517 505.603,194.234 508.702,206.034 512.165,204.985 515.825,204.408 519.638,204.408 537.021,204.408 551.634,216.136 555.774,232.01 557.202,231.295 558.807,230.895 560.518,230.895 566.341,230.895 571.055,235.556 571.055,241.299 571.055,241.434 571.038,241.567 571.033,241.7 571.628,241.567 572.247,241.478 572.882,241.478 577.458,241.478 581.17,245.139 581.17,249.654 581.17,253.975 577.766,257.512 573.461,257.807 573.868,259.447 574.085,261.144 574.085,262.908 574.085,274.75 564.367,284.361 552.365,284.361 544.905,284.361 538.323,280.655 534.409,275.005 529.879,276.934 524.886,278.012 519.638,278.012 516.273,278.012 513.027,277.566 509.926,276.743 503.875,284.637 494.289,289.731 483.482,289.731 474.306,289.731 466.004,286.05 460.002,280.107 456.505,282.339 452.337,283.627 447.861,283.627 438.598,283.627 430.66,278.083 427.256,270.171 424.736,271.428 421.893,272.154 418.879,272.154 408.914,272.154 400.786,264.421 400.298,254.711 400.275,254.711 400.255,254.711 400.231,254.711 394.409,254.711 389.672,250.073 389.672,244.329 389.672,238.585 394.409,233.925 400.231,233.925 401.414,233.925 402.533,234.127 403.595,234.483 404.914,228.178 410.353,223.366 417.007,222.876 422.474,212.373 433.554,205.188 446.346,205.188 449.28,205.188 452.125,205.57 454.835,206.279 457.847,194.357 468.772,185.517 481.79,185.517 z"
 style="fill:#ffffff;fill-opacity:1;fill-rule:nonzero;stroke:#dbdbdb;stroke-width:6;stroke-miterlimit:4;stroke-opacity:1;stroke-dasharray:none" />
<path
 style="fill:#ffffff;fill-opacity:1;fill-rule:nonzero;stroke:#dbdbdb;stroke-width:6;stroke-miterlimit:4;stroke-opacity:1;stroke-dasharray:none"
 d="M 801.238,131.973 C 816.133,131.973 828.669,142.014 832.238,155.606 836.227,154.398 840.443,153.733 844.836,153.733 864.859,153.733 881.692,167.243 886.461,185.528 888.106,184.704 889.954,184.244 891.925,184.244 898.633,184.244 904.063,189.613 904.063,196.228 904.063,196.384 904.043,196.537 904.037,196.69 904.723,196.537 905.436,196.434 906.167,196.434 911.438,196.434 915.714,200.651 915.714,205.852 915.714,210.829 911.793,214.904 906.834,215.244 907.303,217.133 907.553,219.087 907.553,221.119 907.553,234.76 896.359,245.831 882.534,245.831 873.941,245.831 866.359,241.562 861.85,235.054 856.632,237.276 850.881,238.518 844.836,238.518 840.959,238.518 837.22,238.004 833.648,237.056 826.678,246.149 815.636,252.017 803.187,252.017 792.618,252.017 783.055,247.777 776.141,240.931 772.113,243.502 767.312,244.986 762.156,244.986 751.486,244.986 742.342,238.6 738.421,229.486 735.518,230.934 732.243,231.77 728.771,231.77 717.293,231.77 707.93,222.862 707.368,211.677 707.341,211.677 707.318,211.677 707.291,211.677 700.584,211.677 695.128,206.335 695.128,199.718 695.128,193.102 700.584,187.734 707.291,187.734 708.653,187.734 709.942,187.967 711.166,188.377 712.685,181.114 718.95,175.571 726.615,175.007 732.912,162.908 745.675,154.632 760.41,154.632 763.79,154.632 767.067,155.072 770.189,155.888 773.659,142.155 786.243,131.973 801.238,131.973 z"
 id="path4373"
 inkscape:connector-curvature="0" />
</g>
<g
 inkscape:groupmode="layer"
 id="layer1"
 inkscape:label="terrain"
 style="display:none" />
</svg>
