<?xml version="1.0" encoding="UTF-8" standalone="no"?>
<!-- Created with Inkscape (http://www.inkscape.org/) -->

<svg
 xmlns:dc="http://purl.org/dc/elements/1.1/"
 xmlns:cc="http://creativecommons.org/ns#"
 xmlns:rdf="http://www.w3.org/1999/02/22-rdf-syntax-ns#"
 xmlns:svg="http://www.w3.org/2000/svg"
 xmlns="http://www.w3.org/2000/svg"
 xmlns:xlink="http://www.w3.org/1999/xlink"
 xmlns:sodipodi="http://sodipodi.sourceforge.net/DTD/sodipodi-0.dtd"
 xmlns:inkscape="http://www.inkscape.org/namespaces/inkscape"
 width="512"
 height="512"
 id="svg3067"
 version="1.1"
 inkscape:version="0.48.1 r9760"
 sodipodi:docname="background.svg"
 inkscape:export-filename="/tmp/backround-example.png"
 inkscape:export-xdpi="90"
 inkscape:export-ydpi="90"
 style="display:inline">
<defs
 id="defs3069">
<linearGradient
 id="linearGradient4053"
 inkscape:collect="always">
<stop
 id="stop4055"
 offset="0"
 style="stop-color:#51adf5;stop-opacity:1" />
<stop
 id="stop4057"
 offset="1"
 style="stop-color:#b6daf6;stop-opacity:1" />
</linearGradient>
<linearGradient
 inkscape:collect="always"
 id="linearGradient3927">
<stop
 style="stop-color:#b6daf6;stop-opacity:1;"
 offset="0"
 id="stop3929" />
<stop
 style="stop-color:#ffffff;stop-opacity:0.488263"
 offset="1"
 id="stop3931" />
</linearGradient>
<linearGradient
 inkscape:collect="always"
 xlink:href="#linearGradient3927"
 id="linearGradient3933"
 x1="462.448"
 y1="174.711"
 x2="466.685"
 y2="515.536"
 gradientUnits="userSpaceOnUse"
 gradientTransform="matrix(1,0,0,0.862745,-18.3848,565.721)" />
<linearGradient
 inkscape:collect="always"
 xlink:href="#linearGradient4053"
 id="linearGradient4051"
 gradientUnits="userSpaceOnUse"
 gradientTransform="matrix(0.972039,0,0,1.41977,15.1214,-249.05)"
 x1="464.506"
 y1="275.432"
 x2="464.619"
 y2="340.378" />
</defs>
<sodipodi:namedview
 id="base"
 pagecolor="#ffffff"
 bordercolor="#666666"
 borderopacity="1.0"
 inkscape:pageopacity="0.0"
 inkscape:pageshadow="2"
 inkscape:zoom="0.707107"
 inkscape:cx="490.87"
 inkscape:cy="128.877"
 inkscape:current-layer="layer6"
 inkscape:document-units="px"
 showgrid="false"
 showguides="true"
 inkscape:guide-bbox="true"
 inkscape:window-width="1440"
 inkscape:window-height="849"
 inkscape:window-x="0"
 inkscape:window-y="24"
 inkscape:window-maximized="1"
 inkscape:snap-global="false">
<sodipodi:guide
 orientation="0,1"
 position="463.5,326.5"
 id="guide4402" />
<sodipodi:guide
 orientation="0,1"
 position="396,315"
 id="guide4404" />
<sodipodi:guide
 orientation="0,1"
 position="-70,0"
 id="guide3910" />
<sodipodi:guide
 orientation="1,0"
 position="0,260"
 id="guide3912" />
<sodipodi:guide
 orientation="1,0"
 position="1024,236"
 id="guide3914" />
</sodipodi:namedview>
<metadata
 id="metadata3072">
<rdf:RDF>
<cc:Work
 rdf:about="">
<dc:format>image/svg+xml</dc:format>
<dc:type
 rdf:resource="http://purl.org/dc/dcmitype/StillImage" />
<dc:title></dc:title>
</cc:Work>
</rdf:RDF>
</metadata>
<g
 inkscape:groupmode="layer"
 id="layer6"
 inkscape:label="Background_2"
 style="display:inline">
<rect
 y="-1.19209e-06"
 x="0"
 height="512"
 width="1028.25"
 id="rect4049"
 style="fill:url(#linearGradient4051);fill-opacity:1;fill-rule:nonzero;stroke:none" />
<path
 style="fill:#a3c3dc;fill-opacity:1;fill-rule:nonzero;stroke:none"
 d="M 1467.92,104.81 C 1447.14,104.81 1429.16,116.7 1420.16,134.116 1412.72,130.193 1404.26,127.983 1395.3,127.983 1381.36,127.983 1368.66,133.329 1359.09,142.129 1353.99,138.098 1347.58,135.708 1340.6,135.708 1334.6,135.708 1329.03,137.469 1324.33,140.536 1315.29,133.604 1304,129.529 1291.79,129.529 1277.79,129.529 1265.07,134.915 1255.49,143.771 1246.3,126.992 1228.66,115.625 1208.37,115.625 1191.02,115.625 1175.64,123.896 1165.78,136.769 1156.92,130.265 1146.01,126.439 1134.21,126.439 1113.23,126.439 1095.07,138.564 1086.17,156.274 1077.45,150.123 1066.85,146.523 1055.42,146.523 1054.33,146.523 1053.22,146.553 1052.13,146.619 1042.3,133.403 1026.68,124.894 1009.07,124.894 986.537,124.894 967.245,138.864 959.201,158.737 958.583,158.273 957.957,157.774 957.322,157.337 948.723,151.458 938.352,148.067 927.194,148.067 917.494,148.067 908.403,150.674 900.538,155.213 896.493,143.835 885.756,135.708 873.119,135.708 866.944,135.708 861.227,137.656 856.511,140.971 851.992,130.592 841.783,123.349 829.855,123.349 819.288,123.349 810.062,129.025 804.944,137.542 799.62,131.677 792.005,127.983 783.514,127.983 769.689,127.983 758.128,137.713 755.122,150.771 751.314,149.982 747.384,149.613 743.344,149.613 728.972,149.613 715.825,154.865 705.639,163.564 700.694,159.657 694.487,157.337 687.727,157.337 680.002,157.337 673.006,160.389 667.789,165.35 658.179,158.354 646.397,154.248 633.656,154.248 627.364,154.248 621.279,155.236 615.599,157.096 607.861,149.577 597.338,144.977 585.763,144.977 575.747,144.977 566.524,148.445 559.21,154.248 552.96,140.563 539.312,131.073 523.435,131.073 511.297,131.073 500.397,136.584 493.165,145.316 488.784,144.075 484.175,143.433 479.405,143.433 466.757,143.433 455.152,148.079 446.238,155.792 441.552,143.999 430.165,135.708 416.836,135.708 406.426,135.708 397.221,140.807 391.442,148.647 383.825,144.596 375.152,142.274 365.951,142.274 347.932,142.274 331.974,151.056 321.969,164.627 313.285,158.796 302.902,155.406 291.698,155.406 284.977,155.406 278.532,156.644 272.58,158.882 265.293,147.564 252.647,140.102 238.303,140.102 222.013,140.102 207.975,149.751 201.417,163.71 193.992,153.391 181.975,146.668 168.395,146.668 150.573,146.668 135.447,158.224 129.869,174.331 122.456,166.681 112.084,161.971 100.661,161.971 98.8979,161.971 97.1977,162.09 95.4941,162.311 93.581,141.282 76.0743,124.796 54.7961,124.796 35.9194,124.796 20.0341,137.752 15.3516,155.358 7.55615,151.209 -1.34708,148.84 -10.7666,148.84 -36.3363,148.84 -57.8675,166.164 -64.6455,189.828 -73.1332,184.61 -83.0998,181.621 -93.7575,181.621 -124.761,181.621 -149.905,207.023 -149.905,238.395 -149.905,269.769 -124.761,295.22 -93.7575,295.22 -68.1875,295.22 -46.656,277.894 -39.8788,254.231 -31.3908,259.452 -21.4246,262.439 -10.7666,262.439 20.0117,262.439 45.0186,237.396 45.3819,206.338 48.4117,207.065 51.5462,207.45 54.7961,207.45 56.5579,207.45 58.3064,207.331 60.0092,207.111 61.9213,228.139 79.3805,244.625 100.661,244.625 118.495,244.625 133.667,233.038 139.235,216.912 146.648,224.563 156.971,229.321 168.395,229.321 184.683,229.321 198.77,219.67 205.328,205.712 212.71,215.968 224.581,222.674 238.06,222.755 243.417,247.74 265.402,266.446 291.698,266.446 309.695,266.446 325.672,257.683 335.68,244.141 344.36,249.964 354.757,253.362 365.951,253.362 377.215,253.362 387.702,249.888 396.413,243.998 405.718,261.276 423.831,273.012 444.644,273.012 465.065,273.012 482.846,261.706 492.295,244.961 498.117,243.428 503.507,240.893 508.324,237.527 516.859,253.966 533.938,265.191 553.56,265.191 567.11,265.191 579.379,259.813 588.515,251.093 599.247,264.253 615.478,272.627 633.656,272.627 659.715,272.627 681.748,255.412 689.32,231.588 698.146,252.969 719.015,267.991 743.344,267.991 764.365,267.991 782.753,256.783 793.07,239.94 803.19,257.645 822.097,269.537 843.76,269.537 863.786,269.537 881.452,259.377 891.993,243.853 901.442,252.102 913.736,257.079 927.194,257.079 949.707,257.079 968.963,243.083 977.016,223.237 985.973,229.951 997.069,233.906 1009.07,233.906 1010.2,233.906 1011.3,233.878 1012.41,233.81 1022.24,246.994 1037.84,255.535 1055.42,255.535 1076.39,255.535 1094.56,243.398 1103.46,225.7 1111.74,231.533 1121.7,235.06 1132.47,235.403 1137.59,260.126 1159.24,278.708 1185.19,278.708 1196.32,278.708 1206.68,275.294 1215.27,269.439 1225.02,283.446 1241.13,292.613 1259.35,292.613 1276.17,292.613 1291.18,284.802 1301.06,272.578 1310.94,284.802 1325.95,292.613 1342.77,292.613 1362.28,292.613 1379.33,282.102 1388.78,266.399 1398.31,275.017 1410.87,280.254 1424.67,280.254 1454.42,280.254 1478.53,255.858 1478.53,225.747 1478.53,221.373 1478,217.127 1477.04,213.05 1502.45,208.666 1521.79,186.28 1521.79,159.316 1521.79,129.206 1497.67,104.81 1467.92,104.81 z"
 id="path4059"
 inkscape:connector-curvature="0" />
<path
 style="fill:#b6daf6;fill-opacity:1;fill-rule:nonzero;stroke:none"
 d="M 197.845,178 C 182.892,178 169.787,185.939 162.409,197.891 155.316,192.269 146.384,188.91 136.677,188.91 122.076,188.91 109.237,196.497 101.771,207.981 91.7968,197.575 77.8325,191.083 62.3759,191.085 41.6998,191.085 23.7439,202.671 14.3861,219.761 6.57456,215.435 -2.34389,212.954 -11.8771,212.954 -32.9987,212.954 -51.3194,225.041 -60.4935,242.741 -69.9096,235.054 -81.8749,230.43 -94.9162,230.43 -125.225,230.43 -149.809,255.282 -149.809,285.951 -149.809,316.619 -125.225,341.47 -94.9162,341.47 -73.804,341.47 -55.4779,329.418 -46.2999,311.731 -36.8849,319.417 -24.916,323.994 -11.8771,323.994 8.77039,323.994 26.7451,312.467 36.1118,295.413 43.9091,299.721 52.8651,302.173 62.3759,302.173 66.8544,302.173 71.1959,301.603 75.362,300.578 82.1875,305.494 90.5333,308.401 99.5493,308.401 114.192,308.401 127.046,300.773 134.503,289.234 140.306,305.522 155.707,317.138 173.802,317.138 189.911,317.138 203.911,307.918 210.881,294.399 218.526,304.255 230.367,310.572 243.71,310.572 247.092,310.572 250.41,310.181 253.559,309.413 260.034,324.27 274.719,334.615 291.796,334.615 308.375,334.615 322.706,324.835 329.452,310.67 338.604,326.312 355.423,336.788 374.69,336.788 400.426,336.788 421.819,318.102 426.348,293.385 433.952,303.832 446.24,310.572 460.045,310.572 473.107,310.572 484.734,304.529 492.393,295.028 498.336,299.87 505.891,302.8 514.118,302.8 520.101,302.8 525.717,301.252 530.63,298.552 536.849,304.546 545.259,308.255 554.526,308.255 567.866,308.255 579.435,300.603 585.232,289.427 591.581,297.554 601.38,302.752 612.413,302.752 619.978,302.752 626.99,300.3 632.69,296.138 638.851,303.512 648.035,308.255 658.326,308.255 671.195,308.255 682.377,300.904 688.016,290.15 691.662,304.932 704.868,315.884 720.605,315.884 736.7,315.884 750.106,304.429 753.386,289.136 753.934,288.511 754.429,287.824 754.931,287.158 760.571,291.485 767.586,294.012 775.21,294.012 788.56,294.012 800.058,286.163 805.481,274.751 811.512,280.615 819.717,284.213 828.746,284.213 837.613,284.213 845.675,280.722 851.679,275.039 857.782,281.364 866.3,285.275 875.722,285.275 886.651,285.275 896.341,280.028 902.471,271.853 905.468,273.282 908.788,274.124 912.322,274.124 917.494,274.124 922.272,272.387 926.129,269.488 929.019,279.124 937.869,286.144 948.338,286.144 961.16,286.144 971.558,275.604 971.558,262.633 971.558,262.021 971.513,261.447 971.459,260.847 973.813,261.655 976.327,262.101 978.949,262.101 979.745,262.101 980.533,262.085 981.311,262.005 985.338,261.591 989.078,260.124 992.219,257.902 995.95,263.729 1002.18,267.785 1009.36,268.521 1010.66,285.117 1024.4,298.165 1041.13,298.165 1052,298.165 1061.6,292.67 1067.35,284.261 1074.86,296.051 1087.94,303.863 1102.82,303.863 1103.84,303.863 1104.83,303.836 1105.82,303.765 1112.43,318.635 1127.19,329.016 1144.35,329.016 1153.74,329.016 1162.39,325.905 1169.41,320.662 1176.12,335.261 1190.73,345.381 1207.69,345.381 1225.65,345.381 1240.98,334.005 1247.08,318.008 1254.69,325.486 1265.1,330.077 1276.53,330.077 1289.13,330.077 1300.42,324.492 1308.15,315.641 1315.85,323.855 1326.75,329.016 1338.81,329.016 1351.91,329.016 1363.56,322.937 1371.31,313.469 1377.5,317.075 1384.65,319.167 1392.31,319.167 1409.55,319.167 1424.38,308.675 1430.94,293.676 1436.71,296.689 1443.3,298.407 1450.25,298.407 1473.56,298.407 1492.44,279.278 1492.44,255.68 1492.44,232.081 1473.56,212.954 1450.25,212.954 1432.97,212.954 1418.11,223.421 1411.57,238.445 1405.79,235.437 1399.25,233.713 1392.31,233.713 1387.28,233.713 1382.48,234.593 1378.02,236.224 1373.59,229.432 1365.99,224.975 1357.35,224.975 1345.77,224.975 1336.11,233.027 1333.4,243.9 1322.99,245.239 1313.76,250.379 1307.14,257.949 1299.45,249.743 1288.59,244.625 1276.53,244.625 1266.72,244.625 1257.68,248.017 1250.51,253.701 1246.45,250.749 1241.51,249.018 1236.12,249.018 1227.34,249.018 1219.66,253.632 1215.27,260.605 1212.81,260.156 1210.27,259.928 1207.69,259.928 1198.3,259.928 1189.65,263.037 1182.63,268.281 1175.92,253.675 1161.32,243.513 1144.35,243.513 1143.34,243.513 1142.34,243.589 1141.35,243.659 1134.75,228.78 1120,218.409 1102.82,218.409 1085.61,218.409 1070.83,228.853 1064.26,243.802 1058.45,237.586 1050.25,233.713 1041.13,233.713 1038.18,233.713 1035.29,234.112 1032.58,234.871 1028.81,227.074 1020.89,221.692 1011.73,221.692 1006.79,221.692 1002.21,223.238 998.447,225.892 994.313,219.43 987.118,215.126 978.949,215.126 966.126,215.126 955.729,225.666 955.729,238.638 955.729,239.25 955.774,239.824 955.818,240.424 953.474,239.617 950.951,239.168 948.338,239.168 943.139,239.168 938.397,240.927 934.531,243.853 931.65,234.193 922.809,227.147 912.322,227.147 908.493,227.147 904.887,228.091 901.701,229.755 895.545,222.169 886.185,217.299 875.722,217.299 866.864,217.299 858.793,220.795 852.789,226.472 846.695,220.147 838.177,216.236 828.746,216.236 815.413,216.236 803.906,224.108 798.475,235.501 792.444,229.644 784.229,226.036 775.21,226.036 764.302,226.036 754.597,231.312 748.463,239.458 742.834,235.156 735.83,232.602 728.233,232.602 726.808,232.602 725.411,232.718 724.033,232.892 717.956,224.141 707.936,218.409 696.563,218.409 682.001,218.409 669.6,227.796 664.939,240.908 662.8,240.474 660.593,240.279 658.326,240.279 651.407,240.279 644.985,242.397 639.642,246.024 633.294,237.874 623.465,232.602 612.413,232.602 599.063,232.602 587.499,240.24 581.707,251.431 575.358,243.305 565.559,238.059 554.526,238.059 548.542,238.059 542.927,239.607 538.016,242.307 531.795,236.305 523.391,232.602 514.118,232.602 505.607,232.602 497.799,235.709 491.764,240.859 484.105,231.799 472.752,226.036 460.045,226.036 457.75,226.036 455.482,226.255 453.287,226.617 449.094,220.335 441.981,216.236 433.927,216.236 433.155,216.236 432.412,216.259 431.658,216.333 424.737,202.67 410.7,193.305 394.483,193.305 374.952,193.305 358.548,206.841 353.978,225.168 346.431,217.604 336.037,212.954 324.576,212.954 314.484,212.954 305.243,216.58 298.022,222.61 295.152,221.332 291.994,220.582 288.656,220.582 286.514,220.582 284.448,220.904 282.476,221.451 276.786,213.779 267.726,208.802 257.517,208.802 250.687,208.802 244.405,211.069 239.268,214.836 236.634,194.058 219.095,178 197.845,178 z"
 id="path4079"
 inkscape:connector-curvature="0" />
<path
 style="fill:#007847;fill-opacity:1;fill-rule:nonzero;stroke:#005d37;stroke-width:6;stroke-miterlimit:4;stroke-opacity:1;stroke-dasharray:none;display:inline"
 d="M 253.781,261.094 C 214.022,261.094 180.326,287.061 168.594,323 160.501,325.35 153.298,329.779 147.594,335.688 142.148,334.651 136.528,334.094 130.781,334.094 107.138,334.094 85.6414,343.282 69.625,358.281 65.8549,356.253 61.5466,355.094 56.9688,355.094 47.608,355.094 39.3585,359.897 34.5625,367.188 25.243,363.896 15.2236,362.094 4.78125,362.094 -44.723,362.094 -84.8438,402.325 -84.8438,451.969 -84.8438,501.613 -44.723,541.875 4.78125,541.875 27.1336,541.875 47.5822,533.664 63.2812,520.094 68.8986,550.253 95.2646,573.094 126.969,573.094 156.976,573.094 182.184,552.636 189.562,524.875 205.983,545.588 231.344,558.875 259.781,558.875 284.17,558.875 306.277,549.098 322.438,533.25 329.943,560.819 355.097,581.094 384.969,581.094 414.018,581.094 438.577,561.909 446.812,535.5 461.652,546.419 479.964,552.875 499.781,552.875 527.983,552.875 553.131,539.794 569.562,519.375 585.682,543.213 612.897,558.875 643.781,558.875 666.245,558.875 686.77,550.566 702.5,536.875 714.381,551.637 732.578,561.094 752.969,561.094 772.177,561.094 789.413,552.687 801.281,539.375 817.583,556.321 840.447,566.875 865.781,566.875 901.289,566.875 931.987,546.151 946.5,516.125 962.033,529.083 981.996,536.875 1003.78,536.875 1053.29,536.875 1093.41,496.613 1093.41,446.969 1093.41,397.325 1053.29,357.094 1003.78,357.094 968.26,357.094 937.569,377.799 923.062,407.844 907.531,394.892 887.56,387.094 865.781,387.094 855.642,387.094 845.901,388.795 836.812,391.906 832.371,387.005 826.134,383.757 819.156,383.188 804.154,354.593 774.239,335.094 739.781,335.094 714.24,335.094 691.202,345.81 674.875,363 670.821,360.53 666.059,359.094 660.969,359.094 648.376,359.094 637.816,367.793 634.938,379.531 618.173,381.179 602.765,387.445 590,397.062 585.141,392.142 578.42,389.094 570.969,389.094 565.636,389.094 560.676,390.684 556.5,393.375 541.051,380.703 521.297,373.094 499.781,373.094 495.946,373.094 492.178,373.344 488.469,373.812 482.526,358.32 468.811,346.709 452.094,343.812 436.304,318.177 408.034,301.094 375.781,301.094 360.793,301.094 346.666,304.791 334.25,311.312 319.637,281.561 289.088,261.094 253.781,261.094 z"
 id="path3935"
 inkscape:connector-curvature="0" />
<rect
 style="fill:url(#linearGradient3933);fill-opacity:1;fill-rule:nonzero;stroke:none"
 id="rect3917"
 width="1057.83"
 height="311.126"
 x="-33.9412"
 y="717.061" />
<path
 transform="matrix(1.08345,0,0,1.01697,-55.4016,438.102)"
 d="M 145.664,456.139 A 82.7315,88.3883 0 1 1 -19.799,456.139 82.7315,88.3883 0 1 1 145.664,456.139 z"
 sodipodi:ry="88.3883"
 sodipodi:rx="82.7315"
 sodipodi:cy="456.139"
 sodipodi:cx="62.9325"
 id="path4006"
 style="fill:#007745;fill-opacity:1;fill-rule:nonzero;stroke:none;display:inline"
 sodipodi:type="arc" />
<path
 sodipodi:type="arc"
 style="fill:#007745;fill-opacity:1;fill-rule:nonzero;stroke:none;display:inline"
 id="path4008"
 sodipodi:cx="62.9325"
 sodipodi:cy="456.139"
 sodipodi:rx="82.7315"
 sodipodi:ry="88.3883"
 d="M 145.664,456.139 A 82.7315,88.3883 0 1 1 -19.799,456.139 82.7315,88.3883 0 1 1 145.664,456.139 z"
 transform="matrix(1.08345,0,0,1.01697,70.5984,410.102)" />
<path
 transform="matrix(1.08345,0,0,1.01697,193.598,337.102)"
 d="M 145.664,456.139 A 82.7315,88.3883 0 1 1 -19.799,456.139 82.7315,88.3883 0 1 1 145.664,456.139 z"
 sodipodi:ry="88.3883"
 sodipodi:rx="82.7315"
 sodipodi:cy="456.139"
 sodipodi:cx="62.9325"
 id="path4010"
 style="fill:#007745;fill-opacity:1;fill-rule:nonzero;stroke:none;display:inline"
 sodipodi:type="arc" />
<path
 sodipodi:type="arc"
 style="fill:#007745;fill-opacity:1;fill-rule:nonzero;stroke:none;display:inline"
 id="path4012"
 sodipodi:cx="62.9325"
 sodipodi:cy="456.139"
 sodipodi:rx="82.7315"
 sodipodi:ry="88.3883"
 d="M 145.664,456.139 A 82.7315,88.3883 0 1 1 -19.799,456.139 82.7315,88.3883 0 1 1 145.664,456.139 z"
 transform="matrix(1.08345,0,0,1.01697,199.598,455.102)" />
<path
 transform="matrix(1.08345,0,0,1.01697,315.598,377.102)"
 d="M 145.664,456.139 A 82.7315,88.3883 0 1 1 -19.799,456.139 82.7315,88.3883 0 1 1 145.664,456.139 z"
 sodipodi:ry="88.3883"
 sodipodi:rx="82.7315"
 sodipodi:cy="456.139"
 sodipodi:cx="62.9325"
 id="path4014"
 style="fill:#007745;fill-opacity:1;fill-rule:nonzero;stroke:none;display:inline"
 sodipodi:type="arc" />
<path
 sodipodi:type="arc"
 style="fill:#007745;fill-opacity:1;fill-rule:nonzero;stroke:none;display:inline"
 id="path4016"
 sodipodi:cx="62.9325"
 sodipodi:cy="456.139"
 sodipodi:rx="82.7315"
 sodipodi:ry="88.3883"
 d="M 145.664,456.139 A 82.7315,88.3883 0 1 1 -19.799,456.139 82.7315,88.3883 0 1 1 145.664,456.139 z"
 transform="matrix(1.08345,0,0,1.01697,583.598,455.102)" />
<path
 transform="matrix(1.08345,0,0,1.01697,679.598,411.102)"
 d="M 145.664,456.139 A 82.7315,88.3883 0 1 1 -19.799,456.139 82.7315,88.3883 0 1 1 145.664,456.139 z"
 sodipodi:ry="88.3883"
 sodipodi:rx="82.7315"
 sodipodi:cy="456.139"
 sodipodi:cx="62.9325"
 id="path4018"
 style="fill:#007745;fill-opacity:1;fill-rule:nonzero;stroke:none;display:inline"
 sodipodi:type="arc" />
<path
 sodipodi:type="arc"
 style="fill:#007745;fill-opacity:1;fill-rule:nonzero;stroke:none;display:inline"
 id="path4020"
 sodipodi:cx="62.9325"
 sodipodi:cy="456.139"
 sodipodi:rx="82.7315"
 sodipodi:ry="88.3883"
 d="M 145.664,456.139 A 82.7315,88.3883 0 1 1 -19.799,456.139 82.7315,88.3883 0 1 1 145.664,456.139 z"
 transform="matrix(1.08345,0,0,1.01697,805.598,463.102)" />
<path
 transform="matrix(1.08345,0,0,1.01697,943.598,433.102)"
 d="M 145.664,456.139 A 82.7315,88.3883 0 1 1 -19.799,456.139 82.7315,88.3883 0 1 1 145.664,456.139 z"
 sodipodi:ry="88.3883"
 sodipodi:rx="82.7315"
 sodipodi:cy="456.139"
 sodipodi:cx="62.9325"
 id="path4022"
 style="fill:#007745;fill-opacity:1;fill-rule:nonzero;stroke:none;display:inline"
 sodipodi:type="arc" />
<path
 sodipodi:type="arc"
 style="fill:#007745;fill-opacity:1;fill-rule:nonzero;stroke:none;display:inline"
 id="path4024"
 sodipodi:cx="62.9325"
 sodipodi:cy="456.139"
 sodipodi:rx="82.7315"
 sodipodi:ry="88.3883"
 d="M 145.664,456.139 A 82.7315,88.3883 0 1 1 -19.799,456.139 82.7315,88.3883 0 1 1 145.664,456.139 z"
 transform="matrix(1.08345,0,0,1.01697,439.598,449.102)" />
<path
 transform="matrix(0.577211,0,0,0.541794,415.575,593.848)"
 d="M 145.664,456.139 A 82.7315,88.3883 0 1 1 -19.799,456.139 82.7315,88.3883 0 1 1 145.664,456.139 z"
 sodipodi:ry="88.3883"
 sodipodi:rx="82.7315"
 sodipodi:cy="456.139"
 sodipodi:cx="62.9325"
 id="path4026"
 style="fill:#007745;fill-opacity:1;fill-rule:nonzero;stroke:none;display:inline"
 sodipodi:type="arc" />
<path
 sodipodi:type="arc"
 style="fill:#007745;fill-opacity:1;fill-rule:nonzero;stroke:none;display:inline"
 id="path4028"
 sodipodi:cx="62.9325"
 sodipodi:cy="456.139"
 sodipodi:rx="82.7315"
 sodipodi:ry="88.3883"
 d="M 145.664,456.139 A 82.7315,88.3883 0 1 1 -19.799,456.139 82.7315,88.3883 0 1 1 145.664,456.139 z"
 transform="matrix(0.577211,0,0,0.541794,153.575,571.848)" />
<path
 transform="matrix(0.324092,0,0,0.304206,44.5635,693.221)"
 d="M 145.664,456.139 A 82.7315,88.3883 0 1 1 -19.799,456.139 82.7315,88.3883 0 1 1 145.664,456.139 z"
 sodipodi:ry="88.3883"
 sodipodi:rx="82.7315"
 sodipodi:cy="456.139"
 sodipodi:cx="62.9325"
 id="path4030"
 style="fill:#007745;fill-opacity:1;fill-rule:nonzero;stroke:none;display:inline"
 sodipodi:type="arc" />
<path
 sodipodi:type="arc"
 style="fill:#007745;fill-opacity:1;fill-rule:nonzero;stroke:none;display:inline"
 id="path4032"
 sodipodi:cx="62.9325"
 sodipodi:cy="456.139"
 sodipodi:rx="82.7315"
 sodipodi:ry="88.3883"
 d="M 145.664,456.139 A 82.7315,88.3883 0 1 1 -19.799,456.139 82.7315,88.3883 0 1 1 145.664,456.139 z"
 transform="matrix(0.324092,0,0,0.304206,558.563,727.221)" />
<path
 transform="matrix(0.324092,0,0,0.304206,648.563,697.221)"
 d="M 145.664,456.139 A 82.7315,88.3883 0 1 1 -19.799,456.139 82.7315,88.3883 0 1 1 145.664,456.139 z"
 sodipodi:ry="88.3883"
 sodipodi:rx="82.7315"
 sodipodi:cy="456.139"
 sodipodi:cx="62.9325"
 id="path4034"
 style="fill:#007745;fill-opacity:1;fill-rule:nonzero;stroke:none;display:inline"
 sodipodi:type="arc" />
<path
 sodipodi:type="arc"
 style="fill:#007745;fill-opacity:1;fill-rule:nonzero;stroke:none;display:inline"
 id="path4036"
 sodipodi:cx="62.9325"
 sodipodi:cy="456.139"
 sodipodi:rx="82.7315"
 sodipodi:ry="88.3883"
 d="M 145.664,456.139 A 82.7315,88.3883 0 1 1 -19.799,456.139 82.7315,88.3883 0 1 1 145.664,456.139 z"
 transform="matrix(0.324092,0,0,0.304206,804.563,721.221)" />
<path
 transform="matrix(0.324092,0,0,0.304206,348.563,803.221)"
 d="M 145.664,456.139 A 82.7315,88.3883 0 1 1 -19.799,456.139 82.7315,88.3883 0 1 1 145.664,456.139 z"
 sodipodi:ry="88.3883"
 sodipodi:rx="82.7315"
 sodipodi:cy="456.139"
 sodipodi:cx="62.9325"
 id="path4038"
 style="fill:#007745;fill-opacity:1;fill-rule:nonzero;stroke:none;display:inline"
 sodipodi:type="arc" />
<path
 sodipodi:type="arc"
 style="fill:#007745;fill-opacity:1;fill-rule:nonzero;stroke:none;display:inline"
 id="path4040"
 sodipodi:cx="62.9325"
 sodipodi:cy="456.139"
 sodipodi:rx="82.7315"
 sodipodi:ry="88.3883"
 d="M 145.664,456.139 A 82.7315,88.3883 0 1 1 -19.799,456.139 82.7315,88.3883 0 1 1 145.664,456.139 z"
 transform="matrix(0.783409,0,0,0.73534,343.657,630.671)" />
<path
 transform="matrix(0.783409,0,0,0.73534,85.657,622.671)"
 d="M 145.664,456.139 A 82.7315,88.3883 0 1 1 -19.799,456.139 82.7315,88.3883 0 1 1 145.664,456.139 z"
 sodipodi:ry="88.3883"
 sodipodi:rx="82.7315"
 sodipodi:cy="456.139"
 sodipodi:cx="62.9325"
 id="path4042"
 style="fill:#007745;fill-opacity:1;fill-rule:nonzero;stroke:none;display:inline"
 sodipodi:type="arc" />
<path
 sodipodi:type="arc"
 style="fill:#007745;fill-opacity:1;fill-rule:nonzero;stroke:none;display:inline"
 id="path4044"
 sodipodi:cx="62.9325"
 sodipodi:cy="456.139"
 sodipodi:rx="82.7315"
 sodipodi:ry="88.3883"
 d="M 145.664,456.139 A 82.7315,88.3883 0 1 1 -19.799,456.139 82.7315,88.3883 0 1 1 145.664,456.139 z"
 transform="matrix(0.783409,0,0,0.73534,711.657,610.671)" />
<path
 transform="matrix(0.611765,0,0,0.611765,-1170.08,823.93)"
 d="M 152.735,-43.0788 A 59.397,60.1041 0 1 1 33.9411,-43.0788 59.397,60.1041 0 1 1 152.735,-43.0788 z"
 sodipodi:ry="60.1041"
 sodipodi:rx="59.397"
 sodipodi:cy="-43.0788"
 sodipodi:cx="93.3381"
 id="path4163"
 style="fill:#a3c3dc;fill-opacity:1;fill-rule:nonzero;stroke:none"
 sodipodi:type="arc" />
<path
 sodipodi:type="arc"
 style="fill:#a3c3dc;fill-opacity:1;fill-rule:nonzero;stroke:none"
 id="path4165"
 sodipodi:cx="93.3381"
 sodipodi:cy="-43.0788"
 sodipodi:rx="59.397"
 sodipodi:ry="60.1041"
 d="M 152.735,-43.0788 A 59.397,60.1041 0 1 1 33.9411,-43.0788 59.397,60.1041 0 1 1 152.735,-43.0788 z"
 transform="matrix(0.611765,0,0,0.611765,-1116.34,802.717)" />
<path
 transform="matrix(0.445098,0,0,0.445098,-1058.35,769.964)"
 d="M 152.735,-43.0788 A 59.397,60.1041 0 1 1 33.9411,-43.0788 59.397,60.1041 0 1 1 152.735,-43.0788 z"
 sodipodi:ry="60.1041"
 sodipodi:rx="59.397"
 sodipodi:cy="-43.0788"
 sodipodi:cx="93.3381"
 id="path4167"
 style="fill:#a3c3dc;fill-opacity:1;fill-rule:nonzero;stroke:none"
 sodipodi:type="arc" />
<path
 sodipodi:type="arc"
 style="fill:#a3c3dc;fill-opacity:1;fill-rule:nonzero;stroke:none"
 id="path4169"
 sodipodi:cx="93.3381"
 sodipodi:cy="-43.0788"
 sodipodi:rx="59.397"
 sodipodi:ry="60.1041"
 d="M 152.735,-43.0788 A 59.397,60.1041 0 1 1 33.9411,-43.0788 59.397,60.1041 0 1 1 152.735,-43.0788 z"
 transform="matrix(0.445098,0,0,0.445098,-1028.66,794.006)" />
<path
 transform="matrix(0.445098,0,0,0.445098,-984.816,784.107)"
 d="M 152.735,-43.0788 A 59.397,60.1041 0 1 1 33.9411,-43.0788 59.397,60.1041 0 1 1 152.735,-43.0788 z"
 sodipodi:ry="60.1041"
 sodipodi:rx="59.397"
 sodipodi:cy="-43.0788"
 sodipodi:cx="93.3381"
 id="path4171"
 style="fill:#a3c3dc;fill-opacity:1;fill-rule:nonzero;stroke:none"
 sodipodi:type="arc" />
<path
 sodipodi:type="arc"
 style="fill:#a3c3dc;fill-opacity:1;fill-rule:nonzero;stroke:none"
 id="path4173"
 sodipodi:cx="93.3381"
 sodipodi:cy="-43.0788"
 sodipodi:rx="59.397"
 sodipodi:ry="60.1041"
 d="M 152.735,-43.0788 A 59.397,60.1041 0 1 1 33.9411,-43.0788 59.397,60.1041 0 1 1 152.735,-43.0788 z"
 transform="matrix(0.445098,0,0,0.445098,-939.561,779.864)" />
<path
 transform="matrix(0.598039,0,0,0.598039,-919.296,805.544)"
 d="M 152.735,-43.0788 A 59.397,60.1041 0 1 1 33.9411,-43.0788 59.397,60.1041 0 1 1 152.735,-43.0788 z"
 sodipodi:ry="60.1041"
 sodipodi:rx="59.397"
 sodipodi:cy="-43.0788"
 sodipodi:cx="93.3381"
 id="path4175"
 style="fill:#a3c3dc;fill-opacity:1;fill-rule:nonzero;stroke:none"
 sodipodi:type="arc" />
<path
 sodipodi:type="arc"
 style="fill:#a3c3dc;fill-opacity:1;fill-rule:nonzero;stroke:none"
 id="path4177"
 sodipodi:cx="93.3381"
 sodipodi:cy="-43.0788"
 sodipodi:rx="59.397"
 sodipodi:ry="60.1041"
 d="M 152.735,-43.0788 A 59.397,60.1041 0 1 1 33.9411,-43.0788 59.397,60.1041 0 1 1 152.735,-43.0788 z"
 transform="matrix(0.598039,0,0,0.598039,-871.213,797.059)" />
<path
 transform="matrix(0.598039,0,0,0.598039,-820.301,809.787)"
 d="M 152.735,-43.0788 A 59.397,60.1041 0 1 1 33.9411,-43.0788 59.397,60.1041 0 1 1 152.735,-43.0788 z"
 sodipodi:ry="60.1041"
 sodipodi:rx="59.397"
 sodipodi:cy="-43.0788"
 sodipodi:cx="93.3381"
 id="path4179"
 style="fill:#a3c3dc;fill-opacity:1;fill-rule:nonzero;stroke:none"
 sodipodi:type="arc" />
<path
 sodipodi:type="arc"
 style="fill:#a3c3dc;fill-opacity:1;fill-rule:nonzero;stroke:none"
 id="path4181"
 sodipodi:cx="93.3381"
 sodipodi:cy="-43.0788"
 sodipodi:rx="59.397"
 sodipodi:ry="60.1041"
 d="M 152.735,-43.0788 A 59.397,60.1041 0 1 1 33.9411,-43.0788 59.397,60.1041 0 1 1 152.735,-43.0788 z"
 transform="matrix(0.345501,0,0,0.345501,-814.73,766.729)" />
<path
 transform="matrix(0.555949,0,0,0.555949,-793.873,793.444)"
 d="M 152.735,-43.0788 A 59.397,60.1041 0 1 1 33.9411,-43.0788 59.397,60.1041 0 1 1 152.735,-43.0788 z"
 sodipodi:ry="60.1041"
 sodipodi:rx="59.397"
 sodipodi:cy="-43.0788"
 sodipodi:cx="93.3381"
 id="path4183"
 style="fill:#a3c3dc;fill-opacity:1;fill-rule:nonzero;stroke:none"
 sodipodi:type="arc" />
<path
 sodipodi:type="arc"
 style="fill:#a3c3dc;fill-opacity:1;fill-rule:nonzero;stroke:none"
 id="path4185"
 sodipodi:cx="93.3381"
 sodipodi:cy="-43.0788"
 sodipodi:rx="59.397"
 sodipodi:ry="60.1041"
 d="M 152.735,-43.0788 A 59.397,60.1041 0 1 1 33.9411,-43.0788 59.397,60.1041 0 1 1 152.735,-43.0788 z"
 transform="matrix(0.555949,0,0,0.555949,-745.873,805.444)" />
<path
 transform="matrix(0.42968,0,0,0.42968,-753.587,772.415)"
 d="M 152.735,-43.0788 A 59.397,60.1041 0 1 1 33.9411,-43.0788 59.397,60.1041 0 1 1 152.735,-43.0788 z"
 sodipodi:ry="60.1041"
 sodipodi:rx="59.397"
 sodipodi:cy="-43.0788"
 sodipodi:cx="93.3381"
 id="path4187"
 style="fill:#a3c3dc;fill-opacity:1;fill-rule:nonzero;stroke:none"
 sodipodi:type="arc" />
<path
 sodipodi:type="arc"
 style="fill:#a3c3dc;fill-opacity:1;fill-rule:nonzero;stroke:none"
 id="path4189"
 sodipodi:cx="93.3381"
 sodipodi:cy="-43.0788"
 sodipodi:rx="59.397"
 sodipodi:ry="60.1041"
 d="M 152.735,-43.0788 A 59.397,60.1041 0 1 1 33.9411,-43.0788 59.397,60.1041 0 1 1 152.735,-43.0788 z"
 transform="matrix(0.637653,0,0,0.637653,-701.646,808.874)" />
<path
 transform="matrix(0.637653,0,0,0.637653,-630.646,805.874)"
 d="M 152.735,-43.0788 A 59.397,60.1041 0 1 1 33.9411,-43.0788 59.397,60.1041 0 1 1 152.735,-43.0788 z"
 sodipodi:ry="60.1041"
 sodipodi:rx="59.397"
 sodipodi:cy="-43.0788"
 sodipodi:cx="93.3381"
 id="path4191"
 style="fill:#a3c3dc;fill-opacity:1;fill-rule:nonzero;stroke:none"
 sodipodi:type="arc" />
<path
 sodipodi:type="arc"
 style="fill:#a3c3dc;fill-opacity:1;fill-rule:nonzero;stroke:none"
 id="path4193"
 sodipodi:cx="93.3381"
 sodipodi:cy="-43.0788"
 sodipodi:rx="59.397"
 sodipodi:ry="60.1041"
 d="M 152.735,-43.0788 A 59.397,60.1041 0 1 1 33.9411,-43.0788 59.397,60.1041 0 1 1 152.735,-43.0788 z"
 transform="matrix(0.637653,0,0,0.637653,-565.646,806.874)" />
<path
 transform="matrix(0.469294,0,0,0.469294,-716.932,785.502)"
 d="M 152.735,-43.0788 A 59.397,60.1041 0 1 1 33.9411,-43.0788 59.397,60.1041 0 1 1 152.735,-43.0788 z"
 sodipodi:ry="60.1041"
 sodipodi:rx="59.397"
 sodipodi:cy="-43.0788"
 sodipodi:cx="93.3381"
 id="path4195"
 style="fill:#a3c3dc;fill-opacity:1;fill-rule:nonzero;stroke:none"
 sodipodi:type="arc" />
<path
 sodipodi:type="arc"
 style="fill:#a3c3dc;fill-opacity:1;fill-rule:nonzero;stroke:none"
 id="path4197"
 sodipodi:cx="93.3381"
 sodipodi:cy="-43.0788"
 sodipodi:rx="59.397"
 sodipodi:ry="60.1041"
 d="M 152.735,-43.0788 A 59.397,60.1041 0 1 1 33.9411,-43.0788 59.397,60.1041 0 1 1 152.735,-43.0788 z"
 transform="matrix(0.317771,0,0,0.317771,-636.789,777.867)" />
<path
 transform="matrix(0.317771,0,0,0.317771,-574.789,758.867)"
 d="M 152.735,-43.0788 A 59.397,60.1041 0 1 1 33.9411,-43.0788 59.397,60.1041 0 1 1 152.735,-43.0788 z"
 sodipodi:ry="60.1041"
 sodipodi:rx="59.397"
 sodipodi:cy="-43.0788"
 sodipodi:cx="93.3381"
 id="path4199"
 style="fill:#a3c3dc;fill-opacity:1;fill-rule:nonzero;stroke:none"
 sodipodi:type="arc" />
<path
 sodipodi:type="arc"
 style="fill:#a3c3dc;fill-opacity:1;fill-rule:nonzero;stroke:none"
 id="path4201"
 sodipodi:cx="93.3381"
 sodipodi:cy="-43.0788"
 sodipodi:rx="59.397"
 sodipodi:ry="60.1041"
 d="M 152.735,-43.0788 A 59.397,60.1041 0 1 1 33.9411,-43.0788 59.397,60.1041 0 1 1 152.735,-43.0788 z"
 transform="matrix(0.317771,0,0,0.317771,-544.789,755.867)" />
<path
 transform="matrix(0.317771,0,0,0.317771,-516.789,763.867)"
 d="M 152.735,-43.0788 A 59.397,60.1041 0 1 1 33.9411,-43.0788 59.397,60.1041 0 1 1 152.735,-43.0788 z"
 sodipodi:ry="60.1041"
 sodipodi:rx="59.397"
 sodipodi:cy="-43.0788"
 sodipodi:cx="93.3381"
 id="path4203"
 style="fill:#a3c3dc;fill-opacity:1;fill-rule:nonzero;stroke:none"
 sodipodi:type="arc" />
<path
 sodipodi:type="arc"
 style="fill:#a3c3dc;fill-opacity:1;fill-rule:nonzero;stroke:none"
 id="path4205"
 sodipodi:cx="93.3381"
 sodipodi:cy="-43.0788"
 sodipodi:rx="59.397"
 sodipodi:ry="60.1041"
 d="M 152.735,-43.0788 A 59.397,60.1041 0 1 1 33.9411,-43.0788 59.397,60.1041 0 1 1 152.735,-43.0788 z"
 transform="matrix(0.587145,0,0,0.587145,-506.932,799.662)" />
<path
 transform="matrix(0.587145,0,0,0.587145,-506.932,799.662)"
 d="M 152.735,-43.0788 A 59.397,60.1041 0 1 1 33.9411,-43.0788 59.397,60.1041 0 1 1 152.735,-43.0788 z"
 sodipodi:ry="60.1041"
 sodipodi:rx="59.397"
 sodipodi:cy="-43.0788"
 sodipodi:cx="93.3381"
 id="path4207"
 style="fill:#a3c3dc;fill-opacity:1;fill-rule:nonzero;stroke:none"
 sodipodi:type="arc" />
<path
 sodipodi:type="arc"
 style="fill:#a3c3dc;fill-opacity:1;fill-rule:nonzero;stroke:none"
 id="path4209"
 sodipodi:cx="93.3381"
 sodipodi:cy="-43.0788"
 sodipodi:rx="59.397"
 sodipodi:ry="60.1041"
 d="M 152.735,-43.0788 A 59.397,60.1041 0 1 1 33.9411,-43.0788 59.397,60.1041 0 1 1 152.735,-43.0788 z"
 transform="matrix(0.587145,0,0,0.587145,-453.932,784.662)" />
<path
 transform="matrix(0.587145,0,0,0.587145,-423.932,798.662)"
 d="M 152.735,-43.0788 A 59.397,60.1041 0 1 1 33.9411,-43.0788 59.397,60.1041 0 1 1 152.735,-43.0788 z"
 sodipodi:ry="60.1041"
 sodipodi:rx="59.397"
 sodipodi:cy="-43.0788"
 sodipodi:cx="93.3381"
 id="path4211"
 style="fill:#a3c3dc;fill-opacity:1;fill-rule:nonzero;stroke:none"
 sodipodi:type="arc" />
<path
 sodipodi:type="arc"
 style="fill:#a3c3dc;fill-opacity:1;fill-rule:nonzero;stroke:none"
 id="path4213"
 sodipodi:cx="93.3381"
 sodipodi:cy="-43.0788"
 sodipodi:rx="59.397"
 sodipodi:ry="60.1041"
 d="M 152.735,-43.0788 A 59.397,60.1041 0 1 1 33.9411,-43.0788 59.397,60.1041 0 1 1 152.735,-43.0788 z"
 transform="matrix(0.587145,0,0,0.587145,-372.932,785.662)" />
<path
 transform="matrix(0.587145,0,0,0.587145,-339.932,813.662)"
 d="M 152.735,-43.0788 A 59.397,60.1041 0 1 1 33.9411,-43.0788 59.397,60.1041 0 1 1 152.735,-43.0788 z"
 sodipodi:ry="60.1041"
 sodipodi:rx="59.397"
 sodipodi:cy="-43.0788"
 sodipodi:cx="93.3381"
 id="path4215"
 style="fill:#a3c3dc;fill-opacity:1;fill-rule:nonzero;stroke:none"
 sodipodi:type="arc" />
<path
 sodipodi:type="arc"
 style="fill:#a3c3dc;fill-opacity:1;fill-rule:nonzero;stroke:none"
 id="path4217"
 sodipodi:cx="93.3381"
 sodipodi:cy="-43.0788"
 sodipodi:rx="59.397"
 sodipodi:ry="60.1041"
 d="M 152.735,-43.0788 A 59.397,60.1041 0 1 1 33.9411,-43.0788 59.397,60.1041 0 1 1 152.735,-43.0788 z"
 transform="matrix(0.587145,0,0,0.587145,-324.932,778.662)" />
<path
 transform="matrix(0.587145,0,0,0.587145,-291.932,822.662)"
 d="M 152.735,-43.0788 A 59.397,60.1041 0 1 1 33.9411,-43.0788 59.397,60.1041 0 1 1 152.735,-43.0788 z"
 sodipodi:ry="60.1041"
 sodipodi:rx="59.397"
 sodipodi:cy="-43.0788"
 sodipodi:cx="93.3381"
 id="path4219"
 style="fill:#a3c3dc;fill-opacity:1;fill-rule:nonzero;stroke:none"
 sodipodi:type="arc" />
<path
 sodipodi:type="arc"
 style="fill:#a3c3dc;fill-opacity:1;fill-rule:nonzero;stroke:none"
 id="path4221"
 sodipodi:cx="93.3381"
 sodipodi:cy="-43.0788"
 sodipodi:rx="59.397"
 sodipodi:ry="60.1041"
 d="M 152.735,-43.0788 A 59.397,60.1041 0 1 1 33.9411,-43.0788 59.397,60.1041 0 1 1 152.735,-43.0788 z"
 transform="matrix(0.587145,0,0,0.587145,-270.932,787.662)" />
<path
 transform="matrix(0.587145,0,0,0.587145,-237.932,822.662)"
 d="M 152.735,-43.0788 A 59.397,60.1041 0 1 1 33.9411,-43.0788 59.397,60.1041 0 1 1 152.735,-43.0788 z"
 sodipodi:ry="60.1041"
 sodipodi:rx="59.397"
 sodipodi:cy="-43.0788"
 sodipodi:cx="93.3381"
 id="path4223"
 style="fill:#a3c3dc;fill-opacity:1;fill-rule:nonzero;stroke:none"
 sodipodi:type="arc" />
<path
 sodipodi:type="arc"
 style="fill:#a3c3dc;fill-opacity:1;fill-rule:nonzero;stroke:none"
 id="path4225"
 sodipodi:cx="93.3381"
 sodipodi:cy="-43.0788"
 sodipodi:rx="59.397"
 sodipodi:ry="60.1041"
 d="M 152.735,-43.0788 A 59.397,60.1041 0 1 1 33.9411,-43.0788 59.397,60.1041 0 1 1 152.735,-43.0788 z"
 transform="matrix(0.587145,0,0,0.587145,-203.932,786.662)" />
<path
 transform="matrix(0.587145,0,0,0.587145,-184.932,814.662)"
 d="M 152.735,-43.0788 A 59.397,60.1041 0 1 1 33.9411,-43.0788 59.397,60.1041 0 1 1 152.735,-43.0788 z"
 sodipodi:ry="60.1041"
 sodipodi:rx="59.397"
 sodipodi:cy="-43.0788"
 sodipodi:cx="93.3381"
 id="path4227"
 style="fill:#a3c3dc;fill-opacity:1;fill-rule:nonzero;stroke:none"
 sodipodi:type="arc" />
<path
 sodipodi:type="arc"
 style="fill:#a3c3dc;fill-opacity:1;fill-rule:nonzero;stroke:none"
 id="path4229"
 sodipodi:cx="93.3381"
 sodipodi:cy="-43.0788"
 sodipodi:rx="59.397"
 sodipodi:ry="60.1041"
 d="M 152.735,-43.0788 A 59.397,60.1041 0 1 1 33.9411,-43.0788 59.397,60.1041 0 1 1 152.735,-43.0788 z"
 transform="matrix(0.587145,0,0,0.587145,-156.932,771.662)" />
<path
 transform="matrix(0.327873,0,0,0.327873,-215.132,764.91)"
 d="M 152.735,-43.0788 A 59.397,60.1041 0 1 1 33.9411,-43.0788 59.397,60.1041 0 1 1 152.735,-43.0788 z"
 sodipodi:ry="60.1041"
 sodipodi:rx="59.397"
 sodipodi:cy="-43.0788"
 sodipodi:cx="93.3381"
 id="path4231"
 style="fill:#a3c3dc;fill-opacity:1;fill-rule:nonzero;stroke:none"
 sodipodi:type="arc" />
<path
 sodipodi:type="arc"
 style="fill:#b6daf6;fill-opacity:1;fill-rule:nonzero;stroke:none"
 id="path4288"
 sodipodi:cx="93.3381"
 sodipodi:cy="-43.0788"
 sodipodi:rx="59.397"
 sodipodi:ry="60.1041"
 d="M 152.735,-43.0788 A 59.397,60.1041 0 1 1 33.9411,-43.0788 59.397,60.1041 0 1 1 152.735,-43.0788 z"
 transform="matrix(0.598039,0,0,0.598039,-1165.74,948.96)" />
<path
 transform="matrix(0.598039,0,0,0.598039,-1112,937.646)"
 d="M 152.735,-43.0788 A 59.397,60.1041 0 1 1 33.9411,-43.0788 59.397,60.1041 0 1 1 152.735,-43.0788 z"
 sodipodi:ry="60.1041"
 sodipodi:rx="59.397"
 sodipodi:cy="-43.0788"
 sodipodi:cx="93.3381"
 id="path4290"
 style="fill:#b6daf6;fill-opacity:1;fill-rule:nonzero;stroke:none"
 sodipodi:type="arc" />
<path
 sodipodi:type="arc"
 style="fill:#b6daf6;fill-opacity:1;fill-rule:nonzero;stroke:none"
 id="path4292"
 sodipodi:cx="93.3381"
 sodipodi:cy="-43.0788"
 sodipodi:rx="59.397"
 sodipodi:ry="60.1041"
 d="M 152.735,-43.0788 A 59.397,60.1041 0 1 1 33.9411,-43.0788 59.397,60.1041 0 1 1 152.735,-43.0788 z"
 transform="matrix(0.598039,0,0,0.598039,-1063.92,923.504)" />
<path
 transform="matrix(0.455182,0,0,0.455182,-1026.54,929.977)"
 d="M 152.735,-43.0788 A 59.397,60.1041 0 1 1 33.9411,-43.0788 59.397,60.1041 0 1 1 152.735,-43.0788 z"
 sodipodi:ry="60.1041"
 sodipodi:rx="59.397"
 sodipodi:cy="-43.0788"
 sodipodi:cx="93.3381"
 id="path4294"
 style="fill:#b6daf6;fill-opacity:1;fill-rule:nonzero;stroke:none"
 sodipodi:type="arc" />
<path
 sodipodi:type="arc"
 style="fill:#b6daf6;fill-opacity:1;fill-rule:nonzero;stroke:none"
 id="path4296"
 sodipodi:cx="93.3381"
 sodipodi:cy="-43.0788"
 sodipodi:rx="59.397"
 sodipodi:ry="60.1041"
 d="M 152.735,-43.0788 A 59.397,60.1041 0 1 1 33.9411,-43.0788 59.397,60.1041 0 1 1 152.735,-43.0788 z"
 transform="matrix(0.455182,0,0,0.455182,-1002.5,907.35)" />
<path
 transform="matrix(0.455182,0,0,0.455182,-978.456,935.634)"
 d="M 152.735,-43.0788 A 59.397,60.1041 0 1 1 33.9411,-43.0788 59.397,60.1041 0 1 1 152.735,-43.0788 z"
 sodipodi:ry="60.1041"
 sodipodi:rx="59.397"
 sodipodi:cy="-43.0788"
 sodipodi:cx="93.3381"
 id="path4298"
 style="fill:#b6daf6;fill-opacity:1;fill-rule:nonzero;stroke:none"
 sodipodi:type="arc" />
<path
 sodipodi:type="arc"
 style="fill:#b6daf6;fill-opacity:1;fill-rule:nonzero;stroke:none"
 id="path4300"
 sodipodi:cx="93.3381"
 sodipodi:cy="-43.0788"
 sodipodi:rx="59.397"
 sodipodi:ry="60.1041"
 d="M 152.735,-43.0788 A 59.397,60.1041 0 1 1 33.9411,-43.0788 59.397,60.1041 0 1 1 152.735,-43.0788 z"
 transform="matrix(0.455182,0,0,0.455182,-962.9,900.279)" />
<path
 transform="matrix(0.455182,0,0,0.455182,-933.202,931.392)"
 d="M 152.735,-43.0788 A 59.397,60.1041 0 1 1 33.9411,-43.0788 59.397,60.1041 0 1 1 152.735,-43.0788 z"
 sodipodi:ry="60.1041"
 sodipodi:rx="59.397"
 sodipodi:cy="-43.0788"
 sodipodi:cx="93.3381"
 id="path4302"
 style="fill:#b6daf6;fill-opacity:1;fill-rule:nonzero;stroke:none"
 sodipodi:type="arc" />
<path
 sodipodi:type="arc"
 style="fill:#b6daf6;fill-opacity:1;fill-rule:nonzero;stroke:none"
 id="path4304"
 sodipodi:cx="93.3381"
 sodipodi:cy="-43.0788"
 sodipodi:rx="59.397"
 sodipodi:ry="60.1041"
 d="M 152.735,-43.0788 A 59.397,60.1041 0 1 1 33.9411,-43.0788 59.397,60.1041 0 1 1 152.735,-43.0788 z"
 transform="matrix(0.455182,0,0,0.455182,-880.876,922.907)" />
<path
 transform="matrix(0.455182,0,0,0.455182,-835.621,910.179)"
 d="M 152.735,-43.0788 A 59.397,60.1041 0 1 1 33.9411,-43.0788 59.397,60.1041 0 1 1 152.735,-43.0788 z"
 sodipodi:ry="60.1041"
 sodipodi:rx="59.397"
 sodipodi:cy="-43.0788"
 sodipodi:cx="93.3381"
 id="path4306"
 style="fill:#b6daf6;fill-opacity:1;fill-rule:nonzero;stroke:none"
 sodipodi:type="arc" />
<path
 sodipodi:type="arc"
 style="fill:#b6daf6;fill-opacity:1;fill-rule:nonzero;stroke:none"
 id="path4308"
 sodipodi:cx="93.3381"
 sodipodi:cy="-43.0788"
 sodipodi:rx="59.397"
 sodipodi:ry="60.1041"
 d="M 152.735,-43.0788 A 59.397,60.1041 0 1 1 33.9411,-43.0788 59.397,60.1041 0 1 1 152.735,-43.0788 z"
 transform="matrix(0.455182,0,0,0.455182,-793.195,931.392)" />
<path
 transform="matrix(0.455182,0,0,0.455182,-902.089,946.948)"
 d="M 152.735,-43.0788 A 59.397,60.1041 0 1 1 33.9411,-43.0788 59.397,60.1041 0 1 1 152.735,-43.0788 z"
 sodipodi:ry="60.1041"
 sodipodi:rx="59.397"
 sodipodi:cy="-43.0788"
 sodipodi:cx="93.3381"
 id="path4310"
 style="fill:#b6daf6;fill-opacity:1;fill-rule:nonzero;stroke:none"
 sodipodi:type="arc" />
<path
 sodipodi:type="arc"
 style="fill:#b6daf6;fill-opacity:1;fill-rule:nonzero;stroke:none"
 id="path4312"
 sodipodi:cx="93.3381"
 sodipodi:cy="-43.0788"
 sodipodi:rx="59.397"
 sodipodi:ry="60.1041"
 d="M 152.735,-43.0788 A 59.397,60.1041 0 1 1 33.9411,-43.0788 59.397,60.1041 0 1 1 152.735,-43.0788 z"
 transform="matrix(0.572829,0,0,0.572829,-859.413,946.359)" />
<path
 transform="matrix(0.3399,0,0,0.3399,-913.507,908.325)"
 d="M 152.735,-43.0788 A 59.397,60.1041 0 1 1 33.9411,-43.0788 59.397,60.1041 0 1 1 152.735,-43.0788 z"
 sodipodi:ry="60.1041"
 sodipodi:rx="59.397"
 sodipodi:cy="-43.0788"
 sodipodi:cx="93.3381"
 id="path4314"
 style="fill:#b6daf6;fill-opacity:1;fill-rule:nonzero;stroke:none"
 sodipodi:type="arc" />
<path
 transform="matrix(0.377801,0,0,0.377801,-750.971,927.65)"
 d="M 152.735,-43.0788 A 59.397,60.1041 0 1 1 33.9411,-43.0788 59.397,60.1041 0 1 1 152.735,-43.0788 z"
 sodipodi:ry="60.1041"
 sodipodi:rx="59.397"
 sodipodi:cy="-43.0788"
 sodipodi:cx="93.3381"
 id="path4316"
 style="fill:#b6daf6;fill-opacity:1;fill-rule:nonzero;stroke:none"
 sodipodi:type="arc" />
<path
 sodipodi:type="arc"
 style="fill:#b6daf6;fill-opacity:1;fill-rule:nonzero;stroke:none"
 id="path4318"
 sodipodi:cx="93.3381"
 sodipodi:cy="-43.0788"
 sodipodi:rx="59.397"
 sodipodi:ry="60.1041"
 d="M 152.735,-43.0788 A 59.397,60.1041 0 1 1 33.9411,-43.0788 59.397,60.1041 0 1 1 152.735,-43.0788 z"
 transform="matrix(0.377801,0,0,0.377801,-724.808,931.185)" />
<path
 transform="matrix(0.377801,0,0,0.377801,-687.331,927.649)"
 d="M 152.735,-43.0788 A 59.397,60.1041 0 1 1 33.9411,-43.0788 59.397,60.1041 0 1 1 152.735,-43.0788 z"
 sodipodi:ry="60.1041"
 sodipodi:rx="59.397"
 sodipodi:cy="-43.0788"
 sodipodi:cx="93.3381"
 id="path4320"
 style="fill:#b6daf6;fill-opacity:1;fill-rule:nonzero;stroke:none"
 sodipodi:type="arc" />
<path
 sodipodi:type="arc"
 style="fill:#b6daf6;fill-opacity:1;fill-rule:nonzero;stroke:none"
 id="path4322"
 sodipodi:cx="93.3381"
 sodipodi:cy="-43.0788"
 sodipodi:rx="59.397"
 sodipodi:ry="60.1041"
 d="M 152.735,-43.0788 A 59.397,60.1041 0 1 1 33.9411,-43.0788 59.397,60.1041 0 1 1 152.735,-43.0788 z"
 transform="matrix(0.254272,0,0,0.254272,-791.325,904.296)" />
<path
 transform="matrix(0.254272,0,0,0.254272,-885.37,907.124)"
 d="M 152.735,-43.0788 A 59.397,60.1041 0 1 1 33.9411,-43.0788 59.397,60.1041 0 1 1 152.735,-43.0788 z"
 sodipodi:ry="60.1041"
 sodipodi:rx="59.397"
 sodipodi:cy="-43.0788"
 sodipodi:cx="93.3381"
 id="path4324"
 style="fill:#b6daf6;fill-opacity:1;fill-rule:nonzero;stroke:none"
 sodipodi:type="arc" />
<path
 sodipodi:type="arc"
 style="fill:#b6daf6;fill-opacity:1;fill-rule:nonzero;stroke:none"
 id="path4326"
 sodipodi:cx="93.3381"
 sodipodi:cy="-43.0788"
 sodipodi:rx="59.397"
 sodipodi:ry="60.1041"
 d="M 152.735,-43.0788 A 59.397,60.1041 0 1 1 33.9411,-43.0788 59.397,60.1041 0 1 1 152.735,-43.0788 z"
 transform="matrix(0.366037,0,0,0.366037,-656.525,931.384)" />
<path
 transform="matrix(0.366037,0,0,0.366037,-631.776,917.242)"
 d="M 152.735,-43.0788 A 59.397,60.1041 0 1 1 33.9411,-43.0788 59.397,60.1041 0 1 1 152.735,-43.0788 z"
 sodipodi:ry="60.1041"
 sodipodi:rx="59.397"
 sodipodi:cy="-43.0788"
 sodipodi:cx="93.3381"
 id="path4328"
 style="fill:#b6daf6;fill-opacity:1;fill-rule:nonzero;stroke:none"
 sodipodi:type="arc" />
<path
 sodipodi:type="arc"
 style="fill:#b6daf6;fill-opacity:1;fill-rule:nonzero;stroke:none"
 id="path4330"
 sodipodi:cx="93.3381"
 sodipodi:cy="-43.0788"
 sodipodi:rx="59.397"
 sodipodi:ry="60.1041"
 d="M 152.735,-43.0788 A 59.397,60.1041 0 1 1 33.9411,-43.0788 59.397,60.1041 0 1 1 152.735,-43.0788 z"
 transform="matrix(0.366037,0,0,0.366037,-616.22,936.334)" />
<path
 transform="matrix(0.366037,0,0,0.366037,-580.865,922.192)"
 d="M 152.735,-43.0788 A 59.397,60.1041 0 1 1 33.9411,-43.0788 59.397,60.1041 0 1 1 152.735,-43.0788 z"
 sodipodi:ry="60.1041"
 sodipodi:rx="59.397"
 sodipodi:cy="-43.0788"
 sodipodi:cx="93.3381"
 id="path4332"
 style="fill:#b6daf6;fill-opacity:1;fill-rule:nonzero;stroke:none"
 sodipodi:type="arc" />
<path
 sodipodi:type="arc"
 style="fill:#b6daf6;fill-opacity:1;fill-rule:nonzero;stroke:none"
 id="path4334"
 sodipodi:cx="93.3381"
 sodipodi:cy="-43.0788"
 sodipodi:rx="59.397"
 sodipodi:ry="60.1041"
 d="M 152.735,-43.0788 A 59.397,60.1041 0 1 1 33.9411,-43.0788 59.397,60.1041 0 1 1 152.735,-43.0788 z"
 transform="matrix(0.366037,0,0,0.366037,-611.271,926.435)" />
<path
 transform="matrix(0.366037,0,0,0.366037,-546.217,915.828)"
 d="M 152.735,-43.0788 A 59.397,60.1041 0 1 1 33.9411,-43.0788 59.397,60.1041 0 1 1 152.735,-43.0788 z"
 sodipodi:ry="60.1041"
 sodipodi:rx="59.397"
 sodipodi:cy="-43.0788"
 sodipodi:cx="93.3381"
 id="path4336"
 style="fill:#b6daf6;fill-opacity:1;fill-rule:nonzero;stroke:none"
 sodipodi:type="arc" />
<path
 inkscape:transform-center-y="4.94975"
 inkscape:transform-center-x="-11.3137"
 sodipodi:type="arc"
 style="fill:#b6daf6;fill-opacity:1;fill-rule:nonzero;stroke:none"
 id="path4338"
 sodipodi:cx="93.3381"
 sodipodi:cy="-43.0788"
 sodipodi:rx="59.397"
 sodipodi:ry="60.1041"
 d="M 152.735,-43.0788 A 59.397,60.1041 0 1 1 33.9411,-43.0788 59.397,60.1041 0 1 1 152.735,-43.0788 z"
 transform="matrix(0.366037,0,0,0.366037,-515.812,916.535)" />
<path
 transform="matrix(0.252942,0,0,0.252942,-481.567,911.23)"
 d="M 152.735,-43.0788 A 59.397,60.1041 0 1 1 33.9411,-43.0788 59.397,60.1041 0 1 1 152.735,-43.0788 z"
 sodipodi:ry="60.1041"
 sodipodi:rx="59.397"
 sodipodi:cy="-43.0788"
 sodipodi:cx="93.3381"
 id="path4340"
 style="fill:#b6daf6;fill-opacity:1;fill-rule:nonzero;stroke:none"
 sodipodi:type="arc"
 inkscape:transform-center-x="-7.81853"
 inkscape:transform-center-y="3.4209" />
<path
 inkscape:transform-center-y="3.4209"
 inkscape:transform-center-x="-7.81853"
 sodipodi:type="arc"
 style="fill:#b6daf6;fill-opacity:1;fill-rule:nonzero;stroke:none"
 id="path4342"
 sodipodi:cx="93.3381"
 sodipodi:cy="-43.0788"
 sodipodi:rx="59.397"
 sodipodi:ry="60.1041"
 d="M 152.735,-43.0788 A 59.397,60.1041 0 1 1 33.9411,-43.0788 59.397,60.1041 0 1 1 152.735,-43.0788 z"
 transform="matrix(0.252942,0,0,0.252942,-458.232,919.008)" />
<path
 transform="matrix(0.252942,0,0,0.252942,-438.433,903.452)"
 d="M 152.735,-43.0788 A 59.397,60.1041 0 1 1 33.9411,-43.0788 59.397,60.1041 0 1 1 152.735,-43.0788 z"
 sodipodi:ry="60.1041"
 sodipodi:rx="59.397"
 sodipodi:cy="-43.0788"
 sodipodi:cx="93.3381"
 id="path4344"
 style="fill:#b6daf6;fill-opacity:1;fill-rule:nonzero;stroke:none"
 sodipodi:type="arc"
 inkscape:transform-center-x="-7.81853"
 inkscape:transform-center-y="3.4209" />
<path
 inkscape:transform-center-y="3.4209"
 inkscape:transform-center-x="-7.81853"
 sodipodi:type="arc"
 style="fill:#b6daf6;fill-opacity:1;fill-rule:nonzero;stroke:none"
 id="path4346"
 sodipodi:cx="93.3381"
 sodipodi:cy="-43.0788"
 sodipodi:rx="59.397"
 sodipodi:ry="60.1041"
 d="M 152.735,-43.0788 A 59.397,60.1041 0 1 1 33.9411,-43.0788 59.397,60.1041 0 1 1 152.735,-43.0788 z"
 transform="matrix(0.252942,0,0,0.252942,-438.433,903.452)" />
<path
 transform="matrix(0.252942,0,0,0.252942,-417.22,907.695)"
 d="M 152.735,-43.0788 A 59.397,60.1041 0 1 1 33.9411,-43.0788 59.397,60.1041 0 1 1 152.735,-43.0788 z"
 sodipodi:ry="60.1041"
 sodipodi:rx="59.397"
 sodipodi:cy="-43.0788"
 sodipodi:cx="93.3381"
 id="path4348"
 style="fill:#b6daf6;fill-opacity:1;fill-rule:nonzero;stroke:none"
 sodipodi:type="arc"
 inkscape:transform-center-x="-7.81853"
 inkscape:transform-center-y="3.4209" />
<path
 inkscape:transform-center-y="4.69344"
 inkscape:transform-center-x="-10.7282"
 sodipodi:type="arc"
 style="fill:#b6daf6;fill-opacity:1;fill-rule:nonzero;stroke:none"
 id="path4350"
 sodipodi:cx="93.3381"
 sodipodi:cy="-43.0788"
 sodipodi:rx="59.397"
 sodipodi:ry="60.1041"
 d="M 152.735,-43.0788 A 59.397,60.1041 0 1 1 33.9411,-43.0788 59.397,60.1041 0 1 1 152.735,-43.0788 z"
 transform="matrix(0.34706,0,0,0.34706,-406.979,925.184)" />
<path
 transform="matrix(0.460155,0,0,0.460155,-377.585,926.953)"
 d="M 152.735,-43.0788 A 59.397,60.1041 0 1 1 33.9411,-43.0788 59.397,60.1041 0 1 1 152.735,-43.0788 z"
 sodipodi:ry="60.1041"
 sodipodi:rx="59.397"
 sodipodi:cy="-43.0788"
 sodipodi:cx="93.3381"
 id="path4352"
 style="fill:#b6daf6;fill-opacity:1;fill-rule:nonzero;stroke:none"
 sodipodi:type="arc"
 inkscape:transform-center-x="-14.2237"
 inkscape:transform-center-y="6.22239" />
<path
 inkscape:transform-center-y="6.22239"
 inkscape:transform-center-x="-14.2237"
 sodipodi:type="arc"
 style="fill:#b6daf6;fill-opacity:1;fill-rule:nonzero;stroke:none"
 id="path4354"
 sodipodi:cx="93.3381"
 sodipodi:cy="-43.0788"
 sodipodi:rx="59.397"
 sodipodi:ry="60.1041"
 d="M 152.735,-43.0788 A 59.397,60.1041 0 1 1 33.9411,-43.0788 59.397,60.1041 0 1 1 152.735,-43.0788 z"
 transform="matrix(0.460155,0,0,0.460155,-350.715,943.216)" />
<path
 transform="matrix(0.460155,0,0,0.460155,-309.703,953.823)"
 d="M 152.735,-43.0788 A 59.397,60.1041 0 1 1 33.9411,-43.0788 59.397,60.1041 0 1 1 152.735,-43.0788 z"
 sodipodi:ry="60.1041"
 sodipodi:rx="59.397"
 sodipodi:cy="-43.0788"
 sodipodi:cx="93.3381"
 id="path4356"
 style="fill:#b6daf6;fill-opacity:1;fill-rule:nonzero;stroke:none"
 sodipodi:type="arc"
 inkscape:transform-center-x="-14.2237"
 inkscape:transform-center-y="6.22239" />
<path
 inkscape:transform-center-y="6.22239"
 inkscape:transform-center-x="-14.2237"
 sodipodi:type="arc"
 style="fill:#b6daf6;fill-opacity:1;fill-rule:nonzero;stroke:none"
 id="path4358"
 sodipodi:cx="93.3381"
 sodipodi:cy="-43.0788"
 sodipodi:rx="59.397"
 sodipodi:ry="60.1041"
 d="M 152.735,-43.0788 A 59.397,60.1041 0 1 1 33.9411,-43.0788 59.397,60.1041 0 1 1 152.735,-43.0788 z"
 transform="matrix(0.460155,0,0,0.460155,-265.155,943.924)" />
<path
 transform="matrix(0.460155,0,0,0.460155,-224.85,943.217)"
 d="M 152.735,-43.0788 A 59.397,60.1041 0 1 1 33.9411,-43.0788 59.397,60.1041 0 1 1 152.735,-43.0788 z"
 sodipodi:ry="60.1041"
 sodipodi:rx="59.397"
 sodipodi:cy="-43.0788"
 sodipodi:cx="93.3381"
 id="path4360"
 style="fill:#b6daf6;fill-opacity:1;fill-rule:nonzero;stroke:none"
 sodipodi:type="arc"
 inkscape:transform-center-x="-14.2237"
 inkscape:transform-center-y="6.22239" />
<path
 inkscape:transform-center-y="6.22239"
 inkscape:transform-center-x="-14.2237"
 sodipodi:type="arc"
 style="fill:#b6daf6;fill-opacity:1;fill-rule:nonzero;stroke:none"
 id="path4362"
 sodipodi:cx="93.3381"
 sodipodi:cy="-43.0788"
 sodipodi:rx="59.397"
 sodipodi:ry="60.1041"
 d="M 152.735,-43.0788 A 59.397,60.1041 0 1 1 33.9411,-43.0788 59.397,60.1041 0 1 1 152.735,-43.0788 z"
 transform="matrix(0.460155,0,0,0.460155,-190.202,936.853)" />
<path
 transform="matrix(0.460155,0,0,0.460155,-152.725,923.418)"
 d="M 152.735,-43.0788 A 59.397,60.1041 0 1 1 33.9411,-43.0788 59.397,60.1041 0 1 1 152.735,-43.0788 z"
 sodipodi:ry="60.1041"
 sodipodi:rx="59.397"
 sodipodi:cy="-43.0788"
 sodipodi:cx="93.3381"
 id="path4364"
 style="fill:#b6daf6;fill-opacity:1;fill-rule:nonzero;stroke:none"
 sodipodi:type="arc"
 inkscape:transform-center-x="-14.2237"
 inkscape:transform-center-y="6.22239" />
<path
 inkscape:transform-center-y="3.64657"
 inkscape:transform-center-x="-8.336"
 sodipodi:type="arc"
 style="fill:#b6daf6;fill-opacity:1;fill-rule:nonzero;stroke:none"
 id="path4366"
 sodipodi:cx="93.3381"
 sodipodi:cy="-43.0788"
 sodipodi:rx="59.397"
 sodipodi:ry="60.1041"
 d="M 152.735,-43.0788 A 59.397,60.1041 0 1 1 33.9411,-43.0788 59.397,60.1041 0 1 1 152.735,-43.0788 z"
 transform="matrix(0.269679,0,0,0.269679,-195.05,911.541)" />
<path
 transform="matrix(0.269679,0,0,0.269679,-273.539,927.097)"
 d="M 152.735,-43.0788 A 59.397,60.1041 0 1 1 33.9411,-43.0788 59.397,60.1041 0 1 1 152.735,-43.0788 z"
 sodipodi:ry="60.1041"
 sodipodi:rx="59.397"
 sodipodi:cy="-43.0788"
 sodipodi:cx="93.3381"
 id="path4368"
 style="fill:#b6daf6;fill-opacity:1;fill-rule:nonzero;stroke:none"
 sodipodi:type="arc"
 inkscape:transform-center-x="-8.336"
 inkscape:transform-center-y="3.64657" />
</g>
<g
 inkscape:groupmode="layer"
 id="layer4"
 inkscape:label="SecondBackround_2"
 style="display:none">
<path
 style="fill:#00c357;fill-opacity:1;fill-rule:nonzero;stroke:#00843b;stroke-width:6;stroke-linecap:butt;stroke-linejoin:round;stroke-miterlimit:4;stroke-opacity:1;stroke-dasharray:none"
 d="M 752.281,255.625 C 710.263,255.625 675.351,285.397 668.375,324.562 660.743,322.071 652.582,320.688 644.094,320.688 606.667,320.688 575.526,346.921 568.781,381.625 550.636,387.97 535.651,400.802 526.75,417.281 519.798,408.297 509.091,402.249 496.906,401.406 485.677,373.599 458.001,353.906 425.594,353.906 413.022,353.906 401.158,356.878 390.688,362.125 379.354,334.531 351.782,315.031 319.531,315.031 287.377,315.031 259.865,334.412 248.469,361.875 231.034,363.345 216.484,374.565 210.469,389.938 201.705,385.737 191.854,383.375 181.438,383.375 153.988,383.375 130.459,399.751 120.469,423.062 113.645,420.731 106.324,419.438 98.6875,419.438 65.1843,419.438 37.5126,443.841 33.1875,475.469 -1.12679,477.824 -28.2188,505.79 -28.2188,539.969 -28.2188,575.692 1.37068,604.656 37.875,604.656 71.385,604.656 99.0585,580.262 103.375,548.625 125.039,547.138 143.813,535.435 154.719,518.406 L 558.281,518.406 C 569.089,524.102 581.458,527.344 594.594,527.344 607.73,527.344 620.098,524.102 630.906,518.406 L 1028.88,518.406 1028.88,446.594 C 1048.37,437.527 1061.84,418.09 1061.84,395.562 1061.84,364.368 1036,339.062 1004.12,339.062 995.06,339.062 986.508,341.106 978.875,344.75 967.699,311.472 935.683,287.438 897.938,287.438 872.49,287.438 849.67,298.373 834.062,315.688 823.763,280.99 791.06,255.625 752.281,255.625 z"
 id="path3079"
 inkscape:connector-curvature="0" />
</g>
<g
 inkscape:groupmode="layer"
 id="layer5"
 inkscape:label="Clouds"
 style="display:none">
<path
 style="fill:#ffffff;fill-opacity:1;fill-rule:nonzero;stroke:#dbdbdb;stroke-width:5.504;stroke-miterlimit:4;stroke-opacity:1;stroke-dasharray:none"
 d="M 158.925,122.946 C 142.286,122.946 128.282,134.163 124.295,149.347 119.838,147.998 115.129,147.255 110.222,147.255 87.8543,147.255 69.0513,162.346 63.7246,182.773 61.8863,181.852 59.8214,181.338 57.6189,181.338 50.1263,181.338 44.0599,187.335 44.0599,194.725 44.0599,194.899 44.082,195.07 44.0886,195.241 43.3237,195.07 42.527,194.956 41.7092,194.956 35.8218,194.956 31.0455,199.667 31.0455,205.476 31.0455,211.036 35.4256,215.588 40.964,215.968 40.44,218.078 40.1614,220.262 40.1614,222.531 40.1614,237.769 52.6664,250.137 68.1103,250.137 77.7103,250.137 86.1793,245.368 91.2153,238.097 97.0443,240.579 103.47,241.967 110.222,241.967 114.552,241.967 118.729,241.393 122.72,240.334 130.506,250.492 142.841,257.046 156.747,257.046 168.554,257.046 179.238,252.31 186.961,244.662 191.461,247.534 196.824,249.192 202.583,249.192 214.503,249.192 224.717,242.058 229.098,231.877 232.34,233.494 235.998,234.429 239.877,234.429 252.699,234.429 263.159,224.478 263.786,211.983 263.816,211.983 263.842,211.983 263.872,211.983 271.364,211.983 277.46,206.015 277.46,198.624 277.46,191.233 271.364,185.237 263.872,185.237 262.35,185.237 260.91,185.497 259.544,185.955 257.847,177.841 250.848,171.649 242.286,171.019 235.251,157.504 220.993,148.258 204.533,148.258 200.757,148.258 197.096,148.75 193.61,149.662 189.733,134.322 175.676,122.946 158.925,122.946 z"
 id="path3885"
 inkscape:connector-curvature="0" />
<path
 inkscape:connector-curvature="0"
 id="path4371"
 d="M 481.79,185.517 C 494.72,185.517 505.603,194.234 508.702,206.034 512.165,204.985 515.825,204.408 519.638,204.408 537.021,204.408 551.634,216.136 555.774,232.01 557.202,231.295 558.807,230.895 560.518,230.895 566.341,230.895 571.055,235.556 571.055,241.299 571.055,241.434 571.038,241.567 571.033,241.7 571.628,241.567 572.247,241.478 572.882,241.478 577.458,241.478 581.17,245.139 581.17,249.654 581.17,253.975 577.766,257.512 573.461,257.807 573.868,259.447 574.085,261.144 574.085,262.908 574.085,274.75 564.367,284.361 552.365,284.361 544.905,284.361 538.323,280.655 534.409,275.005 529.879,276.934 524.886,278.012 519.638,278.012 516.273,278.012 513.027,277.566 509.926,276.743 503.875,284.637 494.289,289.731 483.482,289.731 474.306,289.731 466.004,286.05 460.002,280.107 456.505,282.339 452.337,283.627 447.861,283.627 438.598,283.627 430.66,278.083 427.256,270.171 424.736,271.428 421.893,272.154 418.879,272.154 408.914,272.154 400.786,264.421 400.298,254.711 400.275,254.711 400.255,254.711 400.231,254.711 394.409,254.711 389.672,250.073 389.672,244.329 389.672,238.585 394.409,233.925 400.231,233.925 401.414,233.925 402.533,234.127 403.595,234.483 404.914,228.178 410.353,223.366 417.007,222.876 422.474,212.373 433.554,205.188 446.346,205.188 449.28,205.188 452.125,205.57 454.835,206.279 457.847,194.357 468.772,185.517 481.79,185.517 z"
 style="fill:#ffffff;fill-opacity:1;fill-rule:nonzero;stroke:#dbdbdb;stroke-width:6;stroke-miterlimit:4;stroke-opacity:1;stroke-dasharray:none" />
<path
 style="fill:#ffffff;fill-opacity:1;fill-rule:nonzero;stroke:#dbdbdb;stroke-width:6;stroke-miterlimit:4;stroke-opacity:1;stroke-dasharray:none"
 d="M 801.238,131.973 C 816.133,131.973 828.669,142.014 832.238,155.606 836.227,154.398 840.443,153.733 844.836,153.733 864.859,153.733 881.692,167.243 886.461,185.528 888.106,184.704 889.954,184.244 891.925,184.244 898.633,184.244 904.063,189.613 904.063,196.228 904.063,196.384 904.043,196.537 904.037,196.69 904.723,196.537 905.436,196.434 906.167,196.434 911.438,196.434 915.714,200.651 915.714,205.852 915.714,210.829 911.793,214.904 906.834,215.244 907.303,217.133 907.553,219.087 907.553,221.119 907.553,234.76 896.359,245.831 882.534,245.831 873.941,245.831 866.359,241.562 861.85,235.054 856.632,237.276 850.881,238.518 844.836,238.518 840.959,238.518 837.22,238.004 833.648,237.056 826.678,246.149 815.636,252.017 803.187,252.017 792.618,252.017 783.055,247.777 776.141,240.931 772.113,243.502 767.312,244.986 762.156,244.986 751.486,244.986 742.342,238.6 738.421,229.486 735.518,230.934 732.243,231.77 728.771,231.77 717.293,231.77 707.93,222.862 707.368,211.677 707.341,211.677 707.318,211.677 707.291,211.677 700.584,211.677 695.128,206.335 695.128,199.718 695.128,193.102 700.584,187.734 707.291,187.734 708.653,187.734 709.942,187.967 711.166,188.377 712.685,181.114 718.95,175.571 726.615,175.007 732.912,162.908 745.675,154.632 760.41,154.632 763.79,154.632 767.067,155.072 770.189,155.888 773.659,142.155 786.243,131.973 801.238,131.973 z"
 id="path4373"
 inkscape:connector-curvature="0" />
</g>
<g
 inkscape:groupmode="layer"
 id="layer1"
 inkscape:label="terrain"
 style="display:none" />
</svg>
