<?xml version="1.0" encoding="UTF-8" standalone="no"?>
<!-- Created with Inkscape (http://www.inkscape.org/) -->

<svg
 xmlns:dc="http://purl.org/dc/elements/1.1/"
 xmlns:cc="http://creativecommons.org/ns#"
 xmlns:rdf="http://www.w3.org/1999/02/22-rdf-syntax-ns#"
 xmlns:svg="http://www.w3.org/2000/svg"
 xmlns="http://www.w3.org/2000/svg"
 xmlns:xlink="http://www.w3.org/1999/xlink"
 xmlns:sodipodi="http://sodipodi.sourceforge.net/DTD/sodipodi-0.dtd"
 xmlns:inkscape="http://www.inkscape.org/namespaces/inkscape"
 width="256"
 height="256"
 id="svg14425"
 version="1.1"
 inkscape:version="0.48.1 r9760"
 sodipodi:docname="farm.svg"
 inkscape:export-filename="/home/acoppes/workspace/angryships/angryships-desktop/src/main/resources/data/images/farm.png"
 inkscape:export-xdpi="90"
 inkscape:export-ydpi="90">
<defs
 id="defs14427">
<linearGradient
 inkscape:collect="always"
 id="linearGradient3877">
<stop
 style="stop-color:#00aad4;stop-opacity:1;"
 offset="0"
 id="stop3879" />
<stop
 style="stop-color:#ffffff;stop-opacity:1"
 offset="1"
 id="stop3881" />
</linearGradient>
<inkscape:perspective
 sodipodi:type="inkscape:persp3d"
 inkscape:vp_x="380.722 : 536.105 : 1"
 inkscape:vp_y="0 : 912.44 : 0"
 inkscape:vp_z="-419.278 : 536.105 : 1"
 inkscape:persp3d-origin="-19.2782 : 444.861 : 1"
 id="perspective14480" />
<linearGradient
 inkscape:collect="always"
 xlink:href="#linearGradient3877"
 id="linearGradient3883"
 x1="270.059"
 y1="226.666"
 x2="267.592"
 y2="476.994"
 gradientUnits="userSpaceOnUse"
 gradientTransform="matrix(1,0,0,1.09454,339.102,94.6636)" />
</defs>
<sodipodi:namedview
 id="base"
 pagecolor="#ffffff"
 bordercolor="#666666"
 borderopacity="1.0"
 inkscape:pageopacity="0.0"
 inkscape:pageshadow="2"
 inkscape:zoom="0.740677"
 inkscape:cx="583.639"
 inkscape:cy="233.652"
 inkscape:current-layer="layer1"
 inkscape:document-units="px"
 showgrid="false"
 inkscape:window-width="1440"
 inkscape:window-height="849"
 inkscape:window-x="0"
 inkscape:window-y="24"
 inkscape:window-maximized="1" />
<metadata
 id="metadata14430">
<rdf:RDF>
<cc:Work
 rdf:about="">
<dc:format>image/svg+xml</dc:format>
<dc:type
 rdf:resource="http://purl.org/dc/dcmitype/StillImage" />
<dc:title></dc:title>
</cc:Work>
</rdf:RDF>
</metadata>
<g
 id="layer1"
 inkscape:label="Layer 1"
 inkscape:groupmode="layer"
 transform="translate(0,-344)">
<rect
 style="fill:url(#linearGradient3883);fill-opacity:1;fill-rule:nonzero;stroke:none"
 id="rect3875"
 width="506.822"
 height="242.277"
 x="361.298"
 y="344.447"
 inkscape:export-filename="/tmp/farm2.png"
 inkscape:export-xdpi="180"
 inkscape:export-ydpi="180" />
<path
 style="fill:#6f1400;fill-opacity:1;fill-rule:nonzero;stroke:none"
 d="M 523.812,458.82 541.602,422.759 608.632,368.865 654.972,406.972 689.892,451.067 681.522,534.611 532.402,533.841 z"
 id="rect14700"
 inkscape:connector-curvature="0"
 sodipodi:nodetypes="cccccccc"
 inkscape:export-filename="/tmp/farm2.png"
 inkscape:export-xdpi="180"
 inkscape:export-ydpi="180" />
<rect
 style="fill:#b82d27;fill-opacity:1;fill-rule:nonzero;stroke:none"
 id="rect14444"
 width="83.8918"
 height="84.196"
 x="840.478"
 y="196.934" />
<rect
 y="164.287"
 x="870.808"
 height="84.196"
 width="83.8918"
 id="rect14446"
 style="fill:#6f1400;fill-opacity:1;fill-rule:nonzero;stroke:none" />
<path
 sodipodi:nodetypes="cccccccccccccccc"
 inkscape:connector-curvature="0"
 id="path15597"
 d="M 609.212,359.272 534.982,418.174 524.802,450.174 505.832,460.323 510.772,466.468 532.622,454.651 542.902,421.914 609.042,369.536 676.062,422.582 686.492,455.145 708.162,466.79 713.092,460.645 694.042,450.428 683.742,418.209 614.762,363.944 z"
 style="fill:#00411c;fill-opacity:1;fill-rule:nonzero;stroke:none"
 inkscape:export-filename="/tmp/farm2.png"
 inkscape:export-xdpi="180"
 inkscape:export-ydpi="180" />
<path
 style="fill:#b82d27;fill-opacity:1;fill-rule:nonzero;stroke:none"
 d="M 532.372,453.405 541.232,423.013 609.442,370.208 677.112,425.19 684.262,453.669 678.842,523.574 535.612,523.574 z"
 id="rect14692"
 inkscape:connector-curvature="0"
 sodipodi:nodetypes="cccccccc"
 inkscape:export-filename="/tmp/farm2.png"
 inkscape:export-xdpi="180"
 inkscape:export-ydpi="180" />
<path
 style="fill:#db7918;fill-opacity:1;fill-rule:nonzero;stroke:none"
 d="M 574.412,462.59 608.722,455.963 651.392,462.975 640.562,523.756 582.462,523.756 z"
 id="rect14696"
 inkscape:connector-curvature="0"
 sodipodi:nodetypes="cccccc"
 inkscape:export-filename="/tmp/farm2.png"
 inkscape:export-xdpi="180"
 inkscape:export-ydpi="180" />
<path
 style="fill:#db7918;fill-opacity:1;fill-rule:nonzero;stroke:none"
 d="M 596.202,405.954 623.312,405.954 627.012,429.66 592.502,427.403 z"
 id="rect14698"
 inkscape:connector-curvature="0"
 sodipodi:nodetypes="ccccc"
 inkscape:export-filename="/tmp/farm2.png"
 inkscape:export-xdpi="180"
 inkscape:export-ydpi="180" />
<rect
 style="fill:#ffffff;fill-opacity:1;fill-rule:nonzero;stroke:#000000;stroke-width:0.404273;stroke-linecap:butt;stroke-linejoin:round;stroke-miterlimit:4;stroke-opacity:1;stroke-dasharray:none"
 id="rect15472"
 width="115.684"
 height="9.86516"
 x="542.169"
 y="-420.93"
 transform="matrix(0.718025,0.696018,-0.696018,0.718025,0,0)" />
<rect
 transform="matrix(-0.718025,0.696018,0.696018,0.718025,0,0)"
 y="528.186"
 x="-437.842"
 height="9.86516"
 width="115.684"
 id="rect15474"
 style="fill:#ffffff;fill-opacity:1;fill-rule:nonzero;stroke:#000000;stroke-width:0.404273;stroke-linecap:butt;stroke-linejoin:round;stroke-miterlimit:4;stroke-opacity:1;stroke-dasharray:none" />
<rect
 transform="matrix(0.243668,0.969859,-0.969859,0.243668,0,0)"
 y="-704.365"
 x="336.208"
 height="10.1338"
 width="49.9387"
 id="rect15476"
 style="fill:#ffffff;fill-opacity:1;fill-rule:nonzero;stroke:#000000;stroke-width:0.404272;stroke-linecap:butt;stroke-linejoin:round;stroke-miterlimit:4;stroke-opacity:1;stroke-dasharray:none" />
<rect
 style="fill:#ffffff;fill-opacity:1;fill-rule:nonzero;stroke:#000000;stroke-width:0.404272;stroke-linecap:butt;stroke-linejoin:round;stroke-miterlimit:4;stroke-opacity:1;stroke-dasharray:none"
 id="rect15478"
 width="49.9388"
 height="10.1338"
 x="2.85284"
 y="618.888"
 transform="matrix(-0.243668,0.969859,0.969859,0.243668,0,0)" />
<rect
 style="fill:#ffffff;fill-opacity:1;fill-rule:nonzero;stroke:#000000;stroke-width:0.404273;stroke-linecap:butt;stroke-linejoin:round;stroke-miterlimit:4;stroke-opacity:1;stroke-dasharray:none"
 id="rect15480"
 width="29.504"
 height="9.97575"
 x="753.524"
 y="-259.644"
 transform="matrix(0.836317,0.548247,-0.548247,0.836317,0,0)" />
<rect
 transform="matrix(-0.836317,0.548247,0.548247,0.836317,0,0)"
 y="488.13"
 x="-387.948"
 height="9.97577"
 width="29.504"
 id="rect15482"
 style="fill:#ffffff;fill-opacity:1;fill-rule:nonzero;stroke:#000000;stroke-width:0.404274;stroke-linecap:butt;stroke-linejoin:round;stroke-miterlimit:4;stroke-opacity:1;stroke-dasharray:none" />
<path
 style="fill:#000000;fill-opacity:0.392157;fill-rule:nonzero;stroke:none"
 d="M 609.842,369.402 537.172,426.404 527.572,456.203 533.422,462.466 534.882,461.693 544.922,430.019 609.682,379.335 675.292,430.653 683.712,456.617 690.662,450.712 682.822,426.432 615.282,373.926 609.842,369.402 z"
 id="path15589"
 inkscape:connector-curvature="0"
 inkscape:export-filename="/tmp/farm2.png"
 inkscape:export-xdpi="180"
 inkscape:export-ydpi="180" />
<path
 style="fill:#ffffff;fill-opacity:1;fill-rule:nonzero;stroke:none"
 d="M 609.472,364.4 536.802,421.391 526.842,452.353 508.272,462.173 513.102,468.118 534.502,456.685 544.552,425.01 609.312,374.331 674.922,425.656 685.132,457.163 706.342,468.43 711.172,462.484 692.522,452.599 682.442,421.425 614.912,368.92 z"
 id="rect15495"
 inkscape:connector-curvature="0"
 sodipodi:nodetypes="cccccccccccccccc"
 inkscape:export-filename="/tmp/farm2.png"
 inkscape:export-xdpi="180"
 inkscape:export-ydpi="180" />
<path
 style="fill:#feb312;fill-opacity:1;fill-rule:nonzero;stroke:none"
 d="M 631.452,511.552 619.862,512.739 607.442,518.809 603.472,515.084 589.782,511.939 579.932,522.506 580.732,523.858 640.582,523.665 642.232,521.126 641.322,519.581 631.452,511.552 z"
 id="path15584"
 inkscape:connector-curvature="0"
 inkscape:export-filename="/tmp/farm2.png"
 inkscape:export-xdpi="180"
 inkscape:export-ydpi="180" />
<path
 style="fill:#6f1400;fill-opacity:1;fill-rule:nonzero;stroke:none"
 d="M 580.162,523.87 583.042,524.063 574.382,462.859 609.602,456.508 651.372,463.629 640.402,524.255 642.902,524.255 655.992,461.704 608.452,453.044 569.572,461.319 z"
 id="path15533"
 inkscape:connector-curvature="0"
 inkscape:export-filename="/tmp/farm2.png"
 inkscape:export-xdpi="180"
 inkscape:export-ydpi="180" />
<path
 style="fill:#6f1400;fill-opacity:1;fill-rule:nonzero;stroke:none"
 d="M 592.092,427.296 592.932,427.183 596.482,407.637 622.882,409 626.522,428.433 627.352,428.661 625.212,406.046 594.432,404.908 z"
 id="path15535"
 inkscape:connector-curvature="0"
 sodipodi:nodetypes="ccccccccc"
 inkscape:export-filename="/tmp/farm2.png"
 inkscape:export-xdpi="180"
 inkscape:export-ydpi="180" />
<path
 sodipodi:nodetypes="ccccc"
 inkscape:connector-curvature="0"
 id="path15582"
 d="M 639.852,429.482 581.592,425.501 581.202,429.195 639.462,433.176 z"
 style="fill:#000000;fill-opacity:0.219608;fill-rule:nonzero;stroke:none"
 inkscape:export-filename="/tmp/farm2.png"
 inkscape:export-xdpi="180"
 inkscape:export-ydpi="180" />
<path
 style="fill:#ffffff;fill-opacity:1;fill-rule:nonzero;stroke:none"
 d="M 639.082,428.135 580.822,424.154 580.432,427.848 638.692,431.829 z"
 id="rect15526"
 inkscape:connector-curvature="0"
 sodipodi:nodetypes="ccccc"
 inkscape:export-filename="/tmp/farm2.png"
 inkscape:export-xdpi="180"
 inkscape:export-ydpi="180" />
<path
 sodipodi:nodetypes="cccccccccccccccccccccccc"
 inkscape:connector-curvature="0"
 id="path15580"
 d="M 593.242,429.536 599.242,423.112 605.742,424.602 607.642,426.371 613.552,423.485 619.052,422.926 623.752,426.744 626.752,431.864 622.552,428.947 623.352,432.889 621.752,435.588 621.352,432.423 618.552,430.144 619.552,435.96 614.552,432.196 614.352,435.309 613.852,439.034 611.842,435.015 608.042,432.555 605.842,437.19 603.042,432.218 597.542,435.644 598.342,429.903 z"
 style="fill:#000000;fill-opacity:0.219608;fill-rule:nonzero;stroke:none"
 inkscape:export-filename="/tmp/farm2.png"
 inkscape:export-xdpi="180"
 inkscape:export-ydpi="180" />
<path
 style="fill:#feb312;fill-opacity:1;fill-rule:nonzero;stroke:none"
 d="M 592.182,427.323 598.182,420.899 604.682,422.388 606.582,424.157 612.492,421.271 617.992,420.712 622.692,424.53 625.692,429.651 621.492,426.734 622.292,430.675 620.692,433.375 620.292,430.21 617.492,427.93 618.492,433.747 613.492,429.983 613.292,433.096 612.792,436.82 610.792,432.802 606.982,430.341 604.782,434.977 601.982,430.004 596.482,433.431 597.282,427.69 z"
 id="path15556"
 inkscape:connector-curvature="0"
 sodipodi:nodetypes="cccccccccccccccccccccccc"
 inkscape:export-filename="/tmp/farm2.png"
 inkscape:export-xdpi="180"
 inkscape:export-ydpi="180" />
<path
 sodipodi:nodetypes="cccccccccccccccccccccccc"
 inkscape:connector-curvature="0"
 id="path15558"
 d="M 895.428,310.348 913.928,290.552 933.968,295.142 939.828,300.594 958.018,291.7 974.968,289.978 989.458,301.741 998.708,317.521 985.758,308.533 988.228,320.677 983.298,328.998 982.058,319.242 973.428,312.219 976.508,330.145 961.098,318.543 960.478,328.137 958.938,339.614 952.778,327.233 941.058,319.648 934.278,333.931 925.648,318.608 908.688,329.169 911.158,311.478 z"
 style="fill:#6f1400;fill-opacity:1;fill-rule:nonzero;stroke:none" />
<path
 style="fill:#feb312;fill-opacity:1;fill-rule:nonzero;stroke:none"
 d="M 1096.4,185.651 1122.86,207.014 1124.3,228.377 1111.31,214.861 1086.3,211.374 z"
 id="path15564"
 inkscape:connector-curvature="0" />
<path
 inkscape:connector-curvature="0"
 id="path15566"
 d="M 1094.27,191.428 1105.66,221.84 1095.29,241.068 1091.35,223.504 1071.49,209.288 z"
 style="fill:#feb312;fill-opacity:1;fill-rule:nonzero;stroke:none" />
<path
 style="fill:#feb312;fill-opacity:1;fill-rule:nonzero;stroke:none"
 d="M 1088.77,199.419 1085.96,231.433 1068.04,245.375 1072.09,227.831 1060.05,207.654 z"
 id="path15568"
 inkscape:connector-curvature="0" />
<path
 inkscape:connector-curvature="0"
 id="path15570"
 d="M 1026.38,184.343 999.928,205.706 998.478,227.069 1011.47,213.553 1036.48,210.066 z"
 style="fill:#feb312;fill-opacity:1;fill-rule:nonzero;stroke:none" />
<path
 style="fill:#feb312;fill-opacity:1;fill-rule:nonzero;stroke:none"
 d="M 1028.51,190.12 1017.12,220.532 1027.49,239.76 1031.43,222.196 1051.29,207.98 z"
 id="path15572"
 inkscape:connector-curvature="0" />
<path
 inkscape:connector-curvature="0"
 id="path15576"
 d="M 1047.75,198.84 1040.21,218.985 1047.08,231.722 1049.69,220.087 1062.84,210.67 z"
 style="fill:#feb312;fill-opacity:1;fill-rule:nonzero;stroke:none" />
<path
 style="fill:#feb312;fill-opacity:1;fill-rule:nonzero;stroke:none"
 d="M 1021.85,192.191 1024.25,194.37 1049.27,210.502 1074.28,209.63 1101.21,198.73 1095.92,183.907 1080.05,178.239 1062.25,191.319 1042.53,186.959 1026.83,185.215 z"
 id="path15578"
 inkscape:connector-curvature="0"
 sodipodi:nodetypes="ccccccccccc" />
<g
 id="g15622"
 transform="translate(362.639,-110.141)">
<path
 sodipodi:nodetypes="cccccc"
 style="fill:#005500;fill-opacity:1;fill-rule:nonzero;stroke:none"
 d="M 360.11,417.669 356.732,401.585 359.809,391.415 360.978,400.705 363.164,407.962 z"
 id="path15603"
 inkscape:connector-curvature="0" />
<path
 inkscape:connector-curvature="0"
 id="path15605"
 d="M 360.266,416.365 363.065,400.17 369.68,391.855 367.336,400.92 366.688,408.472 z"
 style="fill:#005500;fill-opacity:1;fill-rule:nonzero;stroke:none"
 sodipodi:nodetypes="cccccc" />
<path
 sodipodi:nodetypes="cccccc"
 style="fill:#005500;fill-opacity:1;fill-rule:nonzero;stroke:none"
 d="M 362.744,418.328 351.526,406.317 348.894,396.023 354.703,403.366 360.332,408.442 z"
 id="path15607"
 inkscape:connector-curvature="0" />
</g>
<g
 id="g15632"
 transform="translate(320.785,-43)">
<path
 inkscape:connector-curvature="0"
 id="path15609"
 d="M 441.301,352.272 444.679,336.188 441.602,326.018 440.433,335.308 438.247,342.565 z"
 style="fill:#005500;fill-opacity:1;fill-rule:nonzero;stroke:none"
 sodipodi:nodetypes="cccccc" />
<path
 sodipodi:nodetypes="cccccc"
 style="fill:#005500;fill-opacity:1;fill-rule:nonzero;stroke:none"
 d="M 441.145,350.968 438.346,334.773 431.731,326.458 434.075,335.523 434.723,343.075 z"
 id="path15611"
 inkscape:connector-curvature="0" />
<path
 sodipodi:nodetypes="cccccc"
 style="fill:#005500;fill-opacity:1;fill-rule:nonzero;stroke:none"
 d="M 441.978,356.052 430.183,344.606 427.048,334.454 433.211,341.503 439.082,346.297 z"
 id="path15615"
 inkscape:connector-curvature="0" />
</g>
<path
 style="fill:#005500;fill-opacity:1;fill-rule:nonzero;stroke:none"
 d="M 360.901,522.302 C 360.901,522.302 399.077,520.87 418.171,521.069 442.419,521.322 466.606,524.38 490.852,524.152 511.012,523.962 531.052,520.602 551.202,520.452 573.402,520.286 595.522,523.638 617.722,523.535 639.932,523.432 662.032,519.707 684.242,519.836 708.732,519.978 733.052,524.769 757.538,524.768 778.938,524.767 800.188,520.749 821.588,520.452 837.198,520.235 868.378,522.302 868.378,522.302 L 868.378,572.004 360.901,572.004 z"
 id="rect14694"
 inkscape:connector-curvature="0"
 sodipodi:nodetypes="cssssssscccc"
 inkscape:export-filename="/tmp/farm.png"
 inkscape:export-xdpi="90"
 inkscape:export-ydpi="90" />
<g
 id="g15637"
 transform="translate(272.919,176.216)"
 inkscape:export-filename="/tmp/farm.png"
 inkscape:export-xdpi="90"
 inkscape:export-ydpi="90">
<path
 sodipodi:nodetypes="cccccc"
 style="fill:#005500;fill-opacity:1;fill-rule:nonzero;stroke:none"
 d="M 441.301,352.272 444.679,336.188 441.602,326.018 440.433,335.308 438.247,342.565 z"
 id="path15639"
 inkscape:connector-curvature="0" />
<path
 inkscape:connector-curvature="0"
 id="path15641"
 d="M 441.145,350.968 438.346,334.773 431.731,326.458 434.075,335.523 434.723,343.075 z"
 style="fill:#005500;fill-opacity:1;fill-rule:nonzero;stroke:none"
 sodipodi:nodetypes="cccccc" />
<path
 inkscape:connector-curvature="0"
 id="path15643"
 d="M 441.978,356.052 430.183,344.606 427.048,334.454 433.211,341.503 439.082,346.297 z"
 style="fill:#005500;fill-opacity:1;fill-rule:nonzero;stroke:none"
 sodipodi:nodetypes="cccccc" />
</g>
<g
 transform="translate(379.299,116.602)"
 id="g15645"
 inkscape:export-filename="/tmp/farm.png"
 inkscape:export-xdpi="90"
 inkscape:export-ydpi="90">
<path
 inkscape:connector-curvature="0"
 id="path15647"
 d="M 360.11,417.669 356.732,401.585 359.809,391.415 360.978,400.705 363.164,407.962 z"
 style="fill:#005500;fill-opacity:1;fill-rule:nonzero;stroke:none"
 sodipodi:nodetypes="cccccc" />
<path
 sodipodi:nodetypes="cccccc"
 style="fill:#005500;fill-opacity:1;fill-rule:nonzero;stroke:none"
 d="M 360.266,416.365 363.065,400.17 369.68,391.855 367.336,400.92 366.688,408.472 z"
 id="path15649"
 inkscape:connector-curvature="0" />
<path
 inkscape:connector-curvature="0"
 id="path15651"
 d="M 362.744,418.328 351.526,406.317 348.894,396.023 354.703,403.366 360.332,408.442 z"
 style="fill:#005500;fill-opacity:1;fill-rule:nonzero;stroke:none"
 sodipodi:nodetypes="cccccc" />
</g>
<g
 id="g15653"
 transform="translate(429.911,114.204)"
 inkscape:export-filename="/tmp/farm.png"
 inkscape:export-xdpi="90"
 inkscape:export-ydpi="90">
<path
 sodipodi:nodetypes="cccccc"
 style="fill:#005500;fill-opacity:1;fill-rule:nonzero;stroke:none"
 d="M 360.11,417.669 356.732,401.585 359.809,391.415 360.978,400.705 363.164,407.962 z"
 id="path15655"
 inkscape:connector-curvature="0" />
<path
 inkscape:connector-curvature="0"
 id="path15657"
 d="M 360.266,416.365 363.065,400.17 369.68,391.855 367.336,400.92 366.688,408.472 z"
 style="fill:#005500;fill-opacity:1;fill-rule:nonzero;stroke:none"
 sodipodi:nodetypes="cccccc" />
<path
 sodipodi:nodetypes="cccccc"
 style="fill:#005500;fill-opacity:1;fill-rule:nonzero;stroke:none"
 d="M 362.744,418.328 351.526,406.317 348.894,396.023 354.703,403.366 360.332,408.442 z"
 id="path15659"
 inkscape:connector-curvature="0" />
</g>
<g
 transform="matrix(-0.75879,0,0,0.75879,1038.16,216.028)"
 id="g15661"
 inkscape:export-filename="/tmp/farm.png"
 inkscape:export-xdpi="90"
 inkscape:export-ydpi="90">
<path
 inkscape:connector-curvature="0"
 id="path15663"
 d="M 360.11,417.669 356.732,401.585 359.809,391.415 360.978,400.705 363.164,407.962 z"
 style="fill:#005500;fill-opacity:1;fill-rule:nonzero;stroke:none"
 sodipodi:nodetypes="cccccc" />
<path
 sodipodi:nodetypes="cccccc"
 style="fill:#005500;fill-opacity:1;fill-rule:nonzero;stroke:none"
 d="M 360.266,416.365 363.065,400.17 369.68,391.855 367.336,400.92 366.688,408.472 z"
 id="path15665"
 inkscape:connector-curvature="0" />
<path
 inkscape:connector-curvature="0"
 id="path15667"
 d="M 362.744,418.328 351.526,406.317 348.894,396.023 354.703,403.366 360.332,408.442 z"
 style="fill:#005500;fill-opacity:1;fill-rule:nonzero;stroke:none"
 sodipodi:nodetypes="cccccc" />
</g>
<g
 id="g15669"
 transform="matrix(-0.765083,0,0,0.765083,1020.34,254.984)"
 inkscape:export-filename="/tmp/farm.png"
 inkscape:export-xdpi="90"
 inkscape:export-ydpi="90">
<path
 sodipodi:nodetypes="cccccc"
 style="fill:#005500;fill-opacity:1;fill-rule:nonzero;stroke:none"
 d="M 441.301,352.272 444.679,336.188 441.602,326.018 440.433,335.308 438.247,342.565 z"
 id="path15671"
 inkscape:connector-curvature="0" />
<path
 inkscape:connector-curvature="0"
 id="path15673"
 d="M 441.145,350.968 438.346,334.773 431.731,326.458 434.075,335.523 434.723,343.075 z"
 style="fill:#005500;fill-opacity:1;fill-rule:nonzero;stroke:none"
 sodipodi:nodetypes="cccccc" />
<path
 inkscape:connector-curvature="0"
 id="path15675"
 d="M 441.978,356.052 430.183,344.606 427.048,334.454 433.211,341.503 439.082,346.297 z"
 style="fill:#005500;fill-opacity:1;fill-rule:nonzero;stroke:none"
 sodipodi:nodetypes="cccccc" />
</g>
<g
 transform="translate(149.967,184.064)"
 id="g15677"
 inkscape:export-filename="/tmp/farm.png"
 inkscape:export-xdpi="90"
 inkscape:export-ydpi="90">
<path
 inkscape:connector-curvature="0"
 id="path15679"
 d="M 441.301,352.272 444.679,336.188 441.602,326.018 440.433,335.308 438.247,342.565 z"
 style="fill:#005500;fill-opacity:1;fill-rule:nonzero;stroke:none"
 sodipodi:nodetypes="cccccc" />
<path
 sodipodi:nodetypes="cccccc"
 style="fill:#005500;fill-opacity:1;fill-rule:nonzero;stroke:none"
 d="M 441.145,350.968 438.346,334.773 431.731,326.458 434.075,335.523 434.723,343.075 z"
 id="path15681"
 inkscape:connector-curvature="0" />
<path
 sodipodi:nodetypes="cccccc"
 style="fill:#005500;fill-opacity:1;fill-rule:nonzero;stroke:none"
 d="M 441.978,356.052 430.183,344.606 427.048,334.454 433.211,341.503 439.082,346.297 z"
 id="path15683"
 inkscape:connector-curvature="0" />
</g>
<g
 id="g15685"
 transform="translate(256.352,118.449)"
 inkscape:export-filename="/tmp/farm.png"
 inkscape:export-xdpi="90"
 inkscape:export-ydpi="90">
<path
 sodipodi:nodetypes="cccccc"
 style="fill:#005500;fill-opacity:1;fill-rule:nonzero;stroke:none"
 d="M 360.11,417.669 356.732,401.585 359.809,391.415 360.978,400.705 363.164,407.962 z"
 id="path15687"
 inkscape:connector-curvature="0" />
<path
 inkscape:connector-curvature="0"
 id="path15689"
 d="M 360.266,416.365 363.065,400.17 369.68,391.855 367.336,400.92 366.688,408.472 z"
 style="fill:#005500;fill-opacity:1;fill-rule:nonzero;stroke:none"
 sodipodi:nodetypes="cccccc" />
<path
 sodipodi:nodetypes="cccccc"
 style="fill:#005500;fill-opacity:1;fill-rule:nonzero;stroke:none"
 d="M 362.744,418.328 351.526,406.317 348.894,396.023 354.703,403.366 360.332,408.442 z"
 id="path15691"
 inkscape:connector-curvature="0" />
</g>
<g
 transform="translate(304.964,116.052)"
 id="g15693"
 inkscape:export-filename="/tmp/farm.png"
 inkscape:export-xdpi="90"
 inkscape:export-ydpi="90">
<path
 inkscape:connector-curvature="0"
 id="path15695"
 d="M 360.11,417.669 356.732,401.585 359.809,391.415 360.978,400.705 363.164,407.962 z"
 style="fill:#005500;fill-opacity:1;fill-rule:nonzero;stroke:none"
 sodipodi:nodetypes="cccccc" />
<path
 sodipodi:nodetypes="cccccc"
 style="fill:#005500;fill-opacity:1;fill-rule:nonzero;stroke:none"
 d="M 360.266,416.365 363.065,400.17 369.68,391.855 367.336,400.92 366.688,408.472 z"
 id="path15697"
 inkscape:connector-curvature="0" />
<path
 inkscape:connector-curvature="0"
 id="path15699"
 d="M 362.744,418.328 351.526,406.317 348.894,396.023 354.703,403.366 360.332,408.442 z"
 style="fill:#005500;fill-opacity:1;fill-rule:nonzero;stroke:none"
 sodipodi:nodetypes="cccccc" />
</g>
<g
 id="g15701"
 transform="matrix(-0.75879,0,0,0.75879,913.208,217.877)"
 inkscape:export-filename="/tmp/farm.png"
 inkscape:export-xdpi="90"
 inkscape:export-ydpi="90">
<path
 sodipodi:nodetypes="cccccc"
 style="fill:#005500;fill-opacity:1;fill-rule:nonzero;stroke:none"
 d="M 360.11,417.669 356.732,401.585 359.809,391.415 360.978,400.705 363.164,407.962 z"
 id="path15703"
 inkscape:connector-curvature="0" />
<path
 inkscape:connector-curvature="0"
 id="path15705"
 d="M 360.266,416.365 363.065,400.17 369.68,391.855 367.336,400.92 366.688,408.472 z"
 style="fill:#005500;fill-opacity:1;fill-rule:nonzero;stroke:none"
 sodipodi:nodetypes="cccccc" />
<path
 sodipodi:nodetypes="cccccc"
 style="fill:#005500;fill-opacity:1;fill-rule:nonzero;stroke:none"
 d="M 362.744,418.328 351.526,406.317 348.894,396.023 354.703,403.366 360.332,408.442 z"
 id="path15707"
 inkscape:connector-curvature="0" />
</g>
<g
 transform="matrix(-0.765083,0,0,0.765083,897.388,262.832)"
 id="g15709"
 inkscape:export-filename="/tmp/farm.png"
 inkscape:export-xdpi="90"
 inkscape:export-ydpi="90">
<path
 inkscape:connector-curvature="0"
 id="path15711"
 d="M 441.301,352.272 444.679,336.188 441.602,326.018 440.433,335.308 438.247,342.565 z"
 style="fill:#005500;fill-opacity:1;fill-rule:nonzero;stroke:none"
 sodipodi:nodetypes="cccccc" />
<path
 sodipodi:nodetypes="cccccc"
 style="fill:#005500;fill-opacity:1;fill-rule:nonzero;stroke:none"
 d="M 441.145,350.968 438.346,334.773 431.731,326.458 434.075,335.523 434.723,343.075 z"
 id="path15713"
 inkscape:connector-curvature="0" />
<path
 sodipodi:nodetypes="cccccc"
 style="fill:#005500;fill-opacity:1;fill-rule:nonzero;stroke:none"
 d="M 441.978,356.052 430.183,344.606 427.048,334.454 433.211,341.503 439.082,346.297 z"
 id="path15715"
 inkscape:connector-curvature="0" />
</g>
<g
 id="g15717"
 transform="matrix(-1,0,0,1,953.668,180.14)"
 inkscape:export-filename="/tmp/farm.png"
 inkscape:export-xdpi="90"
 inkscape:export-ydpi="90">
<path
 sodipodi:nodetypes="cccccc"
 style="fill:#005500;fill-opacity:1;fill-rule:nonzero;stroke:none"
 d="M 441.301,352.272 444.679,336.188 441.602,326.018 440.433,335.308 438.247,342.565 z"
 id="path15719"
 inkscape:connector-curvature="0" />
<path
 inkscape:connector-curvature="0"
 id="path15721"
 d="M 441.145,350.968 438.346,334.773 431.731,326.458 434.075,335.523 434.723,343.075 z"
 style="fill:#005500;fill-opacity:1;fill-rule:nonzero;stroke:none"
 sodipodi:nodetypes="cccccc" />
<path
 inkscape:connector-curvature="0"
 id="path15723"
 d="M 441.978,356.052 430.183,344.606 427.048,334.454 433.211,341.503 439.082,346.297 z"
 style="fill:#005500;fill-opacity:1;fill-rule:nonzero;stroke:none"
 sodipodi:nodetypes="cccccc" />
</g>
<g
 transform="matrix(-1,0,0,1,849.288,120.525)"
 id="g15725"
 inkscape:export-filename="/tmp/farm.png"
 inkscape:export-xdpi="90"
 inkscape:export-ydpi="90">
<path
 inkscape:connector-curvature="0"
 id="path15727"
 d="M 360.11,417.669 356.732,401.585 359.809,391.415 360.978,400.705 363.164,407.962 z"
 style="fill:#005500;fill-opacity:1;fill-rule:nonzero;stroke:none"
 sodipodi:nodetypes="cccccc" />
<path
 sodipodi:nodetypes="cccccc"
 style="fill:#005500;fill-opacity:1;fill-rule:nonzero;stroke:none"
 d="M 360.266,416.365 363.065,400.17 369.68,391.855 367.336,400.92 366.688,408.472 z"
 id="path15729"
 inkscape:connector-curvature="0" />
<path
 inkscape:connector-curvature="0"
 id="path15731"
 d="M 362.744,418.328 351.526,406.317 348.894,396.023 354.703,403.366 360.332,408.442 z"
 style="fill:#005500;fill-opacity:1;fill-rule:nonzero;stroke:none"
 sodipodi:nodetypes="cccccc" />
</g>
<g
 id="g15733"
 transform="matrix(-1,0,0,1,799.438,113.195)"
 inkscape:export-filename="/tmp/farm.png"
 inkscape:export-xdpi="90"
 inkscape:export-ydpi="90">
<path
 sodipodi:nodetypes="cccccc"
 style="fill:#005500;fill-opacity:1;fill-rule:nonzero;stroke:none"
 d="M 360.11,417.669 356.732,401.585 359.809,391.415 360.978,400.705 363.164,407.962 z"
 id="path15735"
 inkscape:connector-curvature="0" />
<path
 inkscape:connector-curvature="0"
 id="path15737"
 d="M 360.266,416.365 363.065,400.17 369.68,391.855 367.336,400.92 366.688,408.472 z"
 style="fill:#005500;fill-opacity:1;fill-rule:nonzero;stroke:none"
 sodipodi:nodetypes="cccccc" />
<path
 sodipodi:nodetypes="cccccc"
 style="fill:#005500;fill-opacity:1;fill-rule:nonzero;stroke:none"
 d="M 362.744,418.328 351.526,406.317 348.894,396.023 354.703,403.366 360.332,408.442 z"
 id="path15739"
 inkscape:connector-curvature="0" />
</g>
<g
 transform="matrix(0.75879,0,0,0.75879,192.421,219.953)"
 id="g15741"
 inkscape:export-filename="/tmp/farm.png"
 inkscape:export-xdpi="90"
 inkscape:export-ydpi="90">
<path
 inkscape:connector-curvature="0"
 id="path15743"
 d="M 360.11,417.669 356.732,401.585 359.809,391.415 360.978,400.705 363.164,407.962 z"
 style="fill:#005500;fill-opacity:1;fill-rule:nonzero;stroke:none"
 sodipodi:nodetypes="cccccc" />
<path
 sodipodi:nodetypes="cccccc"
 style="fill:#005500;fill-opacity:1;fill-rule:nonzero;stroke:none"
 d="M 360.266,416.365 363.065,400.17 369.68,391.855 367.336,400.92 366.688,408.472 z"
 id="path15745"
 inkscape:connector-curvature="0" />
<path
 inkscape:connector-curvature="0"
 id="path15747"
 d="M 362.744,418.328 351.526,406.317 348.894,396.023 354.703,403.366 360.332,408.442 z"
 style="fill:#005500;fill-opacity:1;fill-rule:nonzero;stroke:none"
 sodipodi:nodetypes="cccccc" />
</g>
<g
 id="g15749"
 transform="matrix(0.765083,0,0,0.765083,206.243,258.908)"
 inkscape:export-filename="/tmp/farm.png"
 inkscape:export-xdpi="90"
 inkscape:export-ydpi="90">
<path
 sodipodi:nodetypes="cccccc"
 style="fill:#005500;fill-opacity:1;fill-rule:nonzero;stroke:none"
 d="M 441.301,352.272 444.679,336.188 441.602,326.018 440.433,335.308 438.247,342.565 z"
 id="path15751"
 inkscape:connector-curvature="0" />
<path
 inkscape:connector-curvature="0"
 id="path15753"
 d="M 441.145,350.968 438.346,334.773 431.731,326.458 434.075,335.523 434.723,343.075 z"
 style="fill:#005500;fill-opacity:1;fill-rule:nonzero;stroke:none"
 sodipodi:nodetypes="cccccc" />
<path
 inkscape:connector-curvature="0"
 id="path15755"
 d="M 441.978,356.052 430.183,344.606 427.048,334.454 433.211,341.503 439.082,346.297 z"
 style="fill:#005500;fill-opacity:1;fill-rule:nonzero;stroke:none"
 sodipodi:nodetypes="cccccc" />
</g>
<path
 inkscape:export-ydpi="90"
 inkscape:export-xdpi="90"
 inkscape:export-filename="/tmp/farm.png"
 sodipodi:nodetypes="cssssssscccc"
 inkscape:connector-curvature="0"
 id="path3105"
 d="M 868.378,544.537 C 868.378,544.537 830.198,543.105 811.108,543.304 786.858,543.557 762.668,546.615 738.432,546.387 718.272,546.197 698.232,542.837 678.072,542.687 655.882,542.521 633.752,545.873 611.562,545.77 589.352,545.667 567.242,541.942 545.042,542.071 520.552,542.213 496.232,547.004 471.741,547.003 450.342,547.002 429.086,542.984 407.689,542.687 392.082,542.47 360.901,544.537 360.901,544.537 L 360.901,594.239 868.378,594.239 z"
 style="fill:#003f00;fill-opacity:1;fill-rule:nonzero;stroke:none" />
<g
 inkscape:export-ydpi="90"
 inkscape:export-xdpi="90"
 inkscape:export-filename="/tmp/farm.png"
 id="g3885"
 transform="matrix(-1,0,0,1,782.078,115.593)">
<path
 sodipodi:nodetypes="cccccc"
 style="fill:#005500;fill-opacity:1;fill-rule:nonzero;stroke:none"
 d="M 360.11,417.669 356.732,401.585 359.809,391.415 360.978,400.705 363.164,407.962 z"
 id="path3887"
 inkscape:connector-curvature="0" />
<path
 inkscape:connector-curvature="0"
 id="path3889"
 d="M 360.266,416.365 363.065,400.17 369.68,391.855 367.336,400.92 366.688,408.472 z"
 style="fill:#005500;fill-opacity:1;fill-rule:nonzero;stroke:none"
 sodipodi:nodetypes="cccccc" />
<path
 sodipodi:nodetypes="cccccc"
 style="fill:#005500;fill-opacity:1;fill-rule:nonzero;stroke:none"
 d="M 362.744,418.328 351.526,406.317 348.894,396.023 354.703,403.366 360.332,408.442 z"
 id="path3891"
 inkscape:connector-curvature="0" />
</g>
<g
 inkscape:export-ydpi="90"
 inkscape:export-xdpi="90"
 inkscape:export-filename="/tmp/farm.png"
 transform="matrix(-1,0,0,1,733.472,118.744)"
 id="g3893">
<path
 inkscape:connector-curvature="0"
 id="path3895"
 d="M 360.11,417.669 356.732,401.585 359.809,391.415 360.978,400.705 363.164,407.962 z"
 style="fill:#005500;fill-opacity:1;fill-rule:nonzero;stroke:none"
 sodipodi:nodetypes="cccccc" />
<path
 sodipodi:nodetypes="cccccc"
 style="fill:#005500;fill-opacity:1;fill-rule:nonzero;stroke:none"
 d="M 360.266,416.365 363.065,400.17 369.68,391.855 367.336,400.92 366.688,408.472 z"
 id="path3897"
 inkscape:connector-curvature="0" />
<path
 inkscape:connector-curvature="0"
 id="path3899"
 d="M 362.744,418.328 351.526,406.317 348.894,396.023 354.703,403.366 360.332,408.442 z"
 style="fill:#005500;fill-opacity:1;fill-rule:nonzero;stroke:none"
 sodipodi:nodetypes="cccccc" />
</g>
<g
 inkscape:export-ydpi="90"
 inkscape:export-xdpi="90"
 inkscape:export-filename="/tmp/farm.png"
 id="g3901"
 transform="matrix(0.75879,0,0,0.75879,125.214,215.02)">
<path
 sodipodi:nodetypes="cccccc"
 style="fill:#005500;fill-opacity:1;fill-rule:nonzero;stroke:none"
 d="M 360.11,417.669 356.732,401.585 359.809,391.415 360.978,400.705 363.164,407.962 z"
 id="path3903"
 inkscape:connector-curvature="0" />
<path
 inkscape:connector-curvature="0"
 id="path3905"
 d="M 360.266,416.365 363.065,400.17 369.68,391.855 367.336,400.92 366.688,408.472 z"
 style="fill:#005500;fill-opacity:1;fill-rule:nonzero;stroke:none"
 sodipodi:nodetypes="cccccc" />
<path
 sodipodi:nodetypes="cccccc"
 style="fill:#005500;fill-opacity:1;fill-rule:nonzero;stroke:none"
 d="M 362.744,418.328 351.526,406.317 348.894,396.023 354.703,403.366 360.332,408.442 z"
 id="path3907"
 inkscape:connector-curvature="0" />
</g>
<g
 transform="matrix(-1,0,0,1,1216.15,117.443)"
 id="g3909"
 inkscape:export-filename="/tmp/farm.png"
 inkscape:export-xdpi="90"
 inkscape:export-ydpi="90">
<path
 inkscape:connector-curvature="0"
 id="path3911"
 d="M 360.11,417.669 356.732,401.585 359.809,391.415 360.978,400.705 363.164,407.962 z"
 style="fill:#005500;fill-opacity:1;fill-rule:nonzero;stroke:none"
 sodipodi:nodetypes="cccccc" />
<path
 sodipodi:nodetypes="cccccc"
 style="fill:#005500;fill-opacity:1;fill-rule:nonzero;stroke:none"
 d="M 360.266,416.365 363.065,400.17 369.68,391.855 367.336,400.92 366.688,408.472 z"
 id="path3913"
 inkscape:connector-curvature="0" />
<path
 inkscape:connector-curvature="0"
 id="path3915"
 d="M 362.744,418.328 351.526,406.317 348.894,396.023 354.703,403.366 360.332,408.442 z"
 style="fill:#005500;fill-opacity:1;fill-rule:nonzero;stroke:none"
 sodipodi:nodetypes="cccccc" />
</g>
<g
 id="g3917"
 transform="matrix(-1,0,0,1,1167.54,120.593)"
 inkscape:export-filename="/tmp/farm.png"
 inkscape:export-xdpi="90"
 inkscape:export-ydpi="90">
<path
 sodipodi:nodetypes="cccccc"
 style="fill:#005500;fill-opacity:1;fill-rule:nonzero;stroke:none"
 d="M 360.11,417.669 356.732,401.585 359.809,391.415 360.978,400.705 363.164,407.962 z"
 id="path3919"
 inkscape:connector-curvature="0" />
<path
 inkscape:connector-curvature="0"
 id="path3921"
 d="M 360.266,416.365 363.065,400.17 369.68,391.855 367.336,400.92 366.688,408.472 z"
 style="fill:#005500;fill-opacity:1;fill-rule:nonzero;stroke:none"
 sodipodi:nodetypes="cccccc" />
<path
 sodipodi:nodetypes="cccccc"
 style="fill:#005500;fill-opacity:1;fill-rule:nonzero;stroke:none"
 d="M 362.744,418.328 351.526,406.317 348.894,396.023 354.703,403.366 360.332,408.442 z"
 id="path3923"
 inkscape:connector-curvature="0" />
</g>
<g
 transform="matrix(0.75879,0,0,0.75879,559.282,216.87)"
 id="g3925"
 inkscape:export-filename="/tmp/farm.png"
 inkscape:export-xdpi="90"
 inkscape:export-ydpi="90">
<path
 inkscape:connector-curvature="0"
 id="path3927"
 d="M 360.11,417.669 356.732,401.585 359.809,391.415 360.978,400.705 363.164,407.962 z"
 style="fill:#005500;fill-opacity:1;fill-rule:nonzero;stroke:none"
 sodipodi:nodetypes="cccccc" />
<path
 sodipodi:nodetypes="cccccc"
 style="fill:#005500;fill-opacity:1;fill-rule:nonzero;stroke:none"
 d="M 360.266,416.365 363.065,400.17 369.68,391.855 367.336,400.92 366.688,408.472 z"
 id="path3929"
 inkscape:connector-curvature="0" />
<path
 inkscape:connector-curvature="0"
 id="path3931"
 d="M 362.744,418.328 351.526,406.317 348.894,396.023 354.703,403.366 360.332,408.442 z"
 style="fill:#005500;fill-opacity:1;fill-rule:nonzero;stroke:none"
 sodipodi:nodetypes="cccccc" />
</g>
<path
 sodipodi:nodetypes="cccccc"
 style="fill:#005500;fill-opacity:1;fill-rule:nonzero;stroke:none"
 d="M 686.562,314.503 683.182,298.419 686.262,288.249 687.432,297.539 689.612,304.796 z"
 id="path3935"
 inkscape:connector-curvature="0" />
<path
 inkscape:connector-curvature="0"
 id="path3937"
 d="M 686.712,313.199 689.512,297.004 696.132,288.689 693.782,297.754 693.142,305.306 z"
 style="fill:#005500;fill-opacity:1;fill-rule:nonzero;stroke:none"
 sodipodi:nodetypes="cccccc" />
<path
 sodipodi:nodetypes="cccccc"
 style="fill:#005500;fill-opacity:1;fill-rule:nonzero;stroke:none"
 d="M 689.192,315.162 677.972,303.151 675.342,292.857 681.152,300.2 686.782,305.276 z"
 id="path3939"
 inkscape:connector-curvature="0" />
<path
 inkscape:connector-curvature="0"
 id="path3944"
 d="M 686.862,310.68 680.272,304.681 677.952,298.484 681.662,302.6 685.072,305.319 z"
 style="fill:#008033;fill-opacity:1;fill-rule:nonzero;stroke:none"
 sodipodi:nodetypes="cccccc" />
<path
 sodipodi:nodetypes="cccccc"
 style="fill:#008033;fill-opacity:1;fill-rule:nonzero;stroke:none"
 d="M 686.632,310.748 692.092,306.032 692.622,298.362 690.022,302.978 687.492,306.169 z"
 id="path3946"
 inkscape:connector-curvature="0" />
<path
 inkscape:connector-curvature="0"
 id="path3948"
 d="M 685.602,308.975 684.512,302.988 684.872,296.482 685.742,301.322 689.642,307.093 686.862,310.541 z"
 style="fill:#008033;fill-opacity:1;fill-rule:nonzero;stroke:none"
 sodipodi:nodetypes="ccccccc"
 inkscape:transform-center-y="2.61589" />
<g
 id="g4825"
 transform="matrix(1.23515,0,0,1.23515,-1092.86,67.6928)">
<path
 sodipodi:nodetypes="cccccccccccccccc"
 inkscape:connector-curvature="0"
 id="path4775"
 d="M 988.374,265.984 914.138,324.886 903.964,356.886 884.997,367.035 889.928,373.18 911.786,361.363 922.058,328.626 988.205,276.248 1055.23,329.294 1065.65,361.857 1087.33,373.502 1092.26,367.357 1073.21,357.14 1062.91,324.921 993.926,270.656 z"
 style="fill:#00411c;fill-opacity:1;fill-rule:nonzero;stroke:none"
 inkscape:export-filename="/tmp/farm2.png"
 inkscape:export-xdpi="180"
 inkscape:export-ydpi="180" />
<path
 style="fill:#b82d27;fill-opacity:1;fill-rule:nonzero;stroke:none"
 d="M 911.537,360.296 920.388,329.687 988.603,276.504 1056.27,331.879 1063.42,360.562 1058.01,430.967 914.776,430.967 z"
 id="path4777"
 inkscape:connector-curvature="0"
 sodipodi:nodetypes="cccccccc"
 inkscape:export-filename="/tmp/farm2.png"
 inkscape:export-xdpi="180"
 inkscape:export-ydpi="180" />
<path
 style="fill:#db7918;fill-opacity:1;fill-rule:nonzero;stroke:none"
 d="M 953.577,369.302 987.889,362.675 1030.56,369.687 1019.72,430.468 961.622,430.468 z"
 id="path4779"
 inkscape:connector-curvature="0"
 sodipodi:nodetypes="cccccc"
 inkscape:export-filename="/tmp/farm2.png"
 inkscape:export-xdpi="180"
 inkscape:export-ydpi="180" />
<path
 style="fill:#db7918;fill-opacity:1;fill-rule:nonzero;stroke:none"
 d="M 975.367,312.666 1002.47,312.666 1006.18,336.372 971.663,334.115 z"
 id="path4781"
 inkscape:connector-curvature="0"
 sodipodi:nodetypes="ccccc"
 inkscape:export-filename="/tmp/farm2.png"
 inkscape:export-xdpi="180"
 inkscape:export-ydpi="180" />
<path
 style="fill:#000000;fill-opacity:0.392157;fill-rule:nonzero;stroke:none"
 d="M 989.009,276.114 916.335,333.116 906.733,362.915 912.582,369.178 914.044,368.405 924.087,336.731 988.843,286.047 1054.46,337.365 1062.87,363.329 1069.82,357.424 1061.99,333.144 994.445,280.638 989.009,276.114 z"
 id="path4783"
 inkscape:connector-curvature="0"
 inkscape:export-filename="/tmp/farm2.png"
 inkscape:export-xdpi="180"
 inkscape:export-ydpi="180" />
<path
 style="fill:#ffffff;fill-opacity:1;fill-rule:nonzero;stroke:none"
 d="M 988.635,271.112 915.961,328.103 906.001,359.065 887.433,368.885 892.26,374.83 913.658,363.397 923.714,331.722 988.47,281.043 1054.08,332.368 1064.29,363.875 1085.51,375.142 1090.34,369.196 1071.68,359.311 1061.6,328.137 994.071,275.632 z"
 id="path4785"
 inkscape:connector-curvature="0"
 sodipodi:nodetypes="cccccccccccccccc"
 inkscape:export-filename="/tmp/farm2.png"
 inkscape:export-xdpi="180"
 inkscape:export-ydpi="180" />
<path
 style="fill:#feb312;fill-opacity:1;fill-rule:nonzero;stroke:none"
 d="M 1010.61,418.264 999.023,419.451 986.607,425.521 982.634,421.796 968.949,418.651 959.099,429.218 959.899,430.57 1019.74,430.377 1021.4,427.838 1020.49,426.293 1010.61,418.264 z"
 id="path4787"
 inkscape:connector-curvature="0"
 inkscape:export-filename="/tmp/farm2.png"
 inkscape:export-xdpi="180"
 inkscape:export-ydpi="180" />
<path
 style="fill:#6f1400;fill-opacity:1;fill-rule:nonzero;stroke:none"
 d="M 959.32,430.582 962.207,430.775 953.546,369.571 988.767,363.22 1030.53,370.341 1019.56,430.967 1022.06,430.967 1035.15,368.416 987.612,359.756 948.734,368.031 z"
 id="path4789"
 inkscape:connector-curvature="0"
 inkscape:export-filename="/tmp/farm2.png"
 inkscape:export-xdpi="180"
 inkscape:export-ydpi="180" />
<path
 style="fill:#6f1400;fill-opacity:1;fill-rule:nonzero;stroke:none"
 d="M 971.259,334.008 972.099,333.895 975.644,314.349 1002.04,315.712 1005.68,335.145 1006.52,335.373 1004.38,312.758 973.591,311.62 z"
 id="path4791"
 inkscape:connector-curvature="0"
 sodipodi:nodetypes="ccccccccc"
 inkscape:export-filename="/tmp/farm2.png"
 inkscape:export-xdpi="180"
 inkscape:export-ydpi="180" />
<path
 sodipodi:nodetypes="ccccc"
 inkscape:connector-curvature="0"
 id="path4793"
 d="M 1019.01,336.194 960.752,332.213 960.361,335.907 1018.62,339.888 z"
 style="fill:#000000;fill-opacity:0.219608;fill-rule:nonzero;stroke:none"
 inkscape:export-filename="/tmp/farm2.png"
 inkscape:export-xdpi="180"
 inkscape:export-ydpi="180" />
<path
 style="fill:#ffffff;fill-opacity:1;fill-rule:nonzero;stroke:none"
 d="M 1018.24,334.847 959.982,330.866 959.591,334.56 1017.85,338.541 z"
 id="path4795"
 inkscape:connector-curvature="0"
 sodipodi:nodetypes="ccccc"
 inkscape:export-filename="/tmp/farm2.png"
 inkscape:export-xdpi="180"
 inkscape:export-ydpi="180" />
<path
 sodipodi:nodetypes="cccccccccccccccccccccccc"
 inkscape:connector-curvature="0"
 id="path4797"
 d="M 972.4,336.248 978.403,329.824 984.907,331.314 986.807,333.083 992.71,330.197 998.213,329.638 1002.92,333.456 1005.92,338.576 1001.71,335.659 1002.51,339.601 1000.92,342.3 1000.51,339.135 997.712,336.856 998.713,342.672 993.71,338.908 993.51,342.021 993.01,345.746 991.009,341.727 987.207,339.267 985.007,343.902 982.205,338.93 976.703,342.356 977.502,336.615 z"
 style="fill:#000000;fill-opacity:0.219608;fill-rule:nonzero;stroke:none"
 inkscape:export-filename="/tmp/farm2.png"
 inkscape:export-xdpi="180"
 inkscape:export-ydpi="180" />
<path
 style="fill:#feb312;fill-opacity:1;fill-rule:nonzero;stroke:none"
 d="M 971.342,334.035 977.344,327.611 983.848,329.1 985.748,330.869 991.651,327.983 997.154,327.424 1001.86,331.242 1004.86,336.363 1000.66,333.446 1001.46,337.387 999.856,340.087 999.455,336.922 996.654,334.642 997.654,340.459 992.651,336.695 992.452,339.808 991.951,343.532 989.951,339.514 986.149,337.053 983.949,341.689 981.146,336.716 975.644,340.143 976.444,334.402 z"
 id="path4799"
 inkscape:connector-curvature="0"
 sodipodi:nodetypes="cccccccccccccccccccccccc"
 inkscape:export-filename="/tmp/farm2.png"
 inkscape:export-xdpi="180"
 inkscape:export-ydpi="180" />
</g>
</g>
</svg>
